G04 #@! TF.GenerationSoftware,KiCad,Pcbnew,(5.0.0)*
G04 #@! TF.CreationDate,2019-01-27T17:49:07+01:00*
G04 #@! TF.ProjectId,HeaterControlIndication,486561746572436F6E74726F6C496E64,rev?*
G04 #@! TF.SameCoordinates,Original*
G04 #@! TF.FileFunction,Legend,Top*
G04 #@! TF.FilePolarity,Positive*
%FSLAX46Y46*%
G04 Gerber Fmt 4.6, Leading zero omitted, Abs format (unit mm)*
G04 Created by KiCad (PCBNEW (5.0.0)) date 01/27/19 17:49:07*
%MOMM*%
%LPD*%
G01*
G04 APERTURE LIST*
%ADD10C,0.120000*%
%ADD11C,0.150000*%
G04 APERTURE END LIST*
D10*
G04 #@! TO.C,C1*
X180603000Y-76276364D02*
X180603000Y-75072236D01*
X178783000Y-76276364D02*
X178783000Y-75072236D01*
G04 #@! TO.C,C2*
X174137936Y-80098300D02*
X175342064Y-80098300D01*
X174137936Y-81918300D02*
X175342064Y-81918300D01*
G04 #@! TO.C,C3*
X164428100Y-116461833D02*
X164428100Y-116804367D01*
X165448100Y-116461833D02*
X165448100Y-116804367D01*
G04 #@! TO.C,C4*
X169590293Y-100397960D02*
X169932827Y-100397960D01*
X169590293Y-101417960D02*
X169932827Y-101417960D01*
G04 #@! TO.C,C5*
X165072933Y-108769800D02*
X165415467Y-108769800D01*
X165072933Y-109789800D02*
X165415467Y-109789800D01*
G04 #@! TO.C,C6*
X157385267Y-111109300D02*
X157042733Y-111109300D01*
X157385267Y-110089300D02*
X157042733Y-110089300D01*
G04 #@! TO.C,C7*
X182246747Y-99630880D02*
X181904213Y-99630880D01*
X182246747Y-100650880D02*
X181904213Y-100650880D01*
G04 #@! TO.C,C8*
X178700360Y-111076667D02*
X178700360Y-110734133D01*
X179720360Y-111076667D02*
X179720360Y-110734133D01*
G04 #@! TO.C,C9*
X155804800Y-114098333D02*
X155804800Y-114440867D01*
X156824800Y-114098333D02*
X156824800Y-114440867D01*
G04 #@! TO.C,C10*
X159106800Y-116449133D02*
X159106800Y-116791667D01*
X160126800Y-116449133D02*
X160126800Y-116791667D01*
G04 #@! TO.C,D1*
X161044200Y-95065200D02*
X161044200Y-93605200D01*
X164204200Y-95065200D02*
X164204200Y-92905200D01*
X164204200Y-95065200D02*
X163274200Y-95065200D01*
X161044200Y-95065200D02*
X161974200Y-95065200D01*
G04 #@! TO.C,F1*
X131344000Y-104968300D02*
X131344000Y-104068300D01*
X131344000Y-104068300D02*
X129744000Y-104068300D01*
X129744000Y-104068300D02*
X129744000Y-104968300D01*
X136944000Y-96868300D02*
X124144000Y-96868300D01*
X136964000Y-69678300D02*
X136964000Y-105018300D01*
X136964000Y-69678300D02*
X124124000Y-69678300D01*
X124124000Y-105018300D02*
X136964000Y-105018300D01*
X124124000Y-105018300D02*
X124124000Y-69678300D01*
G04 #@! TO.C,J1*
X177912621Y-83112219D02*
X177912621Y-93973219D01*
X183012621Y-83112219D02*
X183012621Y-93973219D01*
X184132621Y-83112219D02*
X184132621Y-93973219D01*
X177392621Y-83112219D02*
X177392621Y-93973219D01*
X184132621Y-83112219D02*
X177392621Y-83112219D01*
X184132621Y-93973219D02*
X177392621Y-93973219D01*
X177792621Y-82872219D02*
X177152621Y-82872219D01*
X177152621Y-82872219D02*
X177152621Y-83272219D01*
G04 #@! TO.C,J2*
X115573200Y-69719300D02*
X123193200Y-69719300D01*
X115573200Y-84959300D02*
X123193200Y-84959300D01*
X116843200Y-69719300D02*
X116843200Y-84959300D01*
X123193200Y-69719300D02*
X123193200Y-84959300D01*
X115573200Y-69719300D02*
X115573200Y-84959300D01*
G04 #@! TO.C,J3*
X166529720Y-102717400D02*
X163869720Y-102717400D01*
X166529720Y-105317400D02*
X166529720Y-102717400D01*
X163869720Y-105317400D02*
X163869720Y-102717400D01*
X166529720Y-105317400D02*
X163869720Y-105317400D01*
X166529720Y-106587400D02*
X166529720Y-107917400D01*
X166529720Y-107917400D02*
X165199720Y-107917400D01*
G04 #@! TO.C,J4*
X180923280Y-116858200D02*
X183583280Y-116858200D01*
X180923280Y-104098200D02*
X180923280Y-116858200D01*
X183583280Y-104098200D02*
X183583280Y-116858200D01*
X180923280Y-104098200D02*
X183583280Y-104098200D01*
X180923280Y-102828200D02*
X180923280Y-101498200D01*
X180923280Y-101498200D02*
X182253280Y-101498200D01*
G04 #@! TO.C,K1*
X137799000Y-109424300D02*
X160499000Y-109424300D01*
X160499000Y-109424300D02*
X160499000Y-92724300D01*
X160499000Y-92724300D02*
X137799000Y-92724300D01*
X137799000Y-92724300D02*
X137799000Y-109424300D01*
X155449000Y-100724300D02*
X155849000Y-101424300D01*
X155049000Y-101424300D02*
X156249000Y-101424300D01*
X156249000Y-101424300D02*
X156249000Y-100724300D01*
X156249000Y-100724300D02*
X155049000Y-100724300D01*
X155049000Y-100724300D02*
X155049000Y-101424300D01*
X160759000Y-100074300D02*
X160759000Y-102074300D01*
X155649000Y-96574300D02*
X155649000Y-99724300D01*
X155649000Y-102424300D02*
X155649000Y-105574300D01*
G04 #@! TO.C,PS1*
X137861000Y-92081300D02*
X137861000Y-69641300D01*
X171801000Y-69641300D02*
X171801000Y-92081300D01*
X137861000Y-69641300D02*
X171801000Y-69641300D01*
X137861000Y-92081300D02*
X171801000Y-92081300D01*
X138831000Y-69311300D02*
X144831000Y-69311300D01*
G04 #@! TO.C,Q1*
X182215300Y-95388000D02*
X181285300Y-95388000D01*
X179055300Y-95388000D02*
X179985300Y-95388000D01*
X179055300Y-95388000D02*
X179055300Y-97548000D01*
X182215300Y-95388000D02*
X182215300Y-96848000D01*
G04 #@! TO.C,Q2*
X167887200Y-93545200D02*
X166957200Y-93545200D01*
X164727200Y-93545200D02*
X165657200Y-93545200D01*
X164727200Y-93545200D02*
X164727200Y-95705200D01*
X167887200Y-93545200D02*
X167887200Y-95005200D01*
G04 #@! TO.C,R1*
X176417700Y-90587148D02*
X176417700Y-91109652D01*
X174997700Y-90587148D02*
X174997700Y-91109652D01*
G04 #@! TO.C,R2*
X178531640Y-96466587D02*
X178531640Y-96124053D01*
X177511640Y-96466587D02*
X177511640Y-96124053D01*
G04 #@! TO.C,R3*
X162976680Y-106590093D02*
X162976680Y-106932627D01*
X161956680Y-106590093D02*
X161956680Y-106932627D01*
G04 #@! TO.C,R4*
X166124433Y-96387300D02*
X166466967Y-96387300D01*
X166124433Y-97407300D02*
X166466967Y-97407300D01*
G04 #@! TO.C,R5*
X157493900Y-113285167D02*
X157493900Y-112942633D01*
X158513900Y-113285167D02*
X158513900Y-112942633D01*
G04 #@! TO.C,R6*
X160126800Y-113285167D02*
X160126800Y-112942633D01*
X159106800Y-113285167D02*
X159106800Y-112942633D01*
G04 #@! TO.C,U1*
X176570800Y-78271300D02*
X176570800Y-79471300D01*
X176570800Y-79471300D02*
X173870800Y-79471300D01*
X172570800Y-74671300D02*
X176570800Y-74671300D01*
X176570800Y-74671300D02*
X176570800Y-75871300D01*
D11*
G04 #@! TO.C,U2*
X169585920Y-103415760D02*
X169585920Y-103640760D01*
X176835920Y-103415760D02*
X176835920Y-103715760D01*
X176835920Y-110665760D02*
X176835920Y-110365760D01*
X169585920Y-110665760D02*
X169585920Y-110365760D01*
X169585920Y-103415760D02*
X169885920Y-103415760D01*
X169585920Y-110665760D02*
X169885920Y-110665760D01*
X176835920Y-110665760D02*
X176535920Y-110665760D01*
X176835920Y-103415760D02*
X176535920Y-103415760D01*
X169585920Y-103640760D02*
X168360920Y-103640760D01*
G04 #@! TO.C,U3*
X149551000Y-110056300D02*
X149551000Y-110106300D01*
X153701000Y-110056300D02*
X153701000Y-110201300D01*
X153701000Y-115206300D02*
X153701000Y-115061300D01*
X149551000Y-115206300D02*
X149551000Y-115061300D01*
X149551000Y-110056300D02*
X153701000Y-110056300D01*
X149551000Y-115206300D02*
X153701000Y-115206300D01*
X149551000Y-110106300D02*
X148151000Y-110106300D01*
D10*
G04 #@! TO.C,U4*
X160686500Y-115987100D02*
X160686500Y-117787100D01*
X163906500Y-117787100D02*
X163906500Y-115337100D01*
G04 #@! TO.C,C1*
D11*
X181833333Y-75857142D02*
X181785714Y-75904761D01*
X181642857Y-75952380D01*
X181547619Y-75952380D01*
X181404761Y-75904761D01*
X181309523Y-75809523D01*
X181261904Y-75714285D01*
X181214285Y-75523809D01*
X181214285Y-75380952D01*
X181261904Y-75190476D01*
X181309523Y-75095238D01*
X181404761Y-75000000D01*
X181547619Y-74952380D01*
X181642857Y-74952380D01*
X181785714Y-75000000D01*
X181833333Y-75047619D01*
X182785714Y-75952380D02*
X182214285Y-75952380D01*
X182500000Y-75952380D02*
X182500000Y-74952380D01*
X182404761Y-75095238D01*
X182309523Y-75190476D01*
X182214285Y-75238095D01*
G04 #@! TO.C,C2*
X177833333Y-81357142D02*
X177785714Y-81404761D01*
X177642857Y-81452380D01*
X177547619Y-81452380D01*
X177404761Y-81404761D01*
X177309523Y-81309523D01*
X177261904Y-81214285D01*
X177214285Y-81023809D01*
X177214285Y-80880952D01*
X177261904Y-80690476D01*
X177309523Y-80595238D01*
X177404761Y-80500000D01*
X177547619Y-80452380D01*
X177642857Y-80452380D01*
X177785714Y-80500000D01*
X177833333Y-80547619D01*
X178214285Y-80547619D02*
X178261904Y-80500000D01*
X178357142Y-80452380D01*
X178595238Y-80452380D01*
X178690476Y-80500000D01*
X178738095Y-80547619D01*
X178785714Y-80642857D01*
X178785714Y-80738095D01*
X178738095Y-80880952D01*
X178166666Y-81452380D01*
X178785714Y-81452380D01*
G04 #@! TO.C,C3*
X166333333Y-116857142D02*
X166285714Y-116904761D01*
X166142857Y-116952380D01*
X166047619Y-116952380D01*
X165904761Y-116904761D01*
X165809523Y-116809523D01*
X165761904Y-116714285D01*
X165714285Y-116523809D01*
X165714285Y-116380952D01*
X165761904Y-116190476D01*
X165809523Y-116095238D01*
X165904761Y-116000000D01*
X166047619Y-115952380D01*
X166142857Y-115952380D01*
X166285714Y-116000000D01*
X166333333Y-116047619D01*
X166666666Y-115952380D02*
X167285714Y-115952380D01*
X166952380Y-116333333D01*
X167095238Y-116333333D01*
X167190476Y-116380952D01*
X167238095Y-116428571D01*
X167285714Y-116523809D01*
X167285714Y-116761904D01*
X167238095Y-116857142D01*
X167190476Y-116904761D01*
X167095238Y-116952380D01*
X166809523Y-116952380D01*
X166714285Y-116904761D01*
X166666666Y-116857142D01*
G04 #@! TO.C,C4*
X169594893Y-99835102D02*
X169547274Y-99882721D01*
X169404417Y-99930340D01*
X169309179Y-99930340D01*
X169166321Y-99882721D01*
X169071083Y-99787483D01*
X169023464Y-99692245D01*
X168975845Y-99501769D01*
X168975845Y-99358912D01*
X169023464Y-99168436D01*
X169071083Y-99073198D01*
X169166321Y-98977960D01*
X169309179Y-98930340D01*
X169404417Y-98930340D01*
X169547274Y-98977960D01*
X169594893Y-99025579D01*
X170452036Y-99263674D02*
X170452036Y-99930340D01*
X170213940Y-98882721D02*
X169975845Y-99597007D01*
X170594893Y-99597007D01*
G04 #@! TO.C,C5*
X165077533Y-111357142D02*
X165029914Y-111404761D01*
X164887057Y-111452380D01*
X164791819Y-111452380D01*
X164648961Y-111404761D01*
X164553723Y-111309523D01*
X164506104Y-111214285D01*
X164458485Y-111023809D01*
X164458485Y-110880952D01*
X164506104Y-110690476D01*
X164553723Y-110595238D01*
X164648961Y-110500000D01*
X164791819Y-110452380D01*
X164887057Y-110452380D01*
X165029914Y-110500000D01*
X165077533Y-110547619D01*
X165982295Y-110452380D02*
X165506104Y-110452380D01*
X165458485Y-110928571D01*
X165506104Y-110880952D01*
X165601342Y-110833333D01*
X165839438Y-110833333D01*
X165934676Y-110880952D01*
X165982295Y-110928571D01*
X166029914Y-111023809D01*
X166029914Y-111261904D01*
X165982295Y-111357142D01*
X165934676Y-111404761D01*
X165839438Y-111452380D01*
X165601342Y-111452380D01*
X165506104Y-111404761D01*
X165458485Y-111357142D01*
G04 #@! TO.C,C6*
X156333333Y-112386442D02*
X156285714Y-112434061D01*
X156142857Y-112481680D01*
X156047619Y-112481680D01*
X155904761Y-112434061D01*
X155809523Y-112338823D01*
X155761904Y-112243585D01*
X155714285Y-112053109D01*
X155714285Y-111910252D01*
X155761904Y-111719776D01*
X155809523Y-111624538D01*
X155904761Y-111529300D01*
X156047619Y-111481680D01*
X156142857Y-111481680D01*
X156285714Y-111529300D01*
X156333333Y-111576919D01*
X157190476Y-111481680D02*
X157000000Y-111481680D01*
X156904761Y-111529300D01*
X156857142Y-111576919D01*
X156761904Y-111719776D01*
X156714285Y-111910252D01*
X156714285Y-112291204D01*
X156761904Y-112386442D01*
X156809523Y-112434061D01*
X156904761Y-112481680D01*
X157095238Y-112481680D01*
X157190476Y-112434061D01*
X157238095Y-112386442D01*
X157285714Y-112291204D01*
X157285714Y-112053109D01*
X157238095Y-111957871D01*
X157190476Y-111910252D01*
X157095238Y-111862633D01*
X156904761Y-111862633D01*
X156809523Y-111910252D01*
X156761904Y-111957871D01*
X156714285Y-112053109D01*
G04 #@! TO.C,C7*
X183333333Y-99357142D02*
X183285714Y-99404761D01*
X183142857Y-99452380D01*
X183047619Y-99452380D01*
X182904761Y-99404761D01*
X182809523Y-99309523D01*
X182761904Y-99214285D01*
X182714285Y-99023809D01*
X182714285Y-98880952D01*
X182761904Y-98690476D01*
X182809523Y-98595238D01*
X182904761Y-98500000D01*
X183047619Y-98452380D01*
X183142857Y-98452380D01*
X183285714Y-98500000D01*
X183333333Y-98547619D01*
X183666666Y-98452380D02*
X184333333Y-98452380D01*
X183904761Y-99452380D01*
G04 #@! TO.C,C8*
X179333333Y-113857142D02*
X179285714Y-113904761D01*
X179142857Y-113952380D01*
X179047619Y-113952380D01*
X178904761Y-113904761D01*
X178809523Y-113809523D01*
X178761904Y-113714285D01*
X178714285Y-113523809D01*
X178714285Y-113380952D01*
X178761904Y-113190476D01*
X178809523Y-113095238D01*
X178904761Y-113000000D01*
X179047619Y-112952380D01*
X179142857Y-112952380D01*
X179285714Y-113000000D01*
X179333333Y-113047619D01*
X179904761Y-113380952D02*
X179809523Y-113333333D01*
X179761904Y-113285714D01*
X179714285Y-113190476D01*
X179714285Y-113142857D01*
X179761904Y-113047619D01*
X179809523Y-113000000D01*
X179904761Y-112952380D01*
X180095238Y-112952380D01*
X180190476Y-113000000D01*
X180238095Y-113047619D01*
X180285714Y-113142857D01*
X180285714Y-113190476D01*
X180238095Y-113285714D01*
X180190476Y-113333333D01*
X180095238Y-113380952D01*
X179904761Y-113380952D01*
X179809523Y-113428571D01*
X179761904Y-113476190D01*
X179714285Y-113571428D01*
X179714285Y-113761904D01*
X179761904Y-113857142D01*
X179809523Y-113904761D01*
X179904761Y-113952380D01*
X180095238Y-113952380D01*
X180190476Y-113904761D01*
X180238095Y-113857142D01*
X180285714Y-113761904D01*
X180285714Y-113571428D01*
X180238095Y-113476190D01*
X180190476Y-113428571D01*
X180095238Y-113380952D01*
G04 #@! TO.C,C9*
X155833333Y-116857142D02*
X155785714Y-116904761D01*
X155642857Y-116952380D01*
X155547619Y-116952380D01*
X155404761Y-116904761D01*
X155309523Y-116809523D01*
X155261904Y-116714285D01*
X155214285Y-116523809D01*
X155214285Y-116380952D01*
X155261904Y-116190476D01*
X155309523Y-116095238D01*
X155404761Y-116000000D01*
X155547619Y-115952380D01*
X155642857Y-115952380D01*
X155785714Y-116000000D01*
X155833333Y-116047619D01*
X156309523Y-116952380D02*
X156500000Y-116952380D01*
X156595238Y-116904761D01*
X156642857Y-116857142D01*
X156738095Y-116714285D01*
X156785714Y-116523809D01*
X156785714Y-116142857D01*
X156738095Y-116047619D01*
X156690476Y-116000000D01*
X156595238Y-115952380D01*
X156404761Y-115952380D01*
X156309523Y-116000000D01*
X156261904Y-116047619D01*
X156214285Y-116142857D01*
X156214285Y-116380952D01*
X156261904Y-116476190D01*
X156309523Y-116523809D01*
X156404761Y-116571428D01*
X156595238Y-116571428D01*
X156690476Y-116523809D01*
X156738095Y-116476190D01*
X156785714Y-116380952D01*
G04 #@! TO.C,C10*
X158357142Y-119357142D02*
X158309523Y-119404761D01*
X158166666Y-119452380D01*
X158071428Y-119452380D01*
X157928571Y-119404761D01*
X157833333Y-119309523D01*
X157785714Y-119214285D01*
X157738095Y-119023809D01*
X157738095Y-118880952D01*
X157785714Y-118690476D01*
X157833333Y-118595238D01*
X157928571Y-118500000D01*
X158071428Y-118452380D01*
X158166666Y-118452380D01*
X158309523Y-118500000D01*
X158357142Y-118547619D01*
X159309523Y-119452380D02*
X158738095Y-119452380D01*
X159023809Y-119452380D02*
X159023809Y-118452380D01*
X158928571Y-118595238D01*
X158833333Y-118690476D01*
X158738095Y-118738095D01*
X159928571Y-118452380D02*
X160023809Y-118452380D01*
X160119047Y-118500000D01*
X160166666Y-118547619D01*
X160214285Y-118642857D01*
X160261904Y-118833333D01*
X160261904Y-119071428D01*
X160214285Y-119261904D01*
X160166666Y-119357142D01*
X160119047Y-119404761D01*
X160023809Y-119452380D01*
X159928571Y-119452380D01*
X159833333Y-119404761D01*
X159785714Y-119357142D01*
X159738095Y-119261904D01*
X159690476Y-119071428D01*
X159690476Y-118833333D01*
X159738095Y-118642857D01*
X159785714Y-118547619D01*
X159833333Y-118500000D01*
X159928571Y-118452380D01*
G04 #@! TO.C,D1*
X161761904Y-96952380D02*
X161761904Y-95952380D01*
X162000000Y-95952380D01*
X162142857Y-96000000D01*
X162238095Y-96095238D01*
X162285714Y-96190476D01*
X162333333Y-96380952D01*
X162333333Y-96523809D01*
X162285714Y-96714285D01*
X162238095Y-96809523D01*
X162142857Y-96904761D01*
X162000000Y-96952380D01*
X161761904Y-96952380D01*
X163285714Y-96952380D02*
X162714285Y-96952380D01*
X163000000Y-96952380D02*
X163000000Y-95952380D01*
X162904761Y-96095238D01*
X162809523Y-96190476D01*
X162714285Y-96238095D01*
G04 #@! TO.C,F1*
X129666666Y-68928571D02*
X129333333Y-68928571D01*
X129333333Y-69452380D02*
X129333333Y-68452380D01*
X129809523Y-68452380D01*
X130714285Y-69452380D02*
X130142857Y-69452380D01*
X130428571Y-69452380D02*
X130428571Y-68452380D01*
X130333333Y-68595238D01*
X130238095Y-68690476D01*
X130142857Y-68738095D01*
G04 #@! TO.C,J1*
X180666666Y-81952380D02*
X180666666Y-82666666D01*
X180619047Y-82809523D01*
X180523809Y-82904761D01*
X180380952Y-82952380D01*
X180285714Y-82952380D01*
X181666666Y-82952380D02*
X181095238Y-82952380D01*
X181380952Y-82952380D02*
X181380952Y-81952380D01*
X181285714Y-82095238D01*
X181190476Y-82190476D01*
X181095238Y-82238095D01*
G04 #@! TO.C,J2*
X119166666Y-68452380D02*
X119166666Y-69166666D01*
X119119047Y-69309523D01*
X119023809Y-69404761D01*
X118880952Y-69452380D01*
X118785714Y-69452380D01*
X119595238Y-68547619D02*
X119642857Y-68500000D01*
X119738095Y-68452380D01*
X119976190Y-68452380D01*
X120071428Y-68500000D01*
X120119047Y-68547619D01*
X120166666Y-68642857D01*
X120166666Y-68738095D01*
X120119047Y-68880952D01*
X119547619Y-69452380D01*
X120166666Y-69452380D01*
G04 #@! TO.C,J3*
X165166666Y-101452380D02*
X165166666Y-102166666D01*
X165119047Y-102309523D01*
X165023809Y-102404761D01*
X164880952Y-102452380D01*
X164785714Y-102452380D01*
X165547619Y-101452380D02*
X166166666Y-101452380D01*
X165833333Y-101833333D01*
X165976190Y-101833333D01*
X166071428Y-101880952D01*
X166119047Y-101928571D01*
X166166666Y-102023809D01*
X166166666Y-102261904D01*
X166119047Y-102357142D01*
X166071428Y-102404761D01*
X165976190Y-102452380D01*
X165690476Y-102452380D01*
X165595238Y-102404761D01*
X165547619Y-102357142D01*
G04 #@! TO.C,J4*
X179666666Y-101452380D02*
X179666666Y-102166666D01*
X179619047Y-102309523D01*
X179523809Y-102404761D01*
X179380952Y-102452380D01*
X179285714Y-102452380D01*
X180571428Y-101785714D02*
X180571428Y-102452380D01*
X180333333Y-101404761D02*
X180095238Y-102119047D01*
X180714285Y-102119047D01*
G04 #@! TO.C,K1*
X159261904Y-110952380D02*
X159261904Y-109952380D01*
X159833333Y-110952380D02*
X159404761Y-110380952D01*
X159833333Y-109952380D02*
X159261904Y-110523809D01*
X160785714Y-110952380D02*
X160214285Y-110952380D01*
X160500000Y-110952380D02*
X160500000Y-109952380D01*
X160404761Y-110095238D01*
X160309523Y-110190476D01*
X160214285Y-110238095D01*
G04 #@! TO.C,MH1*
X172166666Y-122952380D02*
X172166666Y-121952380D01*
X172500000Y-122666666D01*
X172833333Y-121952380D01*
X172833333Y-122952380D01*
X173309523Y-122952380D02*
X173309523Y-121952380D01*
X173309523Y-122428571D02*
X173880952Y-122428571D01*
X173880952Y-122952380D02*
X173880952Y-121952380D01*
X174880952Y-122952380D02*
X174309523Y-122952380D01*
X174595238Y-122952380D02*
X174595238Y-121952380D01*
X174500000Y-122095238D01*
X174404761Y-122190476D01*
X174309523Y-122238095D01*
G04 #@! TO.C,MH2*
X118594766Y-59515180D02*
X118594766Y-58515180D01*
X118928100Y-59229466D01*
X119261433Y-58515180D01*
X119261433Y-59515180D01*
X119737623Y-59515180D02*
X119737623Y-58515180D01*
X119737623Y-58991371D02*
X120309052Y-58991371D01*
X120309052Y-59515180D02*
X120309052Y-58515180D01*
X120737623Y-58610419D02*
X120785242Y-58562800D01*
X120880480Y-58515180D01*
X121118576Y-58515180D01*
X121213814Y-58562800D01*
X121261433Y-58610419D01*
X121309052Y-58705657D01*
X121309052Y-58800895D01*
X121261433Y-58943752D01*
X120690004Y-59515180D01*
X121309052Y-59515180D01*
G04 #@! TO.C,MH3*
X124666666Y-122952380D02*
X124666666Y-121952380D01*
X125000000Y-122666666D01*
X125333333Y-121952380D01*
X125333333Y-122952380D01*
X125809523Y-122952380D02*
X125809523Y-121952380D01*
X125809523Y-122428571D02*
X126380952Y-122428571D01*
X126380952Y-122952380D02*
X126380952Y-121952380D01*
X126761904Y-121952380D02*
X127380952Y-121952380D01*
X127047619Y-122333333D01*
X127190476Y-122333333D01*
X127285714Y-122380952D01*
X127333333Y-122428571D01*
X127380952Y-122523809D01*
X127380952Y-122761904D01*
X127333333Y-122857142D01*
X127285714Y-122904761D01*
X127190476Y-122952380D01*
X126904761Y-122952380D01*
X126809523Y-122904761D01*
X126761904Y-122857142D01*
G04 #@! TO.C,MH4*
X178594766Y-59515180D02*
X178594766Y-58515180D01*
X178928100Y-59229466D01*
X179261433Y-58515180D01*
X179261433Y-59515180D01*
X179737623Y-59515180D02*
X179737623Y-58515180D01*
X179737623Y-58991371D02*
X180309052Y-58991371D01*
X180309052Y-59515180D02*
X180309052Y-58515180D01*
X181213814Y-58848514D02*
X181213814Y-59515180D01*
X180975719Y-58467561D02*
X180737623Y-59181847D01*
X181356671Y-59181847D01*
G04 #@! TO.C,PS1*
X138816714Y-68913680D02*
X138816714Y-67913680D01*
X139197666Y-67913680D01*
X139292904Y-67961300D01*
X139340523Y-68008919D01*
X139388142Y-68104157D01*
X139388142Y-68247014D01*
X139340523Y-68342252D01*
X139292904Y-68389871D01*
X139197666Y-68437490D01*
X138816714Y-68437490D01*
X139769095Y-68866061D02*
X139911952Y-68913680D01*
X140150047Y-68913680D01*
X140245285Y-68866061D01*
X140292904Y-68818442D01*
X140340523Y-68723204D01*
X140340523Y-68627966D01*
X140292904Y-68532728D01*
X140245285Y-68485109D01*
X140150047Y-68437490D01*
X139959571Y-68389871D01*
X139864333Y-68342252D01*
X139816714Y-68294633D01*
X139769095Y-68199395D01*
X139769095Y-68104157D01*
X139816714Y-68008919D01*
X139864333Y-67961300D01*
X139959571Y-67913680D01*
X140197666Y-67913680D01*
X140340523Y-67961300D01*
X141292904Y-68913680D02*
X140721476Y-68913680D01*
X141007190Y-68913680D02*
X141007190Y-67913680D01*
X140911952Y-68056538D01*
X140816714Y-68151776D01*
X140721476Y-68199395D01*
G04 #@! TO.C,Q1*
X183404761Y-96547619D02*
X183309523Y-96500000D01*
X183214285Y-96404761D01*
X183071428Y-96261904D01*
X182976190Y-96214285D01*
X182880952Y-96214285D01*
X182928571Y-96452380D02*
X182833333Y-96404761D01*
X182738095Y-96309523D01*
X182690476Y-96119047D01*
X182690476Y-95785714D01*
X182738095Y-95595238D01*
X182833333Y-95500000D01*
X182928571Y-95452380D01*
X183119047Y-95452380D01*
X183214285Y-95500000D01*
X183309523Y-95595238D01*
X183357142Y-95785714D01*
X183357142Y-96119047D01*
X183309523Y-96309523D01*
X183214285Y-96404761D01*
X183119047Y-96452380D01*
X182928571Y-96452380D01*
X184309523Y-96452380D02*
X183738095Y-96452380D01*
X184023809Y-96452380D02*
X184023809Y-95452380D01*
X183928571Y-95595238D01*
X183833333Y-95690476D01*
X183738095Y-95738095D01*
G04 #@! TO.C,Q2*
X168904761Y-94852819D02*
X168809523Y-94805200D01*
X168714285Y-94709961D01*
X168571428Y-94567104D01*
X168476190Y-94519485D01*
X168380952Y-94519485D01*
X168428571Y-94757580D02*
X168333333Y-94709961D01*
X168238095Y-94614723D01*
X168190476Y-94424247D01*
X168190476Y-94090914D01*
X168238095Y-93900438D01*
X168333333Y-93805200D01*
X168428571Y-93757580D01*
X168619047Y-93757580D01*
X168714285Y-93805200D01*
X168809523Y-93900438D01*
X168857142Y-94090914D01*
X168857142Y-94424247D01*
X168809523Y-94614723D01*
X168714285Y-94709961D01*
X168619047Y-94757580D01*
X168428571Y-94757580D01*
X169238095Y-93852819D02*
X169285714Y-93805200D01*
X169380952Y-93757580D01*
X169619047Y-93757580D01*
X169714285Y-93805200D01*
X169761904Y-93852819D01*
X169809523Y-93948057D01*
X169809523Y-94043295D01*
X169761904Y-94186152D01*
X169190476Y-94757580D01*
X169809523Y-94757580D01*
G04 #@! TO.C,R1*
X173833333Y-90952380D02*
X173500000Y-90476190D01*
X173261904Y-90952380D02*
X173261904Y-89952380D01*
X173642857Y-89952380D01*
X173738095Y-90000000D01*
X173785714Y-90047619D01*
X173833333Y-90142857D01*
X173833333Y-90285714D01*
X173785714Y-90380952D01*
X173738095Y-90428571D01*
X173642857Y-90476190D01*
X173261904Y-90476190D01*
X174785714Y-90952380D02*
X174214285Y-90952380D01*
X174500000Y-90952380D02*
X174500000Y-89952380D01*
X174404761Y-90095238D01*
X174309523Y-90190476D01*
X174214285Y-90238095D01*
G04 #@! TO.C,R2*
X175833333Y-96452380D02*
X175500000Y-95976190D01*
X175261904Y-96452380D02*
X175261904Y-95452380D01*
X175642857Y-95452380D01*
X175738095Y-95500000D01*
X175785714Y-95547619D01*
X175833333Y-95642857D01*
X175833333Y-95785714D01*
X175785714Y-95880952D01*
X175738095Y-95928571D01*
X175642857Y-95976190D01*
X175261904Y-95976190D01*
X176214285Y-95547619D02*
X176261904Y-95500000D01*
X176357142Y-95452380D01*
X176595238Y-95452380D01*
X176690476Y-95500000D01*
X176738095Y-95547619D01*
X176785714Y-95642857D01*
X176785714Y-95738095D01*
X176738095Y-95880952D01*
X176166666Y-96452380D01*
X176785714Y-96452380D01*
G04 #@! TO.C,R3*
X162333333Y-109452380D02*
X162000000Y-108976190D01*
X161761904Y-109452380D02*
X161761904Y-108452380D01*
X162142857Y-108452380D01*
X162238095Y-108500000D01*
X162285714Y-108547619D01*
X162333333Y-108642857D01*
X162333333Y-108785714D01*
X162285714Y-108880952D01*
X162238095Y-108928571D01*
X162142857Y-108976190D01*
X161761904Y-108976190D01*
X162666666Y-108452380D02*
X163285714Y-108452380D01*
X162952380Y-108833333D01*
X163095238Y-108833333D01*
X163190476Y-108880952D01*
X163238095Y-108928571D01*
X163285714Y-109023809D01*
X163285714Y-109261904D01*
X163238095Y-109357142D01*
X163190476Y-109404761D01*
X163095238Y-109452380D01*
X162809523Y-109452380D01*
X162714285Y-109404761D01*
X162666666Y-109357142D01*
G04 #@! TO.C,R4*
X168833333Y-97452380D02*
X168500000Y-96976190D01*
X168261904Y-97452380D02*
X168261904Y-96452380D01*
X168642857Y-96452380D01*
X168738095Y-96500000D01*
X168785714Y-96547619D01*
X168833333Y-96642857D01*
X168833333Y-96785714D01*
X168785714Y-96880952D01*
X168738095Y-96928571D01*
X168642857Y-96976190D01*
X168261904Y-96976190D01*
X169690476Y-96785714D02*
X169690476Y-97452380D01*
X169452380Y-96404761D02*
X169214285Y-97119047D01*
X169833333Y-97119047D01*
G04 #@! TO.C,R5*
X157833333Y-115952380D02*
X157500000Y-115476190D01*
X157261904Y-115952380D02*
X157261904Y-114952380D01*
X157642857Y-114952380D01*
X157738095Y-115000000D01*
X157785714Y-115047619D01*
X157833333Y-115142857D01*
X157833333Y-115285714D01*
X157785714Y-115380952D01*
X157738095Y-115428571D01*
X157642857Y-115476190D01*
X157261904Y-115476190D01*
X158738095Y-114952380D02*
X158261904Y-114952380D01*
X158214285Y-115428571D01*
X158261904Y-115380952D01*
X158357142Y-115333333D01*
X158595238Y-115333333D01*
X158690476Y-115380952D01*
X158738095Y-115428571D01*
X158785714Y-115523809D01*
X158785714Y-115761904D01*
X158738095Y-115857142D01*
X158690476Y-115904761D01*
X158595238Y-115952380D01*
X158357142Y-115952380D01*
X158261904Y-115904761D01*
X158214285Y-115857142D01*
G04 #@! TO.C,R6*
X161333333Y-113452380D02*
X161000000Y-112976190D01*
X160761904Y-113452380D02*
X160761904Y-112452380D01*
X161142857Y-112452380D01*
X161238095Y-112500000D01*
X161285714Y-112547619D01*
X161333333Y-112642857D01*
X161333333Y-112785714D01*
X161285714Y-112880952D01*
X161238095Y-112928571D01*
X161142857Y-112976190D01*
X160761904Y-112976190D01*
X162190476Y-112452380D02*
X162000000Y-112452380D01*
X161904761Y-112500000D01*
X161857142Y-112547619D01*
X161761904Y-112690476D01*
X161714285Y-112880952D01*
X161714285Y-113261904D01*
X161761904Y-113357142D01*
X161809523Y-113404761D01*
X161904761Y-113452380D01*
X162095238Y-113452380D01*
X162190476Y-113404761D01*
X162238095Y-113357142D01*
X162285714Y-113261904D01*
X162285714Y-113023809D01*
X162238095Y-112928571D01*
X162190476Y-112880952D01*
X162095238Y-112833333D01*
X161904761Y-112833333D01*
X161809523Y-112880952D01*
X161761904Y-112928571D01*
X161714285Y-113023809D01*
G04 #@! TO.C,U1*
X174478895Y-73323680D02*
X174478895Y-74133204D01*
X174526514Y-74228442D01*
X174574133Y-74276061D01*
X174669371Y-74323680D01*
X174859847Y-74323680D01*
X174955085Y-74276061D01*
X175002704Y-74228442D01*
X175050323Y-74133204D01*
X175050323Y-73323680D01*
X176050323Y-74323680D02*
X175478895Y-74323680D01*
X175764609Y-74323680D02*
X175764609Y-73323680D01*
X175669371Y-73466538D01*
X175574133Y-73561776D01*
X175478895Y-73609395D01*
G04 #@! TO.C,U2*
X172449015Y-100643140D02*
X172449015Y-101452664D01*
X172496634Y-101547902D01*
X172544253Y-101595521D01*
X172639491Y-101643140D01*
X172829967Y-101643140D01*
X172925205Y-101595521D01*
X172972824Y-101547902D01*
X173020443Y-101452664D01*
X173020443Y-100643140D01*
X173449015Y-100738379D02*
X173496634Y-100690760D01*
X173591872Y-100643140D01*
X173829967Y-100643140D01*
X173925205Y-100690760D01*
X173972824Y-100738379D01*
X174020443Y-100833617D01*
X174020443Y-100928855D01*
X173972824Y-101071712D01*
X173401396Y-101643140D01*
X174020443Y-101643140D01*
G04 #@! TO.C,U3*
X152738095Y-115452380D02*
X152738095Y-116261904D01*
X152785714Y-116357142D01*
X152833333Y-116404761D01*
X152928571Y-116452380D01*
X153119047Y-116452380D01*
X153214285Y-116404761D01*
X153261904Y-116357142D01*
X153309523Y-116261904D01*
X153309523Y-115452380D01*
X153690476Y-115452380D02*
X154309523Y-115452380D01*
X153976190Y-115833333D01*
X154119047Y-115833333D01*
X154214285Y-115880952D01*
X154261904Y-115928571D01*
X154309523Y-116023809D01*
X154309523Y-116261904D01*
X154261904Y-116357142D01*
X154214285Y-116404761D01*
X154119047Y-116452380D01*
X153833333Y-116452380D01*
X153738095Y-116404761D01*
X153690476Y-116357142D01*
G04 #@! TO.C,U4*
X161738095Y-118952380D02*
X161738095Y-119761904D01*
X161785714Y-119857142D01*
X161833333Y-119904761D01*
X161928571Y-119952380D01*
X162119047Y-119952380D01*
X162214285Y-119904761D01*
X162261904Y-119857142D01*
X162309523Y-119761904D01*
X162309523Y-118952380D01*
X163214285Y-119285714D02*
X163214285Y-119952380D01*
X162976190Y-118904761D02*
X162738095Y-119619047D01*
X163357142Y-119619047D01*
G04 #@! TD*
M02*
