G04 #@! TF.GenerationSoftware,KiCad,Pcbnew,(5.0.0)*
G04 #@! TF.CreationDate,2019-01-27T17:49:07+01:00*
G04 #@! TF.ProjectId,HeaterControlIndication,486561746572436F6E74726F6C496E64,rev?*
G04 #@! TF.SameCoordinates,Original*
G04 #@! TF.FileFunction,Copper,L1,Top,Signal*
G04 #@! TF.FilePolarity,Positive*
%FSLAX46Y46*%
G04 Gerber Fmt 4.6, Leading zero omitted, Abs format (unit mm)*
G04 Created by KiCad (PCBNEW (5.0.0)) date 01/27/19 17:49:07*
%MOMM*%
%LPD*%
G01*
G04 APERTURE LIST*
G04 #@! TA.AperFunction,Conductor*
%ADD10C,0.100000*%
G04 #@! TD*
G04 #@! TA.AperFunction,SMDPad,CuDef*
%ADD11C,1.425000*%
G04 #@! TD*
G04 #@! TA.AperFunction,SMDPad,CuDef*
%ADD12C,0.950000*%
G04 #@! TD*
G04 #@! TA.AperFunction,SMDPad,CuDef*
%ADD13R,0.800000X0.900000*%
G04 #@! TD*
G04 #@! TA.AperFunction,ComponentPad*
%ADD14C,3.000000*%
G04 #@! TD*
G04 #@! TA.AperFunction,ComponentPad*
%ADD15R,2.100000X2.100000*%
G04 #@! TD*
G04 #@! TA.AperFunction,ComponentPad*
%ADD16C,2.100000*%
G04 #@! TD*
G04 #@! TA.AperFunction,ComponentPad*
%ADD17R,3.000000X3.000000*%
G04 #@! TD*
G04 #@! TA.AperFunction,ComponentPad*
%ADD18R,1.700000X1.700000*%
G04 #@! TD*
G04 #@! TA.AperFunction,ComponentPad*
%ADD19O,1.700000X1.700000*%
G04 #@! TD*
G04 #@! TA.AperFunction,ComponentPad*
%ADD20R,2.500000X2.500000*%
G04 #@! TD*
G04 #@! TA.AperFunction,ComponentPad*
%ADD21O,2.500000X2.500000*%
G04 #@! TD*
G04 #@! TA.AperFunction,ComponentPad*
%ADD22C,5.600000*%
G04 #@! TD*
G04 #@! TA.AperFunction,ComponentPad*
%ADD23C,2.300000*%
G04 #@! TD*
G04 #@! TA.AperFunction,ComponentPad*
%ADD24R,2.300000X2.000000*%
G04 #@! TD*
G04 #@! TA.AperFunction,SMDPad,CuDef*
%ADD25C,1.150000*%
G04 #@! TD*
G04 #@! TA.AperFunction,SMDPad,CuDef*
%ADD26C,0.850000*%
G04 #@! TD*
G04 #@! TA.AperFunction,SMDPad,CuDef*
%ADD27R,1.500000X1.000000*%
G04 #@! TD*
G04 #@! TA.AperFunction,SMDPad,CuDef*
%ADD28R,1.800000X1.000000*%
G04 #@! TD*
G04 #@! TA.AperFunction,SMDPad,CuDef*
%ADD29R,1.840000X2.200000*%
G04 #@! TD*
G04 #@! TA.AperFunction,SMDPad,CuDef*
%ADD30C,1.000000*%
G04 #@! TD*
G04 #@! TA.AperFunction,SMDPad,CuDef*
%ADD31R,1.200000X0.600000*%
G04 #@! TD*
G04 #@! TA.AperFunction,SMDPad,CuDef*
%ADD32R,0.600000X1.200000*%
G04 #@! TD*
G04 #@! TA.AperFunction,SMDPad,CuDef*
%ADD33R,1.550000X0.600000*%
G04 #@! TD*
G04 #@! TA.AperFunction,SMDPad,CuDef*
%ADD34R,0.650000X1.060000*%
G04 #@! TD*
G04 #@! TA.AperFunction,ViaPad*
%ADD35C,0.800000*%
G04 #@! TD*
G04 #@! TA.AperFunction,Conductor*
%ADD36C,0.250000*%
G04 #@! TD*
G04 #@! TA.AperFunction,Conductor*
%ADD37C,1.000000*%
G04 #@! TD*
G04 #@! TA.AperFunction,Conductor*
%ADD38C,0.500000*%
G04 #@! TD*
G04 #@! TA.AperFunction,Conductor*
%ADD39C,1.500000*%
G04 #@! TD*
G04 #@! TA.AperFunction,Conductor*
%ADD40C,2.000000*%
G04 #@! TD*
G04 #@! TA.AperFunction,Conductor*
%ADD41C,0.600000*%
G04 #@! TD*
G04 #@! TA.AperFunction,Conductor*
%ADD42C,0.254000*%
G04 #@! TD*
G04 APERTURE END LIST*
D10*
G04 #@! TO.N,GND*
G04 #@! TO.C,C1*
G36*
X180342504Y-73475504D02*
X180366773Y-73479104D01*
X180390571Y-73485065D01*
X180413671Y-73493330D01*
X180435849Y-73503820D01*
X180456893Y-73516433D01*
X180476598Y-73531047D01*
X180494777Y-73547523D01*
X180511253Y-73565702D01*
X180525867Y-73585407D01*
X180538480Y-73606451D01*
X180548970Y-73628629D01*
X180557235Y-73651729D01*
X180563196Y-73675527D01*
X180566796Y-73699796D01*
X180568000Y-73724300D01*
X180568000Y-74649300D01*
X180566796Y-74673804D01*
X180563196Y-74698073D01*
X180557235Y-74721871D01*
X180548970Y-74744971D01*
X180538480Y-74767149D01*
X180525867Y-74788193D01*
X180511253Y-74807898D01*
X180494777Y-74826077D01*
X180476598Y-74842553D01*
X180456893Y-74857167D01*
X180435849Y-74869780D01*
X180413671Y-74880270D01*
X180390571Y-74888535D01*
X180366773Y-74894496D01*
X180342504Y-74898096D01*
X180318000Y-74899300D01*
X179068000Y-74899300D01*
X179043496Y-74898096D01*
X179019227Y-74894496D01*
X178995429Y-74888535D01*
X178972329Y-74880270D01*
X178950151Y-74869780D01*
X178929107Y-74857167D01*
X178909402Y-74842553D01*
X178891223Y-74826077D01*
X178874747Y-74807898D01*
X178860133Y-74788193D01*
X178847520Y-74767149D01*
X178837030Y-74744971D01*
X178828765Y-74721871D01*
X178822804Y-74698073D01*
X178819204Y-74673804D01*
X178818000Y-74649300D01*
X178818000Y-73724300D01*
X178819204Y-73699796D01*
X178822804Y-73675527D01*
X178828765Y-73651729D01*
X178837030Y-73628629D01*
X178847520Y-73606451D01*
X178860133Y-73585407D01*
X178874747Y-73565702D01*
X178891223Y-73547523D01*
X178909402Y-73531047D01*
X178929107Y-73516433D01*
X178950151Y-73503820D01*
X178972329Y-73493330D01*
X178995429Y-73485065D01*
X179019227Y-73479104D01*
X179043496Y-73475504D01*
X179068000Y-73474300D01*
X180318000Y-73474300D01*
X180342504Y-73475504D01*
X180342504Y-73475504D01*
G37*
D11*
G04 #@! TD*
G04 #@! TO.P,C1,2*
G04 #@! TO.N,GND*
X179693000Y-74186800D03*
D10*
G04 #@! TO.N,+5V*
G04 #@! TO.C,C1*
G36*
X180342504Y-76450504D02*
X180366773Y-76454104D01*
X180390571Y-76460065D01*
X180413671Y-76468330D01*
X180435849Y-76478820D01*
X180456893Y-76491433D01*
X180476598Y-76506047D01*
X180494777Y-76522523D01*
X180511253Y-76540702D01*
X180525867Y-76560407D01*
X180538480Y-76581451D01*
X180548970Y-76603629D01*
X180557235Y-76626729D01*
X180563196Y-76650527D01*
X180566796Y-76674796D01*
X180568000Y-76699300D01*
X180568000Y-77624300D01*
X180566796Y-77648804D01*
X180563196Y-77673073D01*
X180557235Y-77696871D01*
X180548970Y-77719971D01*
X180538480Y-77742149D01*
X180525867Y-77763193D01*
X180511253Y-77782898D01*
X180494777Y-77801077D01*
X180476598Y-77817553D01*
X180456893Y-77832167D01*
X180435849Y-77844780D01*
X180413671Y-77855270D01*
X180390571Y-77863535D01*
X180366773Y-77869496D01*
X180342504Y-77873096D01*
X180318000Y-77874300D01*
X179068000Y-77874300D01*
X179043496Y-77873096D01*
X179019227Y-77869496D01*
X178995429Y-77863535D01*
X178972329Y-77855270D01*
X178950151Y-77844780D01*
X178929107Y-77832167D01*
X178909402Y-77817553D01*
X178891223Y-77801077D01*
X178874747Y-77782898D01*
X178860133Y-77763193D01*
X178847520Y-77742149D01*
X178837030Y-77719971D01*
X178828765Y-77696871D01*
X178822804Y-77673073D01*
X178819204Y-77648804D01*
X178818000Y-77624300D01*
X178818000Y-76699300D01*
X178819204Y-76674796D01*
X178822804Y-76650527D01*
X178828765Y-76626729D01*
X178837030Y-76603629D01*
X178847520Y-76581451D01*
X178860133Y-76560407D01*
X178874747Y-76540702D01*
X178891223Y-76522523D01*
X178909402Y-76506047D01*
X178929107Y-76491433D01*
X178950151Y-76478820D01*
X178972329Y-76468330D01*
X178995429Y-76460065D01*
X179019227Y-76454104D01*
X179043496Y-76450504D01*
X179068000Y-76449300D01*
X180318000Y-76449300D01*
X180342504Y-76450504D01*
X180342504Y-76450504D01*
G37*
D11*
G04 #@! TD*
G04 #@! TO.P,C1,1*
G04 #@! TO.N,+5V*
X179693000Y-77161800D03*
D10*
G04 #@! TO.N,+3V3*
G04 #@! TO.C,C2*
G36*
X173739504Y-80134504D02*
X173763773Y-80138104D01*
X173787571Y-80144065D01*
X173810671Y-80152330D01*
X173832849Y-80162820D01*
X173853893Y-80175433D01*
X173873598Y-80190047D01*
X173891777Y-80206523D01*
X173908253Y-80224702D01*
X173922867Y-80244407D01*
X173935480Y-80265451D01*
X173945970Y-80287629D01*
X173954235Y-80310729D01*
X173960196Y-80334527D01*
X173963796Y-80358796D01*
X173965000Y-80383300D01*
X173965000Y-81633300D01*
X173963796Y-81657804D01*
X173960196Y-81682073D01*
X173954235Y-81705871D01*
X173945970Y-81728971D01*
X173935480Y-81751149D01*
X173922867Y-81772193D01*
X173908253Y-81791898D01*
X173891777Y-81810077D01*
X173873598Y-81826553D01*
X173853893Y-81841167D01*
X173832849Y-81853780D01*
X173810671Y-81864270D01*
X173787571Y-81872535D01*
X173763773Y-81878496D01*
X173739504Y-81882096D01*
X173715000Y-81883300D01*
X172790000Y-81883300D01*
X172765496Y-81882096D01*
X172741227Y-81878496D01*
X172717429Y-81872535D01*
X172694329Y-81864270D01*
X172672151Y-81853780D01*
X172651107Y-81841167D01*
X172631402Y-81826553D01*
X172613223Y-81810077D01*
X172596747Y-81791898D01*
X172582133Y-81772193D01*
X172569520Y-81751149D01*
X172559030Y-81728971D01*
X172550765Y-81705871D01*
X172544804Y-81682073D01*
X172541204Y-81657804D01*
X172540000Y-81633300D01*
X172540000Y-80383300D01*
X172541204Y-80358796D01*
X172544804Y-80334527D01*
X172550765Y-80310729D01*
X172559030Y-80287629D01*
X172569520Y-80265451D01*
X172582133Y-80244407D01*
X172596747Y-80224702D01*
X172613223Y-80206523D01*
X172631402Y-80190047D01*
X172651107Y-80175433D01*
X172672151Y-80162820D01*
X172694329Y-80152330D01*
X172717429Y-80144065D01*
X172741227Y-80138104D01*
X172765496Y-80134504D01*
X172790000Y-80133300D01*
X173715000Y-80133300D01*
X173739504Y-80134504D01*
X173739504Y-80134504D01*
G37*
D11*
G04 #@! TD*
G04 #@! TO.P,C2,1*
G04 #@! TO.N,+3V3*
X173252500Y-81008300D03*
D10*
G04 #@! TO.N,GND*
G04 #@! TO.C,C2*
G36*
X176714504Y-80134504D02*
X176738773Y-80138104D01*
X176762571Y-80144065D01*
X176785671Y-80152330D01*
X176807849Y-80162820D01*
X176828893Y-80175433D01*
X176848598Y-80190047D01*
X176866777Y-80206523D01*
X176883253Y-80224702D01*
X176897867Y-80244407D01*
X176910480Y-80265451D01*
X176920970Y-80287629D01*
X176929235Y-80310729D01*
X176935196Y-80334527D01*
X176938796Y-80358796D01*
X176940000Y-80383300D01*
X176940000Y-81633300D01*
X176938796Y-81657804D01*
X176935196Y-81682073D01*
X176929235Y-81705871D01*
X176920970Y-81728971D01*
X176910480Y-81751149D01*
X176897867Y-81772193D01*
X176883253Y-81791898D01*
X176866777Y-81810077D01*
X176848598Y-81826553D01*
X176828893Y-81841167D01*
X176807849Y-81853780D01*
X176785671Y-81864270D01*
X176762571Y-81872535D01*
X176738773Y-81878496D01*
X176714504Y-81882096D01*
X176690000Y-81883300D01*
X175765000Y-81883300D01*
X175740496Y-81882096D01*
X175716227Y-81878496D01*
X175692429Y-81872535D01*
X175669329Y-81864270D01*
X175647151Y-81853780D01*
X175626107Y-81841167D01*
X175606402Y-81826553D01*
X175588223Y-81810077D01*
X175571747Y-81791898D01*
X175557133Y-81772193D01*
X175544520Y-81751149D01*
X175534030Y-81728971D01*
X175525765Y-81705871D01*
X175519804Y-81682073D01*
X175516204Y-81657804D01*
X175515000Y-81633300D01*
X175515000Y-80383300D01*
X175516204Y-80358796D01*
X175519804Y-80334527D01*
X175525765Y-80310729D01*
X175534030Y-80287629D01*
X175544520Y-80265451D01*
X175557133Y-80244407D01*
X175571747Y-80224702D01*
X175588223Y-80206523D01*
X175606402Y-80190047D01*
X175626107Y-80175433D01*
X175647151Y-80162820D01*
X175669329Y-80152330D01*
X175692429Y-80144065D01*
X175716227Y-80138104D01*
X175740496Y-80134504D01*
X175765000Y-80133300D01*
X176690000Y-80133300D01*
X176714504Y-80134504D01*
X176714504Y-80134504D01*
G37*
D11*
G04 #@! TD*
G04 #@! TO.P,C2,2*
G04 #@! TO.N,GND*
X176227500Y-81008300D03*
D10*
G04 #@! TO.N,+3V3*
G04 #@! TO.C,C3*
G36*
X165198879Y-116984244D02*
X165221934Y-116987663D01*
X165244543Y-116993327D01*
X165266487Y-117001179D01*
X165287557Y-117011144D01*
X165307548Y-117023126D01*
X165326268Y-117037010D01*
X165343538Y-117052662D01*
X165359190Y-117069932D01*
X165373074Y-117088652D01*
X165385056Y-117108643D01*
X165395021Y-117129713D01*
X165402873Y-117151657D01*
X165408537Y-117174266D01*
X165411956Y-117197321D01*
X165413100Y-117220600D01*
X165413100Y-117795600D01*
X165411956Y-117818879D01*
X165408537Y-117841934D01*
X165402873Y-117864543D01*
X165395021Y-117886487D01*
X165385056Y-117907557D01*
X165373074Y-117927548D01*
X165359190Y-117946268D01*
X165343538Y-117963538D01*
X165326268Y-117979190D01*
X165307548Y-117993074D01*
X165287557Y-118005056D01*
X165266487Y-118015021D01*
X165244543Y-118022873D01*
X165221934Y-118028537D01*
X165198879Y-118031956D01*
X165175600Y-118033100D01*
X164700600Y-118033100D01*
X164677321Y-118031956D01*
X164654266Y-118028537D01*
X164631657Y-118022873D01*
X164609713Y-118015021D01*
X164588643Y-118005056D01*
X164568652Y-117993074D01*
X164549932Y-117979190D01*
X164532662Y-117963538D01*
X164517010Y-117946268D01*
X164503126Y-117927548D01*
X164491144Y-117907557D01*
X164481179Y-117886487D01*
X164473327Y-117864543D01*
X164467663Y-117841934D01*
X164464244Y-117818879D01*
X164463100Y-117795600D01*
X164463100Y-117220600D01*
X164464244Y-117197321D01*
X164467663Y-117174266D01*
X164473327Y-117151657D01*
X164481179Y-117129713D01*
X164491144Y-117108643D01*
X164503126Y-117088652D01*
X164517010Y-117069932D01*
X164532662Y-117052662D01*
X164549932Y-117037010D01*
X164568652Y-117023126D01*
X164588643Y-117011144D01*
X164609713Y-117001179D01*
X164631657Y-116993327D01*
X164654266Y-116987663D01*
X164677321Y-116984244D01*
X164700600Y-116983100D01*
X165175600Y-116983100D01*
X165198879Y-116984244D01*
X165198879Y-116984244D01*
G37*
D12*
G04 #@! TD*
G04 #@! TO.P,C3,2*
G04 #@! TO.N,+3V3*
X164938100Y-117508100D03*
D10*
G04 #@! TO.N,GND*
G04 #@! TO.C,C3*
G36*
X165198879Y-115234244D02*
X165221934Y-115237663D01*
X165244543Y-115243327D01*
X165266487Y-115251179D01*
X165287557Y-115261144D01*
X165307548Y-115273126D01*
X165326268Y-115287010D01*
X165343538Y-115302662D01*
X165359190Y-115319932D01*
X165373074Y-115338652D01*
X165385056Y-115358643D01*
X165395021Y-115379713D01*
X165402873Y-115401657D01*
X165408537Y-115424266D01*
X165411956Y-115447321D01*
X165413100Y-115470600D01*
X165413100Y-116045600D01*
X165411956Y-116068879D01*
X165408537Y-116091934D01*
X165402873Y-116114543D01*
X165395021Y-116136487D01*
X165385056Y-116157557D01*
X165373074Y-116177548D01*
X165359190Y-116196268D01*
X165343538Y-116213538D01*
X165326268Y-116229190D01*
X165307548Y-116243074D01*
X165287557Y-116255056D01*
X165266487Y-116265021D01*
X165244543Y-116272873D01*
X165221934Y-116278537D01*
X165198879Y-116281956D01*
X165175600Y-116283100D01*
X164700600Y-116283100D01*
X164677321Y-116281956D01*
X164654266Y-116278537D01*
X164631657Y-116272873D01*
X164609713Y-116265021D01*
X164588643Y-116255056D01*
X164568652Y-116243074D01*
X164549932Y-116229190D01*
X164532662Y-116213538D01*
X164517010Y-116196268D01*
X164503126Y-116177548D01*
X164491144Y-116157557D01*
X164481179Y-116136487D01*
X164473327Y-116114543D01*
X164467663Y-116091934D01*
X164464244Y-116068879D01*
X164463100Y-116045600D01*
X164463100Y-115470600D01*
X164464244Y-115447321D01*
X164467663Y-115424266D01*
X164473327Y-115401657D01*
X164481179Y-115379713D01*
X164491144Y-115358643D01*
X164503126Y-115338652D01*
X164517010Y-115319932D01*
X164532662Y-115302662D01*
X164549932Y-115287010D01*
X164568652Y-115273126D01*
X164588643Y-115261144D01*
X164609713Y-115251179D01*
X164631657Y-115243327D01*
X164654266Y-115237663D01*
X164677321Y-115234244D01*
X164700600Y-115233100D01*
X165175600Y-115233100D01*
X165198879Y-115234244D01*
X165198879Y-115234244D01*
G37*
D12*
G04 #@! TD*
G04 #@! TO.P,C3,1*
G04 #@! TO.N,GND*
X164938100Y-115758100D03*
D10*
G04 #@! TO.N,+3V3*
G04 #@! TO.C,C4*
G36*
X169197339Y-100434104D02*
X169220394Y-100437523D01*
X169243003Y-100443187D01*
X169264947Y-100451039D01*
X169286017Y-100461004D01*
X169306008Y-100472986D01*
X169324728Y-100486870D01*
X169341998Y-100502522D01*
X169357650Y-100519792D01*
X169371534Y-100538512D01*
X169383516Y-100558503D01*
X169393481Y-100579573D01*
X169401333Y-100601517D01*
X169406997Y-100624126D01*
X169410416Y-100647181D01*
X169411560Y-100670460D01*
X169411560Y-101145460D01*
X169410416Y-101168739D01*
X169406997Y-101191794D01*
X169401333Y-101214403D01*
X169393481Y-101236347D01*
X169383516Y-101257417D01*
X169371534Y-101277408D01*
X169357650Y-101296128D01*
X169341998Y-101313398D01*
X169324728Y-101329050D01*
X169306008Y-101342934D01*
X169286017Y-101354916D01*
X169264947Y-101364881D01*
X169243003Y-101372733D01*
X169220394Y-101378397D01*
X169197339Y-101381816D01*
X169174060Y-101382960D01*
X168599060Y-101382960D01*
X168575781Y-101381816D01*
X168552726Y-101378397D01*
X168530117Y-101372733D01*
X168508173Y-101364881D01*
X168487103Y-101354916D01*
X168467112Y-101342934D01*
X168448392Y-101329050D01*
X168431122Y-101313398D01*
X168415470Y-101296128D01*
X168401586Y-101277408D01*
X168389604Y-101257417D01*
X168379639Y-101236347D01*
X168371787Y-101214403D01*
X168366123Y-101191794D01*
X168362704Y-101168739D01*
X168361560Y-101145460D01*
X168361560Y-100670460D01*
X168362704Y-100647181D01*
X168366123Y-100624126D01*
X168371787Y-100601517D01*
X168379639Y-100579573D01*
X168389604Y-100558503D01*
X168401586Y-100538512D01*
X168415470Y-100519792D01*
X168431122Y-100502522D01*
X168448392Y-100486870D01*
X168467112Y-100472986D01*
X168487103Y-100461004D01*
X168508173Y-100451039D01*
X168530117Y-100443187D01*
X168552726Y-100437523D01*
X168575781Y-100434104D01*
X168599060Y-100432960D01*
X169174060Y-100432960D01*
X169197339Y-100434104D01*
X169197339Y-100434104D01*
G37*
D12*
G04 #@! TD*
G04 #@! TO.P,C4,1*
G04 #@! TO.N,+3V3*
X168886560Y-100907960D03*
D10*
G04 #@! TO.N,GND*
G04 #@! TO.C,C4*
G36*
X170947339Y-100434104D02*
X170970394Y-100437523D01*
X170993003Y-100443187D01*
X171014947Y-100451039D01*
X171036017Y-100461004D01*
X171056008Y-100472986D01*
X171074728Y-100486870D01*
X171091998Y-100502522D01*
X171107650Y-100519792D01*
X171121534Y-100538512D01*
X171133516Y-100558503D01*
X171143481Y-100579573D01*
X171151333Y-100601517D01*
X171156997Y-100624126D01*
X171160416Y-100647181D01*
X171161560Y-100670460D01*
X171161560Y-101145460D01*
X171160416Y-101168739D01*
X171156997Y-101191794D01*
X171151333Y-101214403D01*
X171143481Y-101236347D01*
X171133516Y-101257417D01*
X171121534Y-101277408D01*
X171107650Y-101296128D01*
X171091998Y-101313398D01*
X171074728Y-101329050D01*
X171056008Y-101342934D01*
X171036017Y-101354916D01*
X171014947Y-101364881D01*
X170993003Y-101372733D01*
X170970394Y-101378397D01*
X170947339Y-101381816D01*
X170924060Y-101382960D01*
X170349060Y-101382960D01*
X170325781Y-101381816D01*
X170302726Y-101378397D01*
X170280117Y-101372733D01*
X170258173Y-101364881D01*
X170237103Y-101354916D01*
X170217112Y-101342934D01*
X170198392Y-101329050D01*
X170181122Y-101313398D01*
X170165470Y-101296128D01*
X170151586Y-101277408D01*
X170139604Y-101257417D01*
X170129639Y-101236347D01*
X170121787Y-101214403D01*
X170116123Y-101191794D01*
X170112704Y-101168739D01*
X170111560Y-101145460D01*
X170111560Y-100670460D01*
X170112704Y-100647181D01*
X170116123Y-100624126D01*
X170121787Y-100601517D01*
X170129639Y-100579573D01*
X170139604Y-100558503D01*
X170151586Y-100538512D01*
X170165470Y-100519792D01*
X170181122Y-100502522D01*
X170198392Y-100486870D01*
X170217112Y-100472986D01*
X170237103Y-100461004D01*
X170258173Y-100451039D01*
X170280117Y-100443187D01*
X170302726Y-100437523D01*
X170325781Y-100434104D01*
X170349060Y-100432960D01*
X170924060Y-100432960D01*
X170947339Y-100434104D01*
X170947339Y-100434104D01*
G37*
D12*
G04 #@! TD*
G04 #@! TO.P,C4,2*
G04 #@! TO.N,GND*
X170636560Y-100907960D03*
D10*
G04 #@! TO.N,GND*
G04 #@! TO.C,C5*
G36*
X164679979Y-108805944D02*
X164703034Y-108809363D01*
X164725643Y-108815027D01*
X164747587Y-108822879D01*
X164768657Y-108832844D01*
X164788648Y-108844826D01*
X164807368Y-108858710D01*
X164824638Y-108874362D01*
X164840290Y-108891632D01*
X164854174Y-108910352D01*
X164866156Y-108930343D01*
X164876121Y-108951413D01*
X164883973Y-108973357D01*
X164889637Y-108995966D01*
X164893056Y-109019021D01*
X164894200Y-109042300D01*
X164894200Y-109517300D01*
X164893056Y-109540579D01*
X164889637Y-109563634D01*
X164883973Y-109586243D01*
X164876121Y-109608187D01*
X164866156Y-109629257D01*
X164854174Y-109649248D01*
X164840290Y-109667968D01*
X164824638Y-109685238D01*
X164807368Y-109700890D01*
X164788648Y-109714774D01*
X164768657Y-109726756D01*
X164747587Y-109736721D01*
X164725643Y-109744573D01*
X164703034Y-109750237D01*
X164679979Y-109753656D01*
X164656700Y-109754800D01*
X164081700Y-109754800D01*
X164058421Y-109753656D01*
X164035366Y-109750237D01*
X164012757Y-109744573D01*
X163990813Y-109736721D01*
X163969743Y-109726756D01*
X163949752Y-109714774D01*
X163931032Y-109700890D01*
X163913762Y-109685238D01*
X163898110Y-109667968D01*
X163884226Y-109649248D01*
X163872244Y-109629257D01*
X163862279Y-109608187D01*
X163854427Y-109586243D01*
X163848763Y-109563634D01*
X163845344Y-109540579D01*
X163844200Y-109517300D01*
X163844200Y-109042300D01*
X163845344Y-109019021D01*
X163848763Y-108995966D01*
X163854427Y-108973357D01*
X163862279Y-108951413D01*
X163872244Y-108930343D01*
X163884226Y-108910352D01*
X163898110Y-108891632D01*
X163913762Y-108874362D01*
X163931032Y-108858710D01*
X163949752Y-108844826D01*
X163969743Y-108832844D01*
X163990813Y-108822879D01*
X164012757Y-108815027D01*
X164035366Y-108809363D01*
X164058421Y-108805944D01*
X164081700Y-108804800D01*
X164656700Y-108804800D01*
X164679979Y-108805944D01*
X164679979Y-108805944D01*
G37*
D12*
G04 #@! TD*
G04 #@! TO.P,C5,1*
G04 #@! TO.N,GND*
X164369200Y-109279800D03*
D10*
G04 #@! TO.N,+3V3*
G04 #@! TO.C,C5*
G36*
X166429979Y-108805944D02*
X166453034Y-108809363D01*
X166475643Y-108815027D01*
X166497587Y-108822879D01*
X166518657Y-108832844D01*
X166538648Y-108844826D01*
X166557368Y-108858710D01*
X166574638Y-108874362D01*
X166590290Y-108891632D01*
X166604174Y-108910352D01*
X166616156Y-108930343D01*
X166626121Y-108951413D01*
X166633973Y-108973357D01*
X166639637Y-108995966D01*
X166643056Y-109019021D01*
X166644200Y-109042300D01*
X166644200Y-109517300D01*
X166643056Y-109540579D01*
X166639637Y-109563634D01*
X166633973Y-109586243D01*
X166626121Y-109608187D01*
X166616156Y-109629257D01*
X166604174Y-109649248D01*
X166590290Y-109667968D01*
X166574638Y-109685238D01*
X166557368Y-109700890D01*
X166538648Y-109714774D01*
X166518657Y-109726756D01*
X166497587Y-109736721D01*
X166475643Y-109744573D01*
X166453034Y-109750237D01*
X166429979Y-109753656D01*
X166406700Y-109754800D01*
X165831700Y-109754800D01*
X165808421Y-109753656D01*
X165785366Y-109750237D01*
X165762757Y-109744573D01*
X165740813Y-109736721D01*
X165719743Y-109726756D01*
X165699752Y-109714774D01*
X165681032Y-109700890D01*
X165663762Y-109685238D01*
X165648110Y-109667968D01*
X165634226Y-109649248D01*
X165622244Y-109629257D01*
X165612279Y-109608187D01*
X165604427Y-109586243D01*
X165598763Y-109563634D01*
X165595344Y-109540579D01*
X165594200Y-109517300D01*
X165594200Y-109042300D01*
X165595344Y-109019021D01*
X165598763Y-108995966D01*
X165604427Y-108973357D01*
X165612279Y-108951413D01*
X165622244Y-108930343D01*
X165634226Y-108910352D01*
X165648110Y-108891632D01*
X165663762Y-108874362D01*
X165681032Y-108858710D01*
X165699752Y-108844826D01*
X165719743Y-108832844D01*
X165740813Y-108822879D01*
X165762757Y-108815027D01*
X165785366Y-108809363D01*
X165808421Y-108805944D01*
X165831700Y-108804800D01*
X166406700Y-108804800D01*
X166429979Y-108805944D01*
X166429979Y-108805944D01*
G37*
D12*
G04 #@! TD*
G04 #@! TO.P,C5,2*
G04 #@! TO.N,+3V3*
X166119200Y-109279800D03*
D10*
G04 #@! TO.N,GND*
G04 #@! TO.C,C6*
G36*
X158399779Y-110125444D02*
X158422834Y-110128863D01*
X158445443Y-110134527D01*
X158467387Y-110142379D01*
X158488457Y-110152344D01*
X158508448Y-110164326D01*
X158527168Y-110178210D01*
X158544438Y-110193862D01*
X158560090Y-110211132D01*
X158573974Y-110229852D01*
X158585956Y-110249843D01*
X158595921Y-110270913D01*
X158603773Y-110292857D01*
X158609437Y-110315466D01*
X158612856Y-110338521D01*
X158614000Y-110361800D01*
X158614000Y-110836800D01*
X158612856Y-110860079D01*
X158609437Y-110883134D01*
X158603773Y-110905743D01*
X158595921Y-110927687D01*
X158585956Y-110948757D01*
X158573974Y-110968748D01*
X158560090Y-110987468D01*
X158544438Y-111004738D01*
X158527168Y-111020390D01*
X158508448Y-111034274D01*
X158488457Y-111046256D01*
X158467387Y-111056221D01*
X158445443Y-111064073D01*
X158422834Y-111069737D01*
X158399779Y-111073156D01*
X158376500Y-111074300D01*
X157801500Y-111074300D01*
X157778221Y-111073156D01*
X157755166Y-111069737D01*
X157732557Y-111064073D01*
X157710613Y-111056221D01*
X157689543Y-111046256D01*
X157669552Y-111034274D01*
X157650832Y-111020390D01*
X157633562Y-111004738D01*
X157617910Y-110987468D01*
X157604026Y-110968748D01*
X157592044Y-110948757D01*
X157582079Y-110927687D01*
X157574227Y-110905743D01*
X157568563Y-110883134D01*
X157565144Y-110860079D01*
X157564000Y-110836800D01*
X157564000Y-110361800D01*
X157565144Y-110338521D01*
X157568563Y-110315466D01*
X157574227Y-110292857D01*
X157582079Y-110270913D01*
X157592044Y-110249843D01*
X157604026Y-110229852D01*
X157617910Y-110211132D01*
X157633562Y-110193862D01*
X157650832Y-110178210D01*
X157669552Y-110164326D01*
X157689543Y-110152344D01*
X157710613Y-110142379D01*
X157732557Y-110134527D01*
X157755166Y-110128863D01*
X157778221Y-110125444D01*
X157801500Y-110124300D01*
X158376500Y-110124300D01*
X158399779Y-110125444D01*
X158399779Y-110125444D01*
G37*
D12*
G04 #@! TD*
G04 #@! TO.P,C6,1*
G04 #@! TO.N,GND*
X158089000Y-110599300D03*
D10*
G04 #@! TO.N,+5V*
G04 #@! TO.C,C6*
G36*
X156649779Y-110125444D02*
X156672834Y-110128863D01*
X156695443Y-110134527D01*
X156717387Y-110142379D01*
X156738457Y-110152344D01*
X156758448Y-110164326D01*
X156777168Y-110178210D01*
X156794438Y-110193862D01*
X156810090Y-110211132D01*
X156823974Y-110229852D01*
X156835956Y-110249843D01*
X156845921Y-110270913D01*
X156853773Y-110292857D01*
X156859437Y-110315466D01*
X156862856Y-110338521D01*
X156864000Y-110361800D01*
X156864000Y-110836800D01*
X156862856Y-110860079D01*
X156859437Y-110883134D01*
X156853773Y-110905743D01*
X156845921Y-110927687D01*
X156835956Y-110948757D01*
X156823974Y-110968748D01*
X156810090Y-110987468D01*
X156794438Y-111004738D01*
X156777168Y-111020390D01*
X156758448Y-111034274D01*
X156738457Y-111046256D01*
X156717387Y-111056221D01*
X156695443Y-111064073D01*
X156672834Y-111069737D01*
X156649779Y-111073156D01*
X156626500Y-111074300D01*
X156051500Y-111074300D01*
X156028221Y-111073156D01*
X156005166Y-111069737D01*
X155982557Y-111064073D01*
X155960613Y-111056221D01*
X155939543Y-111046256D01*
X155919552Y-111034274D01*
X155900832Y-111020390D01*
X155883562Y-111004738D01*
X155867910Y-110987468D01*
X155854026Y-110968748D01*
X155842044Y-110948757D01*
X155832079Y-110927687D01*
X155824227Y-110905743D01*
X155818563Y-110883134D01*
X155815144Y-110860079D01*
X155814000Y-110836800D01*
X155814000Y-110361800D01*
X155815144Y-110338521D01*
X155818563Y-110315466D01*
X155824227Y-110292857D01*
X155832079Y-110270913D01*
X155842044Y-110249843D01*
X155854026Y-110229852D01*
X155867910Y-110211132D01*
X155883562Y-110193862D01*
X155900832Y-110178210D01*
X155919552Y-110164326D01*
X155939543Y-110152344D01*
X155960613Y-110142379D01*
X155982557Y-110134527D01*
X156005166Y-110128863D01*
X156028221Y-110125444D01*
X156051500Y-110124300D01*
X156626500Y-110124300D01*
X156649779Y-110125444D01*
X156649779Y-110125444D01*
G37*
D12*
G04 #@! TD*
G04 #@! TO.P,C6,2*
G04 #@! TO.N,+5V*
X156339000Y-110599300D03*
D10*
G04 #@! TO.N,+3V3*
G04 #@! TO.C,C7*
G36*
X181511259Y-99667024D02*
X181534314Y-99670443D01*
X181556923Y-99676107D01*
X181578867Y-99683959D01*
X181599937Y-99693924D01*
X181619928Y-99705906D01*
X181638648Y-99719790D01*
X181655918Y-99735442D01*
X181671570Y-99752712D01*
X181685454Y-99771432D01*
X181697436Y-99791423D01*
X181707401Y-99812493D01*
X181715253Y-99834437D01*
X181720917Y-99857046D01*
X181724336Y-99880101D01*
X181725480Y-99903380D01*
X181725480Y-100378380D01*
X181724336Y-100401659D01*
X181720917Y-100424714D01*
X181715253Y-100447323D01*
X181707401Y-100469267D01*
X181697436Y-100490337D01*
X181685454Y-100510328D01*
X181671570Y-100529048D01*
X181655918Y-100546318D01*
X181638648Y-100561970D01*
X181619928Y-100575854D01*
X181599937Y-100587836D01*
X181578867Y-100597801D01*
X181556923Y-100605653D01*
X181534314Y-100611317D01*
X181511259Y-100614736D01*
X181487980Y-100615880D01*
X180912980Y-100615880D01*
X180889701Y-100614736D01*
X180866646Y-100611317D01*
X180844037Y-100605653D01*
X180822093Y-100597801D01*
X180801023Y-100587836D01*
X180781032Y-100575854D01*
X180762312Y-100561970D01*
X180745042Y-100546318D01*
X180729390Y-100529048D01*
X180715506Y-100510328D01*
X180703524Y-100490337D01*
X180693559Y-100469267D01*
X180685707Y-100447323D01*
X180680043Y-100424714D01*
X180676624Y-100401659D01*
X180675480Y-100378380D01*
X180675480Y-99903380D01*
X180676624Y-99880101D01*
X180680043Y-99857046D01*
X180685707Y-99834437D01*
X180693559Y-99812493D01*
X180703524Y-99791423D01*
X180715506Y-99771432D01*
X180729390Y-99752712D01*
X180745042Y-99735442D01*
X180762312Y-99719790D01*
X180781032Y-99705906D01*
X180801023Y-99693924D01*
X180822093Y-99683959D01*
X180844037Y-99676107D01*
X180866646Y-99670443D01*
X180889701Y-99667024D01*
X180912980Y-99665880D01*
X181487980Y-99665880D01*
X181511259Y-99667024D01*
X181511259Y-99667024D01*
G37*
D12*
G04 #@! TD*
G04 #@! TO.P,C7,2*
G04 #@! TO.N,+3V3*
X181200480Y-100140880D03*
D10*
G04 #@! TO.N,GND*
G04 #@! TO.C,C7*
G36*
X183261259Y-99667024D02*
X183284314Y-99670443D01*
X183306923Y-99676107D01*
X183328867Y-99683959D01*
X183349937Y-99693924D01*
X183369928Y-99705906D01*
X183388648Y-99719790D01*
X183405918Y-99735442D01*
X183421570Y-99752712D01*
X183435454Y-99771432D01*
X183447436Y-99791423D01*
X183457401Y-99812493D01*
X183465253Y-99834437D01*
X183470917Y-99857046D01*
X183474336Y-99880101D01*
X183475480Y-99903380D01*
X183475480Y-100378380D01*
X183474336Y-100401659D01*
X183470917Y-100424714D01*
X183465253Y-100447323D01*
X183457401Y-100469267D01*
X183447436Y-100490337D01*
X183435454Y-100510328D01*
X183421570Y-100529048D01*
X183405918Y-100546318D01*
X183388648Y-100561970D01*
X183369928Y-100575854D01*
X183349937Y-100587836D01*
X183328867Y-100597801D01*
X183306923Y-100605653D01*
X183284314Y-100611317D01*
X183261259Y-100614736D01*
X183237980Y-100615880D01*
X182662980Y-100615880D01*
X182639701Y-100614736D01*
X182616646Y-100611317D01*
X182594037Y-100605653D01*
X182572093Y-100597801D01*
X182551023Y-100587836D01*
X182531032Y-100575854D01*
X182512312Y-100561970D01*
X182495042Y-100546318D01*
X182479390Y-100529048D01*
X182465506Y-100510328D01*
X182453524Y-100490337D01*
X182443559Y-100469267D01*
X182435707Y-100447323D01*
X182430043Y-100424714D01*
X182426624Y-100401659D01*
X182425480Y-100378380D01*
X182425480Y-99903380D01*
X182426624Y-99880101D01*
X182430043Y-99857046D01*
X182435707Y-99834437D01*
X182443559Y-99812493D01*
X182453524Y-99791423D01*
X182465506Y-99771432D01*
X182479390Y-99752712D01*
X182495042Y-99735442D01*
X182512312Y-99719790D01*
X182531032Y-99705906D01*
X182551023Y-99693924D01*
X182572093Y-99683959D01*
X182594037Y-99676107D01*
X182616646Y-99670443D01*
X182639701Y-99667024D01*
X182662980Y-99665880D01*
X183237980Y-99665880D01*
X183261259Y-99667024D01*
X183261259Y-99667024D01*
G37*
D12*
G04 #@! TD*
G04 #@! TO.P,C7,1*
G04 #@! TO.N,GND*
X182950480Y-100140880D03*
D10*
G04 #@! TO.N,GND*
G04 #@! TO.C,C8*
G36*
X179471139Y-111256544D02*
X179494194Y-111259963D01*
X179516803Y-111265627D01*
X179538747Y-111273479D01*
X179559817Y-111283444D01*
X179579808Y-111295426D01*
X179598528Y-111309310D01*
X179615798Y-111324962D01*
X179631450Y-111342232D01*
X179645334Y-111360952D01*
X179657316Y-111380943D01*
X179667281Y-111402013D01*
X179675133Y-111423957D01*
X179680797Y-111446566D01*
X179684216Y-111469621D01*
X179685360Y-111492900D01*
X179685360Y-112067900D01*
X179684216Y-112091179D01*
X179680797Y-112114234D01*
X179675133Y-112136843D01*
X179667281Y-112158787D01*
X179657316Y-112179857D01*
X179645334Y-112199848D01*
X179631450Y-112218568D01*
X179615798Y-112235838D01*
X179598528Y-112251490D01*
X179579808Y-112265374D01*
X179559817Y-112277356D01*
X179538747Y-112287321D01*
X179516803Y-112295173D01*
X179494194Y-112300837D01*
X179471139Y-112304256D01*
X179447860Y-112305400D01*
X178972860Y-112305400D01*
X178949581Y-112304256D01*
X178926526Y-112300837D01*
X178903917Y-112295173D01*
X178881973Y-112287321D01*
X178860903Y-112277356D01*
X178840912Y-112265374D01*
X178822192Y-112251490D01*
X178804922Y-112235838D01*
X178789270Y-112218568D01*
X178775386Y-112199848D01*
X178763404Y-112179857D01*
X178753439Y-112158787D01*
X178745587Y-112136843D01*
X178739923Y-112114234D01*
X178736504Y-112091179D01*
X178735360Y-112067900D01*
X178735360Y-111492900D01*
X178736504Y-111469621D01*
X178739923Y-111446566D01*
X178745587Y-111423957D01*
X178753439Y-111402013D01*
X178763404Y-111380943D01*
X178775386Y-111360952D01*
X178789270Y-111342232D01*
X178804922Y-111324962D01*
X178822192Y-111309310D01*
X178840912Y-111295426D01*
X178860903Y-111283444D01*
X178881973Y-111273479D01*
X178903917Y-111265627D01*
X178926526Y-111259963D01*
X178949581Y-111256544D01*
X178972860Y-111255400D01*
X179447860Y-111255400D01*
X179471139Y-111256544D01*
X179471139Y-111256544D01*
G37*
D12*
G04 #@! TD*
G04 #@! TO.P,C8,1*
G04 #@! TO.N,GND*
X179210360Y-111780400D03*
D10*
G04 #@! TO.N,+3V3*
G04 #@! TO.C,C8*
G36*
X179471139Y-109506544D02*
X179494194Y-109509963D01*
X179516803Y-109515627D01*
X179538747Y-109523479D01*
X179559817Y-109533444D01*
X179579808Y-109545426D01*
X179598528Y-109559310D01*
X179615798Y-109574962D01*
X179631450Y-109592232D01*
X179645334Y-109610952D01*
X179657316Y-109630943D01*
X179667281Y-109652013D01*
X179675133Y-109673957D01*
X179680797Y-109696566D01*
X179684216Y-109719621D01*
X179685360Y-109742900D01*
X179685360Y-110317900D01*
X179684216Y-110341179D01*
X179680797Y-110364234D01*
X179675133Y-110386843D01*
X179667281Y-110408787D01*
X179657316Y-110429857D01*
X179645334Y-110449848D01*
X179631450Y-110468568D01*
X179615798Y-110485838D01*
X179598528Y-110501490D01*
X179579808Y-110515374D01*
X179559817Y-110527356D01*
X179538747Y-110537321D01*
X179516803Y-110545173D01*
X179494194Y-110550837D01*
X179471139Y-110554256D01*
X179447860Y-110555400D01*
X178972860Y-110555400D01*
X178949581Y-110554256D01*
X178926526Y-110550837D01*
X178903917Y-110545173D01*
X178881973Y-110537321D01*
X178860903Y-110527356D01*
X178840912Y-110515374D01*
X178822192Y-110501490D01*
X178804922Y-110485838D01*
X178789270Y-110468568D01*
X178775386Y-110449848D01*
X178763404Y-110429857D01*
X178753439Y-110408787D01*
X178745587Y-110386843D01*
X178739923Y-110364234D01*
X178736504Y-110341179D01*
X178735360Y-110317900D01*
X178735360Y-109742900D01*
X178736504Y-109719621D01*
X178739923Y-109696566D01*
X178745587Y-109673957D01*
X178753439Y-109652013D01*
X178763404Y-109630943D01*
X178775386Y-109610952D01*
X178789270Y-109592232D01*
X178804922Y-109574962D01*
X178822192Y-109559310D01*
X178840912Y-109545426D01*
X178860903Y-109533444D01*
X178881973Y-109523479D01*
X178903917Y-109515627D01*
X178926526Y-109509963D01*
X178949581Y-109506544D01*
X178972860Y-109505400D01*
X179447860Y-109505400D01*
X179471139Y-109506544D01*
X179471139Y-109506544D01*
G37*
D12*
G04 #@! TD*
G04 #@! TO.P,C8,2*
G04 #@! TO.N,+3V3*
X179210360Y-110030400D03*
D10*
G04 #@! TO.N,GND*
G04 #@! TO.C,C9*
G36*
X156575579Y-114620744D02*
X156598634Y-114624163D01*
X156621243Y-114629827D01*
X156643187Y-114637679D01*
X156664257Y-114647644D01*
X156684248Y-114659626D01*
X156702968Y-114673510D01*
X156720238Y-114689162D01*
X156735890Y-114706432D01*
X156749774Y-114725152D01*
X156761756Y-114745143D01*
X156771721Y-114766213D01*
X156779573Y-114788157D01*
X156785237Y-114810766D01*
X156788656Y-114833821D01*
X156789800Y-114857100D01*
X156789800Y-115432100D01*
X156788656Y-115455379D01*
X156785237Y-115478434D01*
X156779573Y-115501043D01*
X156771721Y-115522987D01*
X156761756Y-115544057D01*
X156749774Y-115564048D01*
X156735890Y-115582768D01*
X156720238Y-115600038D01*
X156702968Y-115615690D01*
X156684248Y-115629574D01*
X156664257Y-115641556D01*
X156643187Y-115651521D01*
X156621243Y-115659373D01*
X156598634Y-115665037D01*
X156575579Y-115668456D01*
X156552300Y-115669600D01*
X156077300Y-115669600D01*
X156054021Y-115668456D01*
X156030966Y-115665037D01*
X156008357Y-115659373D01*
X155986413Y-115651521D01*
X155965343Y-115641556D01*
X155945352Y-115629574D01*
X155926632Y-115615690D01*
X155909362Y-115600038D01*
X155893710Y-115582768D01*
X155879826Y-115564048D01*
X155867844Y-115544057D01*
X155857879Y-115522987D01*
X155850027Y-115501043D01*
X155844363Y-115478434D01*
X155840944Y-115455379D01*
X155839800Y-115432100D01*
X155839800Y-114857100D01*
X155840944Y-114833821D01*
X155844363Y-114810766D01*
X155850027Y-114788157D01*
X155857879Y-114766213D01*
X155867844Y-114745143D01*
X155879826Y-114725152D01*
X155893710Y-114706432D01*
X155909362Y-114689162D01*
X155926632Y-114673510D01*
X155945352Y-114659626D01*
X155965343Y-114647644D01*
X155986413Y-114637679D01*
X156008357Y-114629827D01*
X156030966Y-114624163D01*
X156054021Y-114620744D01*
X156077300Y-114619600D01*
X156552300Y-114619600D01*
X156575579Y-114620744D01*
X156575579Y-114620744D01*
G37*
D12*
G04 #@! TD*
G04 #@! TO.P,C9,2*
G04 #@! TO.N,GND*
X156314800Y-115144600D03*
D10*
G04 #@! TO.N,Net-(C9-Pad1)*
G04 #@! TO.C,C9*
G36*
X156575579Y-112870744D02*
X156598634Y-112874163D01*
X156621243Y-112879827D01*
X156643187Y-112887679D01*
X156664257Y-112897644D01*
X156684248Y-112909626D01*
X156702968Y-112923510D01*
X156720238Y-112939162D01*
X156735890Y-112956432D01*
X156749774Y-112975152D01*
X156761756Y-112995143D01*
X156771721Y-113016213D01*
X156779573Y-113038157D01*
X156785237Y-113060766D01*
X156788656Y-113083821D01*
X156789800Y-113107100D01*
X156789800Y-113682100D01*
X156788656Y-113705379D01*
X156785237Y-113728434D01*
X156779573Y-113751043D01*
X156771721Y-113772987D01*
X156761756Y-113794057D01*
X156749774Y-113814048D01*
X156735890Y-113832768D01*
X156720238Y-113850038D01*
X156702968Y-113865690D01*
X156684248Y-113879574D01*
X156664257Y-113891556D01*
X156643187Y-113901521D01*
X156621243Y-113909373D01*
X156598634Y-113915037D01*
X156575579Y-113918456D01*
X156552300Y-113919600D01*
X156077300Y-113919600D01*
X156054021Y-113918456D01*
X156030966Y-113915037D01*
X156008357Y-113909373D01*
X155986413Y-113901521D01*
X155965343Y-113891556D01*
X155945352Y-113879574D01*
X155926632Y-113865690D01*
X155909362Y-113850038D01*
X155893710Y-113832768D01*
X155879826Y-113814048D01*
X155867844Y-113794057D01*
X155857879Y-113772987D01*
X155850027Y-113751043D01*
X155844363Y-113728434D01*
X155840944Y-113705379D01*
X155839800Y-113682100D01*
X155839800Y-113107100D01*
X155840944Y-113083821D01*
X155844363Y-113060766D01*
X155850027Y-113038157D01*
X155857879Y-113016213D01*
X155867844Y-112995143D01*
X155879826Y-112975152D01*
X155893710Y-112956432D01*
X155909362Y-112939162D01*
X155926632Y-112923510D01*
X155945352Y-112909626D01*
X155965343Y-112897644D01*
X155986413Y-112887679D01*
X156008357Y-112879827D01*
X156030966Y-112874163D01*
X156054021Y-112870744D01*
X156077300Y-112869600D01*
X156552300Y-112869600D01*
X156575579Y-112870744D01*
X156575579Y-112870744D01*
G37*
D12*
G04 #@! TD*
G04 #@! TO.P,C9,1*
G04 #@! TO.N,Net-(C9-Pad1)*
X156314800Y-113394600D03*
D10*
G04 #@! TO.N,GND*
G04 #@! TO.C,C10*
G36*
X159877579Y-116971544D02*
X159900634Y-116974963D01*
X159923243Y-116980627D01*
X159945187Y-116988479D01*
X159966257Y-116998444D01*
X159986248Y-117010426D01*
X160004968Y-117024310D01*
X160022238Y-117039962D01*
X160037890Y-117057232D01*
X160051774Y-117075952D01*
X160063756Y-117095943D01*
X160073721Y-117117013D01*
X160081573Y-117138957D01*
X160087237Y-117161566D01*
X160090656Y-117184621D01*
X160091800Y-117207900D01*
X160091800Y-117782900D01*
X160090656Y-117806179D01*
X160087237Y-117829234D01*
X160081573Y-117851843D01*
X160073721Y-117873787D01*
X160063756Y-117894857D01*
X160051774Y-117914848D01*
X160037890Y-117933568D01*
X160022238Y-117950838D01*
X160004968Y-117966490D01*
X159986248Y-117980374D01*
X159966257Y-117992356D01*
X159945187Y-118002321D01*
X159923243Y-118010173D01*
X159900634Y-118015837D01*
X159877579Y-118019256D01*
X159854300Y-118020400D01*
X159379300Y-118020400D01*
X159356021Y-118019256D01*
X159332966Y-118015837D01*
X159310357Y-118010173D01*
X159288413Y-118002321D01*
X159267343Y-117992356D01*
X159247352Y-117980374D01*
X159228632Y-117966490D01*
X159211362Y-117950838D01*
X159195710Y-117933568D01*
X159181826Y-117914848D01*
X159169844Y-117894857D01*
X159159879Y-117873787D01*
X159152027Y-117851843D01*
X159146363Y-117829234D01*
X159142944Y-117806179D01*
X159141800Y-117782900D01*
X159141800Y-117207900D01*
X159142944Y-117184621D01*
X159146363Y-117161566D01*
X159152027Y-117138957D01*
X159159879Y-117117013D01*
X159169844Y-117095943D01*
X159181826Y-117075952D01*
X159195710Y-117057232D01*
X159211362Y-117039962D01*
X159228632Y-117024310D01*
X159247352Y-117010426D01*
X159267343Y-116998444D01*
X159288413Y-116988479D01*
X159310357Y-116980627D01*
X159332966Y-116974963D01*
X159356021Y-116971544D01*
X159379300Y-116970400D01*
X159854300Y-116970400D01*
X159877579Y-116971544D01*
X159877579Y-116971544D01*
G37*
D12*
G04 #@! TD*
G04 #@! TO.P,C10,2*
G04 #@! TO.N,GND*
X159616800Y-117495400D03*
D10*
G04 #@! TO.N,Net-(C10-Pad1)*
G04 #@! TO.C,C10*
G36*
X159877579Y-115221544D02*
X159900634Y-115224963D01*
X159923243Y-115230627D01*
X159945187Y-115238479D01*
X159966257Y-115248444D01*
X159986248Y-115260426D01*
X160004968Y-115274310D01*
X160022238Y-115289962D01*
X160037890Y-115307232D01*
X160051774Y-115325952D01*
X160063756Y-115345943D01*
X160073721Y-115367013D01*
X160081573Y-115388957D01*
X160087237Y-115411566D01*
X160090656Y-115434621D01*
X160091800Y-115457900D01*
X160091800Y-116032900D01*
X160090656Y-116056179D01*
X160087237Y-116079234D01*
X160081573Y-116101843D01*
X160073721Y-116123787D01*
X160063756Y-116144857D01*
X160051774Y-116164848D01*
X160037890Y-116183568D01*
X160022238Y-116200838D01*
X160004968Y-116216490D01*
X159986248Y-116230374D01*
X159966257Y-116242356D01*
X159945187Y-116252321D01*
X159923243Y-116260173D01*
X159900634Y-116265837D01*
X159877579Y-116269256D01*
X159854300Y-116270400D01*
X159379300Y-116270400D01*
X159356021Y-116269256D01*
X159332966Y-116265837D01*
X159310357Y-116260173D01*
X159288413Y-116252321D01*
X159267343Y-116242356D01*
X159247352Y-116230374D01*
X159228632Y-116216490D01*
X159211362Y-116200838D01*
X159195710Y-116183568D01*
X159181826Y-116164848D01*
X159169844Y-116144857D01*
X159159879Y-116123787D01*
X159152027Y-116101843D01*
X159146363Y-116079234D01*
X159142944Y-116056179D01*
X159141800Y-116032900D01*
X159141800Y-115457900D01*
X159142944Y-115434621D01*
X159146363Y-115411566D01*
X159152027Y-115388957D01*
X159159879Y-115367013D01*
X159169844Y-115345943D01*
X159181826Y-115325952D01*
X159195710Y-115307232D01*
X159211362Y-115289962D01*
X159228632Y-115274310D01*
X159247352Y-115260426D01*
X159267343Y-115248444D01*
X159288413Y-115238479D01*
X159310357Y-115230627D01*
X159332966Y-115224963D01*
X159356021Y-115221544D01*
X159379300Y-115220400D01*
X159854300Y-115220400D01*
X159877579Y-115221544D01*
X159877579Y-115221544D01*
G37*
D12*
G04 #@! TD*
G04 #@! TO.P,C10,1*
G04 #@! TO.N,Net-(C10-Pad1)*
X159616800Y-115745400D03*
D13*
G04 #@! TO.P,D1,3*
G04 #@! TO.N,+5V*
X162624200Y-95305200D03*
G04 #@! TO.P,D1,2*
G04 #@! TO.N,N/C*
X161674200Y-93305200D03*
G04 #@! TO.P,D1,1*
G04 #@! TO.N,Net-(D1-Pad1)*
X163574200Y-93305200D03*
G04 #@! TD*
D14*
G04 #@! TO.P,F1,2*
G04 #@! TO.N,/HV_L_F*
X130544000Y-82278300D03*
G04 #@! TO.P,F1,1*
G04 #@! TO.N,/HV_L*
X130544000Y-72118300D03*
G04 #@! TD*
D15*
G04 #@! TO.P,J1,1*
G04 #@! TO.N,GND*
X180762621Y-84732219D03*
D16*
G04 #@! TO.P,J1,2*
G04 #@! TO.N,/PANEL_BUT*
X180762621Y-87272219D03*
G04 #@! TO.P,J1,3*
G04 #@! TO.N,Net-(J1-Pad3)*
X180762621Y-89812219D03*
G04 #@! TO.P,J1,4*
G04 #@! TO.N,Net-(J1-Pad4)*
X180762621Y-92352219D03*
G04 #@! TD*
D17*
G04 #@! TO.P,J2,1*
G04 #@! TO.N,/HV_L*
X119383200Y-72259300D03*
D14*
G04 #@! TO.P,J2,2*
G04 #@! TO.N,/HV_N*
X119383200Y-77339300D03*
G04 #@! TO.P,J2,3*
G04 #@! TO.N,/HV_LOAD*
X119383200Y-82419300D03*
G04 #@! TD*
D18*
G04 #@! TO.P,J3,1*
G04 #@! TO.N,/nRST*
X165199720Y-106587400D03*
D19*
G04 #@! TO.P,J3,2*
G04 #@! TO.N,GND*
X165199720Y-104047400D03*
G04 #@! TD*
D18*
G04 #@! TO.P,J4,1*
G04 #@! TO.N,+3V3*
X182253280Y-102828200D03*
D19*
G04 #@! TO.P,J4,2*
G04 #@! TO.N,/SWCLK*
X182253280Y-105368200D03*
G04 #@! TO.P,J4,3*
G04 #@! TO.N,GND*
X182253280Y-107908200D03*
G04 #@! TO.P,J4,4*
G04 #@! TO.N,/SWDIO*
X182253280Y-110448200D03*
G04 #@! TO.P,J4,5*
G04 #@! TO.N,/nRST*
X182253280Y-112988200D03*
G04 #@! TO.P,J4,6*
G04 #@! TO.N,N/C*
X182253280Y-115528200D03*
G04 #@! TD*
D20*
G04 #@! TO.P,K1,1*
G04 #@! TO.N,/HV_ROUT*
X157849000Y-101074300D03*
D21*
G04 #@! TO.P,K1,2*
G04 #@! TO.N,Net-(D1-Pad1)*
X155849000Y-95074300D03*
G04 #@! TO.P,K1,3*
G04 #@! TO.N,/HV_L_F*
X143649000Y-95074300D03*
G04 #@! TO.P,K1,4*
G04 #@! TO.N,N/C*
X143649000Y-107074300D03*
G04 #@! TO.P,K1,5*
G04 #@! TO.N,+5V*
X155849000Y-107074300D03*
G04 #@! TD*
D22*
G04 #@! TO.P,MH1,1*
G04 #@! TO.N,N/C*
X179928100Y-122862800D03*
G04 #@! TD*
G04 #@! TO.P,MH2,1*
G04 #@! TO.N,N/C*
X119928100Y-62862800D03*
G04 #@! TD*
G04 #@! TO.P,MH3,1*
G04 #@! TO.N,N/C*
X119928100Y-122862800D03*
G04 #@! TD*
G04 #@! TO.P,MH4,1*
G04 #@! TO.N,N/C*
X179928100Y-62862800D03*
G04 #@! TD*
D23*
G04 #@! TO.P,PS1,3*
G04 #@! TO.N,GND*
X168831000Y-73261300D03*
D24*
G04 #@! TO.P,PS1,1*
G04 #@! TO.N,/HV_N*
X140831000Y-73261300D03*
D23*
G04 #@! TO.P,PS1,2*
G04 #@! TO.N,/HV_L_F*
X140831000Y-88461300D03*
G04 #@! TO.P,PS1,4*
G04 #@! TO.N,+5V*
X168831000Y-80861300D03*
G04 #@! TD*
D13*
G04 #@! TO.P,Q1,1*
G04 #@! TO.N,/PANEL_LED*
X179685300Y-97148000D03*
G04 #@! TO.P,Q1,2*
G04 #@! TO.N,GND*
X181585300Y-97148000D03*
G04 #@! TO.P,Q1,3*
G04 #@! TO.N,Net-(J1-Pad4)*
X180635300Y-95148000D03*
G04 #@! TD*
G04 #@! TO.P,Q2,1*
G04 #@! TO.N,Net-(Q2-Pad1)*
X165357200Y-95305200D03*
G04 #@! TO.P,Q2,2*
G04 #@! TO.N,GND*
X167257200Y-95305200D03*
G04 #@! TO.P,Q2,3*
G04 #@! TO.N,Net-(D1-Pad1)*
X166307200Y-93305200D03*
G04 #@! TD*
D10*
G04 #@! TO.N,Net-(J1-Pad3)*
G04 #@! TO.C,R1*
G36*
X176182205Y-89249604D02*
X176206473Y-89253204D01*
X176230272Y-89259165D01*
X176253371Y-89267430D01*
X176275550Y-89277920D01*
X176296593Y-89290532D01*
X176316299Y-89305147D01*
X176334477Y-89321623D01*
X176350953Y-89339801D01*
X176365568Y-89359507D01*
X176378180Y-89380550D01*
X176388670Y-89402729D01*
X176396935Y-89425828D01*
X176402896Y-89449627D01*
X176406496Y-89473895D01*
X176407700Y-89498399D01*
X176407700Y-90148401D01*
X176406496Y-90172905D01*
X176402896Y-90197173D01*
X176396935Y-90220972D01*
X176388670Y-90244071D01*
X176378180Y-90266250D01*
X176365568Y-90287293D01*
X176350953Y-90306999D01*
X176334477Y-90325177D01*
X176316299Y-90341653D01*
X176296593Y-90356268D01*
X176275550Y-90368880D01*
X176253371Y-90379370D01*
X176230272Y-90387635D01*
X176206473Y-90393596D01*
X176182205Y-90397196D01*
X176157701Y-90398400D01*
X175257699Y-90398400D01*
X175233195Y-90397196D01*
X175208927Y-90393596D01*
X175185128Y-90387635D01*
X175162029Y-90379370D01*
X175139850Y-90368880D01*
X175118807Y-90356268D01*
X175099101Y-90341653D01*
X175080923Y-90325177D01*
X175064447Y-90306999D01*
X175049832Y-90287293D01*
X175037220Y-90266250D01*
X175026730Y-90244071D01*
X175018465Y-90220972D01*
X175012504Y-90197173D01*
X175008904Y-90172905D01*
X175007700Y-90148401D01*
X175007700Y-89498399D01*
X175008904Y-89473895D01*
X175012504Y-89449627D01*
X175018465Y-89425828D01*
X175026730Y-89402729D01*
X175037220Y-89380550D01*
X175049832Y-89359507D01*
X175064447Y-89339801D01*
X175080923Y-89321623D01*
X175099101Y-89305147D01*
X175118807Y-89290532D01*
X175139850Y-89277920D01*
X175162029Y-89267430D01*
X175185128Y-89259165D01*
X175208927Y-89253204D01*
X175233195Y-89249604D01*
X175257699Y-89248400D01*
X176157701Y-89248400D01*
X176182205Y-89249604D01*
X176182205Y-89249604D01*
G37*
D25*
G04 #@! TD*
G04 #@! TO.P,R1,1*
G04 #@! TO.N,Net-(J1-Pad3)*
X175707700Y-89823400D03*
D10*
G04 #@! TO.N,+5V*
G04 #@! TO.C,R1*
G36*
X176182205Y-91299604D02*
X176206473Y-91303204D01*
X176230272Y-91309165D01*
X176253371Y-91317430D01*
X176275550Y-91327920D01*
X176296593Y-91340532D01*
X176316299Y-91355147D01*
X176334477Y-91371623D01*
X176350953Y-91389801D01*
X176365568Y-91409507D01*
X176378180Y-91430550D01*
X176388670Y-91452729D01*
X176396935Y-91475828D01*
X176402896Y-91499627D01*
X176406496Y-91523895D01*
X176407700Y-91548399D01*
X176407700Y-92198401D01*
X176406496Y-92222905D01*
X176402896Y-92247173D01*
X176396935Y-92270972D01*
X176388670Y-92294071D01*
X176378180Y-92316250D01*
X176365568Y-92337293D01*
X176350953Y-92356999D01*
X176334477Y-92375177D01*
X176316299Y-92391653D01*
X176296593Y-92406268D01*
X176275550Y-92418880D01*
X176253371Y-92429370D01*
X176230272Y-92437635D01*
X176206473Y-92443596D01*
X176182205Y-92447196D01*
X176157701Y-92448400D01*
X175257699Y-92448400D01*
X175233195Y-92447196D01*
X175208927Y-92443596D01*
X175185128Y-92437635D01*
X175162029Y-92429370D01*
X175139850Y-92418880D01*
X175118807Y-92406268D01*
X175099101Y-92391653D01*
X175080923Y-92375177D01*
X175064447Y-92356999D01*
X175049832Y-92337293D01*
X175037220Y-92316250D01*
X175026730Y-92294071D01*
X175018465Y-92270972D01*
X175012504Y-92247173D01*
X175008904Y-92222905D01*
X175007700Y-92198401D01*
X175007700Y-91548399D01*
X175008904Y-91523895D01*
X175012504Y-91499627D01*
X175018465Y-91475828D01*
X175026730Y-91452729D01*
X175037220Y-91430550D01*
X175049832Y-91409507D01*
X175064447Y-91389801D01*
X175080923Y-91371623D01*
X175099101Y-91355147D01*
X175118807Y-91340532D01*
X175139850Y-91327920D01*
X175162029Y-91317430D01*
X175185128Y-91309165D01*
X175208927Y-91303204D01*
X175233195Y-91299604D01*
X175257699Y-91298400D01*
X176157701Y-91298400D01*
X176182205Y-91299604D01*
X176182205Y-91299604D01*
G37*
D25*
G04 #@! TD*
G04 #@! TO.P,R1,2*
G04 #@! TO.N,+5V*
X175707700Y-91873400D03*
D10*
G04 #@! TO.N,GND*
G04 #@! TO.C,R2*
G36*
X178282419Y-94896464D02*
X178305474Y-94899883D01*
X178328083Y-94905547D01*
X178350027Y-94913399D01*
X178371097Y-94923364D01*
X178391088Y-94935346D01*
X178409808Y-94949230D01*
X178427078Y-94964882D01*
X178442730Y-94982152D01*
X178456614Y-95000872D01*
X178468596Y-95020863D01*
X178478561Y-95041933D01*
X178486413Y-95063877D01*
X178492077Y-95086486D01*
X178495496Y-95109541D01*
X178496640Y-95132820D01*
X178496640Y-95707820D01*
X178495496Y-95731099D01*
X178492077Y-95754154D01*
X178486413Y-95776763D01*
X178478561Y-95798707D01*
X178468596Y-95819777D01*
X178456614Y-95839768D01*
X178442730Y-95858488D01*
X178427078Y-95875758D01*
X178409808Y-95891410D01*
X178391088Y-95905294D01*
X178371097Y-95917276D01*
X178350027Y-95927241D01*
X178328083Y-95935093D01*
X178305474Y-95940757D01*
X178282419Y-95944176D01*
X178259140Y-95945320D01*
X177784140Y-95945320D01*
X177760861Y-95944176D01*
X177737806Y-95940757D01*
X177715197Y-95935093D01*
X177693253Y-95927241D01*
X177672183Y-95917276D01*
X177652192Y-95905294D01*
X177633472Y-95891410D01*
X177616202Y-95875758D01*
X177600550Y-95858488D01*
X177586666Y-95839768D01*
X177574684Y-95819777D01*
X177564719Y-95798707D01*
X177556867Y-95776763D01*
X177551203Y-95754154D01*
X177547784Y-95731099D01*
X177546640Y-95707820D01*
X177546640Y-95132820D01*
X177547784Y-95109541D01*
X177551203Y-95086486D01*
X177556867Y-95063877D01*
X177564719Y-95041933D01*
X177574684Y-95020863D01*
X177586666Y-95000872D01*
X177600550Y-94982152D01*
X177616202Y-94964882D01*
X177633472Y-94949230D01*
X177652192Y-94935346D01*
X177672183Y-94923364D01*
X177693253Y-94913399D01*
X177715197Y-94905547D01*
X177737806Y-94899883D01*
X177760861Y-94896464D01*
X177784140Y-94895320D01*
X178259140Y-94895320D01*
X178282419Y-94896464D01*
X178282419Y-94896464D01*
G37*
D12*
G04 #@! TD*
G04 #@! TO.P,R2,2*
G04 #@! TO.N,GND*
X178021640Y-95420320D03*
D10*
G04 #@! TO.N,/PANEL_LED*
G04 #@! TO.C,R2*
G36*
X178282419Y-96646464D02*
X178305474Y-96649883D01*
X178328083Y-96655547D01*
X178350027Y-96663399D01*
X178371097Y-96673364D01*
X178391088Y-96685346D01*
X178409808Y-96699230D01*
X178427078Y-96714882D01*
X178442730Y-96732152D01*
X178456614Y-96750872D01*
X178468596Y-96770863D01*
X178478561Y-96791933D01*
X178486413Y-96813877D01*
X178492077Y-96836486D01*
X178495496Y-96859541D01*
X178496640Y-96882820D01*
X178496640Y-97457820D01*
X178495496Y-97481099D01*
X178492077Y-97504154D01*
X178486413Y-97526763D01*
X178478561Y-97548707D01*
X178468596Y-97569777D01*
X178456614Y-97589768D01*
X178442730Y-97608488D01*
X178427078Y-97625758D01*
X178409808Y-97641410D01*
X178391088Y-97655294D01*
X178371097Y-97667276D01*
X178350027Y-97677241D01*
X178328083Y-97685093D01*
X178305474Y-97690757D01*
X178282419Y-97694176D01*
X178259140Y-97695320D01*
X177784140Y-97695320D01*
X177760861Y-97694176D01*
X177737806Y-97690757D01*
X177715197Y-97685093D01*
X177693253Y-97677241D01*
X177672183Y-97667276D01*
X177652192Y-97655294D01*
X177633472Y-97641410D01*
X177616202Y-97625758D01*
X177600550Y-97608488D01*
X177586666Y-97589768D01*
X177574684Y-97569777D01*
X177564719Y-97548707D01*
X177556867Y-97526763D01*
X177551203Y-97504154D01*
X177547784Y-97481099D01*
X177546640Y-97457820D01*
X177546640Y-96882820D01*
X177547784Y-96859541D01*
X177551203Y-96836486D01*
X177556867Y-96813877D01*
X177564719Y-96791933D01*
X177574684Y-96770863D01*
X177586666Y-96750872D01*
X177600550Y-96732152D01*
X177616202Y-96714882D01*
X177633472Y-96699230D01*
X177652192Y-96685346D01*
X177672183Y-96673364D01*
X177693253Y-96663399D01*
X177715197Y-96655547D01*
X177737806Y-96649883D01*
X177760861Y-96646464D01*
X177784140Y-96645320D01*
X178259140Y-96645320D01*
X178282419Y-96646464D01*
X178282419Y-96646464D01*
G37*
D12*
G04 #@! TD*
G04 #@! TO.P,R2,1*
G04 #@! TO.N,/PANEL_LED*
X178021640Y-97170320D03*
D10*
G04 #@! TO.N,+3V3*
G04 #@! TO.C,R3*
G36*
X162727459Y-105362504D02*
X162750514Y-105365923D01*
X162773123Y-105371587D01*
X162795067Y-105379439D01*
X162816137Y-105389404D01*
X162836128Y-105401386D01*
X162854848Y-105415270D01*
X162872118Y-105430922D01*
X162887770Y-105448192D01*
X162901654Y-105466912D01*
X162913636Y-105486903D01*
X162923601Y-105507973D01*
X162931453Y-105529917D01*
X162937117Y-105552526D01*
X162940536Y-105575581D01*
X162941680Y-105598860D01*
X162941680Y-106173860D01*
X162940536Y-106197139D01*
X162937117Y-106220194D01*
X162931453Y-106242803D01*
X162923601Y-106264747D01*
X162913636Y-106285817D01*
X162901654Y-106305808D01*
X162887770Y-106324528D01*
X162872118Y-106341798D01*
X162854848Y-106357450D01*
X162836128Y-106371334D01*
X162816137Y-106383316D01*
X162795067Y-106393281D01*
X162773123Y-106401133D01*
X162750514Y-106406797D01*
X162727459Y-106410216D01*
X162704180Y-106411360D01*
X162229180Y-106411360D01*
X162205901Y-106410216D01*
X162182846Y-106406797D01*
X162160237Y-106401133D01*
X162138293Y-106393281D01*
X162117223Y-106383316D01*
X162097232Y-106371334D01*
X162078512Y-106357450D01*
X162061242Y-106341798D01*
X162045590Y-106324528D01*
X162031706Y-106305808D01*
X162019724Y-106285817D01*
X162009759Y-106264747D01*
X162001907Y-106242803D01*
X161996243Y-106220194D01*
X161992824Y-106197139D01*
X161991680Y-106173860D01*
X161991680Y-105598860D01*
X161992824Y-105575581D01*
X161996243Y-105552526D01*
X162001907Y-105529917D01*
X162009759Y-105507973D01*
X162019724Y-105486903D01*
X162031706Y-105466912D01*
X162045590Y-105448192D01*
X162061242Y-105430922D01*
X162078512Y-105415270D01*
X162097232Y-105401386D01*
X162117223Y-105389404D01*
X162138293Y-105379439D01*
X162160237Y-105371587D01*
X162182846Y-105365923D01*
X162205901Y-105362504D01*
X162229180Y-105361360D01*
X162704180Y-105361360D01*
X162727459Y-105362504D01*
X162727459Y-105362504D01*
G37*
D12*
G04 #@! TD*
G04 #@! TO.P,R3,1*
G04 #@! TO.N,+3V3*
X162466680Y-105886360D03*
D10*
G04 #@! TO.N,/nRST*
G04 #@! TO.C,R3*
G36*
X162727459Y-107112504D02*
X162750514Y-107115923D01*
X162773123Y-107121587D01*
X162795067Y-107129439D01*
X162816137Y-107139404D01*
X162836128Y-107151386D01*
X162854848Y-107165270D01*
X162872118Y-107180922D01*
X162887770Y-107198192D01*
X162901654Y-107216912D01*
X162913636Y-107236903D01*
X162923601Y-107257973D01*
X162931453Y-107279917D01*
X162937117Y-107302526D01*
X162940536Y-107325581D01*
X162941680Y-107348860D01*
X162941680Y-107923860D01*
X162940536Y-107947139D01*
X162937117Y-107970194D01*
X162931453Y-107992803D01*
X162923601Y-108014747D01*
X162913636Y-108035817D01*
X162901654Y-108055808D01*
X162887770Y-108074528D01*
X162872118Y-108091798D01*
X162854848Y-108107450D01*
X162836128Y-108121334D01*
X162816137Y-108133316D01*
X162795067Y-108143281D01*
X162773123Y-108151133D01*
X162750514Y-108156797D01*
X162727459Y-108160216D01*
X162704180Y-108161360D01*
X162229180Y-108161360D01*
X162205901Y-108160216D01*
X162182846Y-108156797D01*
X162160237Y-108151133D01*
X162138293Y-108143281D01*
X162117223Y-108133316D01*
X162097232Y-108121334D01*
X162078512Y-108107450D01*
X162061242Y-108091798D01*
X162045590Y-108074528D01*
X162031706Y-108055808D01*
X162019724Y-108035817D01*
X162009759Y-108014747D01*
X162001907Y-107992803D01*
X161996243Y-107970194D01*
X161992824Y-107947139D01*
X161991680Y-107923860D01*
X161991680Y-107348860D01*
X161992824Y-107325581D01*
X161996243Y-107302526D01*
X162001907Y-107279917D01*
X162009759Y-107257973D01*
X162019724Y-107236903D01*
X162031706Y-107216912D01*
X162045590Y-107198192D01*
X162061242Y-107180922D01*
X162078512Y-107165270D01*
X162097232Y-107151386D01*
X162117223Y-107139404D01*
X162138293Y-107129439D01*
X162160237Y-107121587D01*
X162182846Y-107115923D01*
X162205901Y-107112504D01*
X162229180Y-107111360D01*
X162704180Y-107111360D01*
X162727459Y-107112504D01*
X162727459Y-107112504D01*
G37*
D12*
G04 #@! TD*
G04 #@! TO.P,R3,2*
G04 #@! TO.N,/nRST*
X162466680Y-107636360D03*
D10*
G04 #@! TO.N,Net-(Q2-Pad1)*
G04 #@! TO.C,R4*
G36*
X165731479Y-96423444D02*
X165754534Y-96426863D01*
X165777143Y-96432527D01*
X165799087Y-96440379D01*
X165820157Y-96450344D01*
X165840148Y-96462326D01*
X165858868Y-96476210D01*
X165876138Y-96491862D01*
X165891790Y-96509132D01*
X165905674Y-96527852D01*
X165917656Y-96547843D01*
X165927621Y-96568913D01*
X165935473Y-96590857D01*
X165941137Y-96613466D01*
X165944556Y-96636521D01*
X165945700Y-96659800D01*
X165945700Y-97134800D01*
X165944556Y-97158079D01*
X165941137Y-97181134D01*
X165935473Y-97203743D01*
X165927621Y-97225687D01*
X165917656Y-97246757D01*
X165905674Y-97266748D01*
X165891790Y-97285468D01*
X165876138Y-97302738D01*
X165858868Y-97318390D01*
X165840148Y-97332274D01*
X165820157Y-97344256D01*
X165799087Y-97354221D01*
X165777143Y-97362073D01*
X165754534Y-97367737D01*
X165731479Y-97371156D01*
X165708200Y-97372300D01*
X165133200Y-97372300D01*
X165109921Y-97371156D01*
X165086866Y-97367737D01*
X165064257Y-97362073D01*
X165042313Y-97354221D01*
X165021243Y-97344256D01*
X165001252Y-97332274D01*
X164982532Y-97318390D01*
X164965262Y-97302738D01*
X164949610Y-97285468D01*
X164935726Y-97266748D01*
X164923744Y-97246757D01*
X164913779Y-97225687D01*
X164905927Y-97203743D01*
X164900263Y-97181134D01*
X164896844Y-97158079D01*
X164895700Y-97134800D01*
X164895700Y-96659800D01*
X164896844Y-96636521D01*
X164900263Y-96613466D01*
X164905927Y-96590857D01*
X164913779Y-96568913D01*
X164923744Y-96547843D01*
X164935726Y-96527852D01*
X164949610Y-96509132D01*
X164965262Y-96491862D01*
X164982532Y-96476210D01*
X165001252Y-96462326D01*
X165021243Y-96450344D01*
X165042313Y-96440379D01*
X165064257Y-96432527D01*
X165086866Y-96426863D01*
X165109921Y-96423444D01*
X165133200Y-96422300D01*
X165708200Y-96422300D01*
X165731479Y-96423444D01*
X165731479Y-96423444D01*
G37*
D12*
G04 #@! TD*
G04 #@! TO.P,R4,1*
G04 #@! TO.N,Net-(Q2-Pad1)*
X165420700Y-96897300D03*
D10*
G04 #@! TO.N,GND*
G04 #@! TO.C,R4*
G36*
X167481479Y-96423444D02*
X167504534Y-96426863D01*
X167527143Y-96432527D01*
X167549087Y-96440379D01*
X167570157Y-96450344D01*
X167590148Y-96462326D01*
X167608868Y-96476210D01*
X167626138Y-96491862D01*
X167641790Y-96509132D01*
X167655674Y-96527852D01*
X167667656Y-96547843D01*
X167677621Y-96568913D01*
X167685473Y-96590857D01*
X167691137Y-96613466D01*
X167694556Y-96636521D01*
X167695700Y-96659800D01*
X167695700Y-97134800D01*
X167694556Y-97158079D01*
X167691137Y-97181134D01*
X167685473Y-97203743D01*
X167677621Y-97225687D01*
X167667656Y-97246757D01*
X167655674Y-97266748D01*
X167641790Y-97285468D01*
X167626138Y-97302738D01*
X167608868Y-97318390D01*
X167590148Y-97332274D01*
X167570157Y-97344256D01*
X167549087Y-97354221D01*
X167527143Y-97362073D01*
X167504534Y-97367737D01*
X167481479Y-97371156D01*
X167458200Y-97372300D01*
X166883200Y-97372300D01*
X166859921Y-97371156D01*
X166836866Y-97367737D01*
X166814257Y-97362073D01*
X166792313Y-97354221D01*
X166771243Y-97344256D01*
X166751252Y-97332274D01*
X166732532Y-97318390D01*
X166715262Y-97302738D01*
X166699610Y-97285468D01*
X166685726Y-97266748D01*
X166673744Y-97246757D01*
X166663779Y-97225687D01*
X166655927Y-97203743D01*
X166650263Y-97181134D01*
X166646844Y-97158079D01*
X166645700Y-97134800D01*
X166645700Y-96659800D01*
X166646844Y-96636521D01*
X166650263Y-96613466D01*
X166655927Y-96590857D01*
X166663779Y-96568913D01*
X166673744Y-96547843D01*
X166685726Y-96527852D01*
X166699610Y-96509132D01*
X166715262Y-96491862D01*
X166732532Y-96476210D01*
X166751252Y-96462326D01*
X166771243Y-96450344D01*
X166792313Y-96440379D01*
X166814257Y-96432527D01*
X166836866Y-96426863D01*
X166859921Y-96423444D01*
X166883200Y-96422300D01*
X167458200Y-96422300D01*
X167481479Y-96423444D01*
X167481479Y-96423444D01*
G37*
D12*
G04 #@! TD*
G04 #@! TO.P,R4,2*
G04 #@! TO.N,GND*
X167170700Y-96897300D03*
D10*
G04 #@! TO.N,Net-(C10-Pad1)*
G04 #@! TO.C,R5*
G36*
X158264679Y-113465044D02*
X158287734Y-113468463D01*
X158310343Y-113474127D01*
X158332287Y-113481979D01*
X158353357Y-113491944D01*
X158373348Y-113503926D01*
X158392068Y-113517810D01*
X158409338Y-113533462D01*
X158424990Y-113550732D01*
X158438874Y-113569452D01*
X158450856Y-113589443D01*
X158460821Y-113610513D01*
X158468673Y-113632457D01*
X158474337Y-113655066D01*
X158477756Y-113678121D01*
X158478900Y-113701400D01*
X158478900Y-114276400D01*
X158477756Y-114299679D01*
X158474337Y-114322734D01*
X158468673Y-114345343D01*
X158460821Y-114367287D01*
X158450856Y-114388357D01*
X158438874Y-114408348D01*
X158424990Y-114427068D01*
X158409338Y-114444338D01*
X158392068Y-114459990D01*
X158373348Y-114473874D01*
X158353357Y-114485856D01*
X158332287Y-114495821D01*
X158310343Y-114503673D01*
X158287734Y-114509337D01*
X158264679Y-114512756D01*
X158241400Y-114513900D01*
X157766400Y-114513900D01*
X157743121Y-114512756D01*
X157720066Y-114509337D01*
X157697457Y-114503673D01*
X157675513Y-114495821D01*
X157654443Y-114485856D01*
X157634452Y-114473874D01*
X157615732Y-114459990D01*
X157598462Y-114444338D01*
X157582810Y-114427068D01*
X157568926Y-114408348D01*
X157556944Y-114388357D01*
X157546979Y-114367287D01*
X157539127Y-114345343D01*
X157533463Y-114322734D01*
X157530044Y-114299679D01*
X157528900Y-114276400D01*
X157528900Y-113701400D01*
X157530044Y-113678121D01*
X157533463Y-113655066D01*
X157539127Y-113632457D01*
X157546979Y-113610513D01*
X157556944Y-113589443D01*
X157568926Y-113569452D01*
X157582810Y-113550732D01*
X157598462Y-113533462D01*
X157615732Y-113517810D01*
X157634452Y-113503926D01*
X157654443Y-113491944D01*
X157675513Y-113481979D01*
X157697457Y-113474127D01*
X157720066Y-113468463D01*
X157743121Y-113465044D01*
X157766400Y-113463900D01*
X158241400Y-113463900D01*
X158264679Y-113465044D01*
X158264679Y-113465044D01*
G37*
D12*
G04 #@! TD*
G04 #@! TO.P,R5,1*
G04 #@! TO.N,Net-(C10-Pad1)*
X158003900Y-113988900D03*
D10*
G04 #@! TO.N,Net-(R5-Pad2)*
G04 #@! TO.C,R5*
G36*
X158264679Y-111715044D02*
X158287734Y-111718463D01*
X158310343Y-111724127D01*
X158332287Y-111731979D01*
X158353357Y-111741944D01*
X158373348Y-111753926D01*
X158392068Y-111767810D01*
X158409338Y-111783462D01*
X158424990Y-111800732D01*
X158438874Y-111819452D01*
X158450856Y-111839443D01*
X158460821Y-111860513D01*
X158468673Y-111882457D01*
X158474337Y-111905066D01*
X158477756Y-111928121D01*
X158478900Y-111951400D01*
X158478900Y-112526400D01*
X158477756Y-112549679D01*
X158474337Y-112572734D01*
X158468673Y-112595343D01*
X158460821Y-112617287D01*
X158450856Y-112638357D01*
X158438874Y-112658348D01*
X158424990Y-112677068D01*
X158409338Y-112694338D01*
X158392068Y-112709990D01*
X158373348Y-112723874D01*
X158353357Y-112735856D01*
X158332287Y-112745821D01*
X158310343Y-112753673D01*
X158287734Y-112759337D01*
X158264679Y-112762756D01*
X158241400Y-112763900D01*
X157766400Y-112763900D01*
X157743121Y-112762756D01*
X157720066Y-112759337D01*
X157697457Y-112753673D01*
X157675513Y-112745821D01*
X157654443Y-112735856D01*
X157634452Y-112723874D01*
X157615732Y-112709990D01*
X157598462Y-112694338D01*
X157582810Y-112677068D01*
X157568926Y-112658348D01*
X157556944Y-112638357D01*
X157546979Y-112617287D01*
X157539127Y-112595343D01*
X157533463Y-112572734D01*
X157530044Y-112549679D01*
X157528900Y-112526400D01*
X157528900Y-111951400D01*
X157530044Y-111928121D01*
X157533463Y-111905066D01*
X157539127Y-111882457D01*
X157546979Y-111860513D01*
X157556944Y-111839443D01*
X157568926Y-111819452D01*
X157582810Y-111800732D01*
X157598462Y-111783462D01*
X157615732Y-111767810D01*
X157634452Y-111753926D01*
X157654443Y-111741944D01*
X157675513Y-111731979D01*
X157697457Y-111724127D01*
X157720066Y-111718463D01*
X157743121Y-111715044D01*
X157766400Y-111713900D01*
X158241400Y-111713900D01*
X158264679Y-111715044D01*
X158264679Y-111715044D01*
G37*
D12*
G04 #@! TD*
G04 #@! TO.P,R5,2*
G04 #@! TO.N,Net-(R5-Pad2)*
X158003900Y-112238900D03*
D10*
G04 #@! TO.N,GND*
G04 #@! TO.C,R6*
G36*
X159877579Y-111715044D02*
X159900634Y-111718463D01*
X159923243Y-111724127D01*
X159945187Y-111731979D01*
X159966257Y-111741944D01*
X159986248Y-111753926D01*
X160004968Y-111767810D01*
X160022238Y-111783462D01*
X160037890Y-111800732D01*
X160051774Y-111819452D01*
X160063756Y-111839443D01*
X160073721Y-111860513D01*
X160081573Y-111882457D01*
X160087237Y-111905066D01*
X160090656Y-111928121D01*
X160091800Y-111951400D01*
X160091800Y-112526400D01*
X160090656Y-112549679D01*
X160087237Y-112572734D01*
X160081573Y-112595343D01*
X160073721Y-112617287D01*
X160063756Y-112638357D01*
X160051774Y-112658348D01*
X160037890Y-112677068D01*
X160022238Y-112694338D01*
X160004968Y-112709990D01*
X159986248Y-112723874D01*
X159966257Y-112735856D01*
X159945187Y-112745821D01*
X159923243Y-112753673D01*
X159900634Y-112759337D01*
X159877579Y-112762756D01*
X159854300Y-112763900D01*
X159379300Y-112763900D01*
X159356021Y-112762756D01*
X159332966Y-112759337D01*
X159310357Y-112753673D01*
X159288413Y-112745821D01*
X159267343Y-112735856D01*
X159247352Y-112723874D01*
X159228632Y-112709990D01*
X159211362Y-112694338D01*
X159195710Y-112677068D01*
X159181826Y-112658348D01*
X159169844Y-112638357D01*
X159159879Y-112617287D01*
X159152027Y-112595343D01*
X159146363Y-112572734D01*
X159142944Y-112549679D01*
X159141800Y-112526400D01*
X159141800Y-111951400D01*
X159142944Y-111928121D01*
X159146363Y-111905066D01*
X159152027Y-111882457D01*
X159159879Y-111860513D01*
X159169844Y-111839443D01*
X159181826Y-111819452D01*
X159195710Y-111800732D01*
X159211362Y-111783462D01*
X159228632Y-111767810D01*
X159247352Y-111753926D01*
X159267343Y-111741944D01*
X159288413Y-111731979D01*
X159310357Y-111724127D01*
X159332966Y-111718463D01*
X159356021Y-111715044D01*
X159379300Y-111713900D01*
X159854300Y-111713900D01*
X159877579Y-111715044D01*
X159877579Y-111715044D01*
G37*
D12*
G04 #@! TD*
G04 #@! TO.P,R6,2*
G04 #@! TO.N,GND*
X159616800Y-112238900D03*
D10*
G04 #@! TO.N,Net-(C10-Pad1)*
G04 #@! TO.C,R6*
G36*
X159877579Y-113465044D02*
X159900634Y-113468463D01*
X159923243Y-113474127D01*
X159945187Y-113481979D01*
X159966257Y-113491944D01*
X159986248Y-113503926D01*
X160004968Y-113517810D01*
X160022238Y-113533462D01*
X160037890Y-113550732D01*
X160051774Y-113569452D01*
X160063756Y-113589443D01*
X160073721Y-113610513D01*
X160081573Y-113632457D01*
X160087237Y-113655066D01*
X160090656Y-113678121D01*
X160091800Y-113701400D01*
X160091800Y-114276400D01*
X160090656Y-114299679D01*
X160087237Y-114322734D01*
X160081573Y-114345343D01*
X160073721Y-114367287D01*
X160063756Y-114388357D01*
X160051774Y-114408348D01*
X160037890Y-114427068D01*
X160022238Y-114444338D01*
X160004968Y-114459990D01*
X159986248Y-114473874D01*
X159966257Y-114485856D01*
X159945187Y-114495821D01*
X159923243Y-114503673D01*
X159900634Y-114509337D01*
X159877579Y-114512756D01*
X159854300Y-114513900D01*
X159379300Y-114513900D01*
X159356021Y-114512756D01*
X159332966Y-114509337D01*
X159310357Y-114503673D01*
X159288413Y-114495821D01*
X159267343Y-114485856D01*
X159247352Y-114473874D01*
X159228632Y-114459990D01*
X159211362Y-114444338D01*
X159195710Y-114427068D01*
X159181826Y-114408348D01*
X159169844Y-114388357D01*
X159159879Y-114367287D01*
X159152027Y-114345343D01*
X159146363Y-114322734D01*
X159142944Y-114299679D01*
X159141800Y-114276400D01*
X159141800Y-113701400D01*
X159142944Y-113678121D01*
X159146363Y-113655066D01*
X159152027Y-113632457D01*
X159159879Y-113610513D01*
X159169844Y-113589443D01*
X159181826Y-113569452D01*
X159195710Y-113550732D01*
X159211362Y-113533462D01*
X159228632Y-113517810D01*
X159247352Y-113503926D01*
X159267343Y-113491944D01*
X159288413Y-113481979D01*
X159310357Y-113474127D01*
X159332966Y-113468463D01*
X159356021Y-113465044D01*
X159379300Y-113463900D01*
X159854300Y-113463900D01*
X159877579Y-113465044D01*
X159877579Y-113465044D01*
G37*
D12*
G04 #@! TD*
G04 #@! TO.P,R6,1*
G04 #@! TO.N,Net-(C10-Pad1)*
X159616800Y-113988900D03*
D26*
G04 #@! TO.P,U1,2*
G04 #@! TO.N,+5V*
X177457800Y-77071300D03*
D10*
G04 #@! TD*
G04 #@! TO.N,+5V*
G04 #@! TO.C,U1*
G36*
X177032800Y-75971300D02*
X177882800Y-76571300D01*
X177882800Y-77571300D01*
X177032800Y-78171300D01*
X177032800Y-75971300D01*
X177032800Y-75971300D01*
G37*
D27*
G04 #@! TO.P,U1,1*
G04 #@! TO.N,GND*
X173310800Y-75571300D03*
D28*
G04 #@! TO.P,U1,2*
G04 #@! TO.N,+5V*
X173457300Y-77071300D03*
D27*
G04 #@! TO.P,U1,3*
G04 #@! TO.N,+3V3*
X173310800Y-78571300D03*
D29*
G04 #@! TO.P,U1,2*
G04 #@! TO.N,+5V*
X176124300Y-77071300D03*
D30*
X174714600Y-77071300D03*
D10*
G04 #@! TD*
G04 #@! TO.N,+5V*
G04 #@! TO.C,U1*
G36*
X175214600Y-78171300D02*
X174214600Y-77471300D01*
X174214600Y-76671300D01*
X175214600Y-75971300D01*
X175214600Y-78171300D01*
X175214600Y-78171300D01*
G37*
D31*
G04 #@! TO.P,U2,1*
G04 #@! TO.N,+3V3*
X168960920Y-104240760D03*
G04 #@! TO.P,U2,2*
G04 #@! TO.N,Net-(Q2-Pad1)*
X168960920Y-105040760D03*
G04 #@! TO.P,U2,3*
G04 #@! TO.N,N/C*
X168960920Y-105840760D03*
G04 #@! TO.P,U2,4*
G04 #@! TO.N,/nRST*
X168960920Y-106640760D03*
G04 #@! TO.P,U2,5*
G04 #@! TO.N,+3V3*
X168960920Y-107440760D03*
G04 #@! TO.P,U2,6*
G04 #@! TO.N,N/C*
X168960920Y-108240760D03*
G04 #@! TO.P,U2,7*
G04 #@! TO.N,/CURR_ADC*
X168960920Y-109040760D03*
G04 #@! TO.P,U2,8*
G04 #@! TO.N,N/C*
X168960920Y-109840760D03*
D32*
G04 #@! TO.P,U2,9*
X170410920Y-111290760D03*
G04 #@! TO.P,U2,10*
X171210920Y-111290760D03*
G04 #@! TO.P,U2,11*
X172010920Y-111290760D03*
G04 #@! TO.P,U2,12*
X172810920Y-111290760D03*
G04 #@! TO.P,U2,13*
X173610920Y-111290760D03*
G04 #@! TO.P,U2,14*
X174410920Y-111290760D03*
G04 #@! TO.P,U2,15*
X175210920Y-111290760D03*
G04 #@! TO.P,U2,16*
G04 #@! TO.N,GND*
X176010920Y-111290760D03*
D31*
G04 #@! TO.P,U2,17*
G04 #@! TO.N,+3V3*
X177460920Y-109840760D03*
G04 #@! TO.P,U2,18*
G04 #@! TO.N,N/C*
X177460920Y-109040760D03*
G04 #@! TO.P,U2,19*
X177460920Y-108240760D03*
G04 #@! TO.P,U2,20*
X177460920Y-107440760D03*
G04 #@! TO.P,U2,21*
X177460920Y-106640760D03*
G04 #@! TO.P,U2,22*
X177460920Y-105840760D03*
G04 #@! TO.P,U2,23*
G04 #@! TO.N,/SWDIO*
X177460920Y-105040760D03*
G04 #@! TO.P,U2,24*
G04 #@! TO.N,/SWCLK*
X177460920Y-104240760D03*
D32*
G04 #@! TO.P,U2,25*
G04 #@! TO.N,/PANEL_BUT*
X176010920Y-102790760D03*
G04 #@! TO.P,U2,26*
G04 #@! TO.N,/PANEL_LED*
X175210920Y-102790760D03*
G04 #@! TO.P,U2,27*
G04 #@! TO.N,N/C*
X174410920Y-102790760D03*
G04 #@! TO.P,U2,28*
X173610920Y-102790760D03*
G04 #@! TO.P,U2,29*
X172810920Y-102790760D03*
G04 #@! TO.P,U2,30*
X172010920Y-102790760D03*
G04 #@! TO.P,U2,31*
G04 #@! TO.N,GND*
X171210920Y-102790760D03*
G04 #@! TO.P,U2,32*
X170410920Y-102790760D03*
G04 #@! TD*
D33*
G04 #@! TO.P,U3,1*
G04 #@! TO.N,/HV_ROUT*
X148926000Y-110726300D03*
G04 #@! TO.P,U3,2*
X148926000Y-111996300D03*
G04 #@! TO.P,U3,3*
G04 #@! TO.N,/HV_LOAD*
X148926000Y-113266300D03*
G04 #@! TO.P,U3,4*
X148926000Y-114536300D03*
G04 #@! TO.P,U3,5*
G04 #@! TO.N,GND*
X154326000Y-114536300D03*
G04 #@! TO.P,U3,6*
G04 #@! TO.N,Net-(C9-Pad1)*
X154326000Y-113266300D03*
G04 #@! TO.P,U3,7*
G04 #@! TO.N,Net-(R5-Pad2)*
X154326000Y-111996300D03*
G04 #@! TO.P,U3,8*
G04 #@! TO.N,+5V*
X154326000Y-110726300D03*
G04 #@! TD*
D34*
G04 #@! TO.P,U4,1*
G04 #@! TO.N,/CURR_ADC*
X163246500Y-115787100D03*
G04 #@! TO.P,U4,2*
G04 #@! TO.N,GND*
X162296500Y-115787100D03*
G04 #@! TO.P,U4,3*
G04 #@! TO.N,Net-(C10-Pad1)*
X161346500Y-115787100D03*
G04 #@! TO.P,U4,4*
G04 #@! TO.N,/CURR_ADC*
X161346500Y-117987100D03*
G04 #@! TO.P,U4,5*
G04 #@! TO.N,+3V3*
X163246500Y-117987100D03*
G04 #@! TD*
D35*
G04 #@! TO.N,+5V*
X162842600Y-96465500D03*
G04 #@! TO.N,GND*
X173307400Y-74304000D03*
X177688900Y-81009600D03*
X168379800Y-95297100D03*
X168430600Y-96897300D03*
X154346300Y-115617100D03*
X156340200Y-116658500D03*
X159591400Y-110600600D03*
X158372200Y-117484000D03*
X162296500Y-114474100D03*
X164925400Y-114474100D03*
X163058500Y-109279800D03*
X170653100Y-99615100D03*
X170830900Y-104060100D03*
X176952300Y-111349900D03*
X176812600Y-95411400D03*
X182083100Y-95881300D03*
X179644700Y-72665700D03*
X153500000Y-126500000D03*
X175500000Y-126500000D03*
X175500000Y-118500000D03*
X183500000Y-118500000D03*
X183500000Y-67500000D03*
X175500000Y-67500000D03*
X175500000Y-59500000D03*
X167500000Y-59500000D03*
X158500000Y-109000000D03*
X153500000Y-117000000D03*
X153500000Y-124500000D03*
X153500000Y-118500000D03*
X153500000Y-120500000D03*
X153500000Y-122500000D03*
X155500000Y-126500000D03*
X157500000Y-126500000D03*
X159500000Y-126500000D03*
X161500000Y-126500000D03*
X163500000Y-126500000D03*
X165500000Y-126500000D03*
X167500000Y-126500000D03*
X169500000Y-126500000D03*
X171500000Y-126500000D03*
X173500000Y-126500000D03*
X175500000Y-124500000D03*
X175500000Y-122500000D03*
X175500000Y-120500000D03*
X177500000Y-118500000D03*
X179500000Y-118500000D03*
X181500000Y-118500000D03*
X183500000Y-86500000D03*
X183500000Y-69500000D03*
X183500000Y-71500000D03*
X183500000Y-73500000D03*
X183500000Y-75500000D03*
X183500000Y-77500000D03*
X183500000Y-79500000D03*
X183500000Y-81500000D03*
X183500000Y-83500000D03*
X181500000Y-67500000D03*
X179500000Y-67500000D03*
X177500000Y-67500000D03*
X175500000Y-65500000D03*
X175500000Y-63500000D03*
X175500000Y-61500000D03*
X173500000Y-59500000D03*
X171500000Y-59500000D03*
X169500000Y-59500000D03*
X167500000Y-61500000D03*
X167500000Y-63500000D03*
X167500000Y-65500000D03*
X167500000Y-67500000D03*
X167500000Y-69500000D03*
X167500000Y-76500000D03*
X167500000Y-78500000D03*
X164500000Y-99500000D03*
X164500000Y-101500000D03*
X170500000Y-109500000D03*
X175500000Y-104500000D03*
X175000000Y-107000000D03*
X171500000Y-106500000D03*
X178500000Y-88000000D03*
X175500000Y-88000000D03*
X178500000Y-83000000D03*
X175000000Y-83000000D03*
X171000000Y-85000000D03*
X171000000Y-82000000D03*
X171500000Y-79000000D03*
X171000000Y-90500000D03*
X175000000Y-98000000D03*
X175000000Y-94500000D03*
X178000000Y-91500000D03*
X182000000Y-94000000D03*
X179000000Y-93500000D03*
X177000000Y-93500000D03*
X166500000Y-115500000D03*
X168000000Y-115500000D03*
X169500000Y-115500000D03*
X171500000Y-115500000D03*
X166500000Y-119500000D03*
X168000000Y-119500000D03*
X169500000Y-119500000D03*
X171000000Y-119500000D03*
X172500000Y-119500000D03*
X174000000Y-119500000D03*
X175000000Y-115500000D03*
X153500000Y-105500000D03*
X153500000Y-109000000D03*
X167500000Y-87000000D03*
X167500000Y-90500000D03*
X165000000Y-92000000D03*
X154500000Y-92000000D03*
X157500000Y-96500000D03*
X159000000Y-96500000D03*
X161000000Y-96500000D03*
X158500000Y-94000000D03*
X161000000Y-95000000D03*
X157500000Y-92000000D03*
X160000000Y-93000000D03*
G04 #@! TO.N,+3V3*
X179924100Y-100123100D03*
X168951300Y-99615100D03*
X163769700Y-111362600D03*
X179212900Y-108822600D03*
X166208100Y-117509400D03*
X173243900Y-82597100D03*
X173256600Y-83562300D03*
G04 #@! TO.N,/nRST*
X165446100Y-113318400D03*
G04 #@! TD*
D36*
G04 #@! TO.N,GND*
X173307400Y-75567900D02*
X173310800Y-75571300D01*
D37*
X173307400Y-74304000D02*
X173307400Y-75567900D01*
D36*
X179644700Y-74138500D02*
X179693000Y-74186800D01*
D37*
X179644700Y-72665700D02*
X179644700Y-74138500D01*
D36*
X176228800Y-81009600D02*
X176227500Y-81008300D01*
D37*
X177688900Y-81009600D02*
X176228800Y-81009600D01*
D36*
X167265300Y-95297100D02*
X167257200Y-95305200D01*
D38*
X168379800Y-95297100D02*
X167265300Y-95297100D01*
X168430600Y-96897300D02*
X167170700Y-96897300D01*
D36*
X154346300Y-114556600D02*
X154326000Y-114536300D01*
D38*
X154346300Y-115617100D02*
X154346300Y-114556600D01*
D36*
X156340200Y-115361800D02*
X156314800Y-115336400D01*
D38*
X156340200Y-116658500D02*
X156340200Y-115361800D01*
D36*
X159590100Y-110599300D02*
X159591400Y-110600600D01*
D38*
X158089000Y-110599300D02*
X159590100Y-110599300D01*
D36*
X159616800Y-110626000D02*
X159591400Y-110600600D01*
D38*
X159616800Y-112238900D02*
X159616800Y-110626000D01*
D36*
X158383600Y-117495400D02*
X158372200Y-117484000D01*
D38*
X159616800Y-117495400D02*
X158383600Y-117495400D01*
X162296500Y-114474100D02*
X162296500Y-115787100D01*
D36*
X164925400Y-115745400D02*
X164938100Y-115758100D01*
D38*
X164925400Y-114474100D02*
X164925400Y-115745400D01*
X163058500Y-109279800D02*
X164369200Y-109279800D01*
D36*
X170636560Y-99631640D02*
X170653100Y-99615100D01*
D38*
X170636560Y-100907960D02*
X170636560Y-99631640D01*
X170830900Y-104060100D02*
X170830900Y-102790760D01*
X171210920Y-102790760D02*
X170830900Y-102790760D01*
X170830900Y-102790760D02*
X170410920Y-102790760D01*
D36*
X179200200Y-111790560D02*
X179210360Y-111780400D01*
D38*
X179200200Y-113000900D02*
X179200200Y-111790560D01*
D36*
X176893160Y-111290760D02*
X176952300Y-111349900D01*
D38*
X176010920Y-111290760D02*
X176893160Y-111290760D01*
D36*
X182921300Y-100111700D02*
X182950480Y-100140880D01*
D38*
X182921300Y-98967400D02*
X182921300Y-100111700D01*
D36*
X178012720Y-95411400D02*
X178021640Y-95420320D01*
D38*
X176812600Y-95411400D02*
X178012720Y-95411400D01*
X182083100Y-96650200D02*
X181585300Y-97148000D01*
X182083100Y-95881300D02*
X182083100Y-96650200D01*
D37*
G04 #@! TO.N,+5V*
X170994655Y-77071300D02*
X173457300Y-77071300D01*
X168831000Y-80861300D02*
X168831000Y-79234955D01*
X168831000Y-79234955D02*
X170994655Y-77071300D01*
D36*
X177548300Y-77161800D02*
X177457800Y-77071300D01*
D37*
X179693000Y-77161800D02*
X177548300Y-77161800D01*
D36*
X156212000Y-110726300D02*
X156339000Y-110599300D01*
X155849000Y-110671400D02*
X155794100Y-110726300D01*
D38*
X155849000Y-107074300D02*
X155849000Y-110671400D01*
X154326000Y-110726300D02*
X155794100Y-110726300D01*
D36*
X155794100Y-110726300D02*
X156212000Y-110726300D01*
X177457800Y-77071300D02*
X174714600Y-77071300D01*
X173457300Y-77071300D02*
X174714600Y-77071300D01*
D37*
X168831000Y-82487645D02*
X168831000Y-80861300D01*
X168831000Y-85796700D02*
X168831000Y-82487645D01*
X174907700Y-91873400D02*
X168831000Y-85796700D01*
X175707700Y-91873400D02*
X174907700Y-91873400D01*
D36*
X162842600Y-95523600D02*
X162624200Y-95305200D01*
D38*
X162842600Y-96465500D02*
X162842600Y-95523600D01*
D36*
G04 #@! TO.N,+3V3*
X173310800Y-80950000D02*
X173252500Y-81008300D01*
D37*
X173310800Y-78571300D02*
X173310800Y-80950000D01*
D38*
X163725500Y-117508100D02*
X163246500Y-117987100D01*
X164938100Y-117508100D02*
X163725500Y-117508100D01*
D36*
X177650560Y-110030400D02*
X177460920Y-109840760D01*
D38*
X179210360Y-110030400D02*
X177650560Y-110030400D01*
X181200480Y-101775400D02*
X182253280Y-102828200D01*
X181200480Y-100140880D02*
X181200480Y-101775400D01*
D36*
X168960920Y-100982320D02*
X168886560Y-100907960D01*
D38*
X168960920Y-104240760D02*
X168960920Y-100982320D01*
X167958240Y-107440760D02*
X166119200Y-109279800D01*
X168960920Y-107440760D02*
X167958240Y-107440760D01*
D36*
X173252500Y-83507400D02*
X173332800Y-83587700D01*
D37*
X173252500Y-81008300D02*
X173252500Y-83507400D01*
D36*
X164939400Y-117509400D02*
X164938100Y-117508100D01*
D38*
X166208100Y-117509400D02*
X164939400Y-117509400D01*
D36*
X179212900Y-110027860D02*
X179210360Y-110030400D01*
D38*
X179212900Y-108822600D02*
X179212900Y-110027860D01*
X166119200Y-109854800D02*
X165360700Y-110613300D01*
X166119200Y-109279800D02*
X166119200Y-109854800D01*
X162207600Y-110613300D02*
X160442300Y-108848000D01*
X160442300Y-108848000D02*
X160442300Y-106295300D01*
X160851240Y-105886360D02*
X162466680Y-105886360D01*
X160442300Y-106295300D02*
X160851240Y-105886360D01*
D36*
X163769700Y-110651400D02*
X163807800Y-110613300D01*
D38*
X163769700Y-111362600D02*
X163769700Y-110651400D01*
X165360700Y-110613300D02*
X163807800Y-110613300D01*
X163807800Y-110613300D02*
X162207600Y-110613300D01*
D36*
X168951300Y-100843220D02*
X168886560Y-100907960D01*
D38*
X168951300Y-99615100D02*
X168951300Y-100843220D01*
D36*
X181182700Y-100123100D02*
X181200480Y-100140880D01*
D38*
X179924100Y-100123100D02*
X181182700Y-100123100D01*
D36*
G04 #@! TO.N,Net-(C9-Pad1)*
X155994700Y-113266300D02*
X156314800Y-113586400D01*
D38*
X154326000Y-113266300D02*
X155994700Y-113266300D01*
G04 #@! TO.N,Net-(C10-Pad1)*
X158003900Y-113988900D02*
X159616800Y-113988900D01*
X159616800Y-115745400D02*
X159616800Y-113988900D01*
D36*
X159658500Y-115787100D02*
X159616800Y-115745400D01*
D38*
X161346500Y-115787100D02*
X159658500Y-115787100D01*
G04 #@! TO.N,Net-(D1-Pad1)*
X163574200Y-93305200D02*
X166307200Y-93305200D01*
X163574200Y-93255200D02*
X162364900Y-92045900D01*
D36*
X163574200Y-93305200D02*
X163574200Y-93255200D01*
D38*
X158877400Y-92045900D02*
X155849000Y-95074300D01*
X162364900Y-92045900D02*
X158877400Y-92045900D01*
D36*
G04 #@! TO.N,/PANEL_BUT*
X180773802Y-87283400D02*
X180762621Y-87272219D01*
D38*
X182121200Y-87283400D02*
X180773802Y-87283400D01*
X176010920Y-101940760D02*
X179709281Y-98242399D01*
X176010920Y-102790760D02*
X176010920Y-101940760D01*
X179709281Y-98242399D02*
X182503301Y-98242399D01*
X182503301Y-98242399D02*
X183213400Y-97532300D01*
X183213400Y-97532300D02*
X183213400Y-88375600D01*
X183213400Y-88375600D02*
X182121200Y-87283400D01*
D36*
G04 #@! TO.N,Net-(J1-Pad3)*
X180751440Y-89823400D02*
X180762621Y-89812219D01*
D37*
X175707700Y-89823400D02*
X180751440Y-89823400D01*
D36*
G04 #@! TO.N,Net-(J1-Pad4)*
X180749600Y-92365240D02*
X180762621Y-92352219D01*
D38*
X180749600Y-95224200D02*
X180749600Y-92365240D01*
D36*
G04 #@! TO.N,/nRST*
X165253080Y-106640760D02*
X165199720Y-106587400D01*
D38*
X168960920Y-106640760D02*
X165253080Y-106640760D01*
X164150760Y-107636360D02*
X165199720Y-106587400D01*
X162466680Y-107636360D02*
X164150760Y-107636360D01*
X165965899Y-113838199D02*
X165446100Y-113318400D01*
X182253280Y-112988200D02*
X181403281Y-113838199D01*
X181403281Y-113838199D02*
X165965899Y-113838199D01*
G04 #@! TO.N,/SWCLK*
X177460920Y-104240760D02*
X179482460Y-104240760D01*
X180609900Y-105368200D02*
X182253280Y-105368200D01*
X179482460Y-104240760D02*
X180609900Y-105368200D01*
G04 #@! TO.N,/SWDIO*
X178310920Y-105040760D02*
X180444800Y-107174640D01*
X177460920Y-105040760D02*
X178310920Y-105040760D01*
X180444800Y-108639720D02*
X182253280Y-110448200D01*
X180444800Y-107174640D02*
X180444800Y-108639720D01*
D36*
G04 #@! TO.N,/PANEL_LED*
X179745720Y-97170320D02*
X179799600Y-97224200D01*
D38*
X178021640Y-97170320D02*
X179745720Y-97170320D01*
X175210920Y-99981040D02*
X178021640Y-97170320D01*
X175210920Y-102790760D02*
X175210920Y-99981040D01*
D36*
G04 #@! TO.N,Net-(Q2-Pad1)*
X165420700Y-95368700D02*
X165357200Y-95305200D01*
D38*
X165420700Y-96897300D02*
X165420700Y-95368700D01*
X165420700Y-97468800D02*
X167313000Y-99361100D01*
X165420700Y-96897300D02*
X165420700Y-97472300D01*
X167313000Y-99364600D02*
X167313000Y-104568100D01*
X167785660Y-105040760D02*
X168960920Y-105040760D01*
X167313000Y-104568100D02*
X167785660Y-105040760D01*
D36*
G04 #@! TO.N,Net-(R5-Pad2)*
X157671100Y-111996300D02*
X158003900Y-112329100D01*
D38*
X154326000Y-111996300D02*
X157671100Y-111996300D01*
D36*
G04 #@! TO.N,/CURR_ADC*
X161346500Y-117207100D02*
X161641100Y-116912500D01*
X161346500Y-117987100D02*
X161346500Y-117207100D01*
X161641100Y-116912500D02*
X162995000Y-116912500D01*
X163246500Y-116661000D02*
X163246500Y-115787100D01*
X162995000Y-116912500D02*
X163246500Y-116661000D01*
D38*
X168110920Y-109040760D02*
X167490800Y-109660880D01*
X168960920Y-109040760D02*
X168110920Y-109040760D01*
D36*
X167490800Y-109660880D02*
X167490720Y-109660880D01*
D38*
X163246500Y-113905100D02*
X163246500Y-115787100D01*
X167490720Y-109660880D02*
X163246500Y-113905100D01*
D39*
G04 #@! TO.N,/HV_L_F*
X134648000Y-82278300D02*
X140831000Y-88461300D01*
X130544000Y-82278300D02*
X134648000Y-82278300D01*
X140831000Y-92256300D02*
X143649000Y-95074300D01*
X140831000Y-88461300D02*
X140831000Y-92256300D01*
D40*
G04 #@! TO.N,/HV_L*
X130403000Y-72259300D02*
X130544000Y-72118300D01*
D39*
X119383200Y-72259300D02*
X130403000Y-72259300D01*
G04 #@! TO.N,/HV_N*
X140831000Y-76261300D02*
X140831000Y-73261300D01*
X139753000Y-77339300D02*
X140831000Y-76261300D01*
X119383200Y-77339300D02*
X139753000Y-77339300D01*
G04 #@! TO.N,/HV_LOAD*
X119383200Y-82419300D02*
X119383200Y-95462200D01*
X137810900Y-113889900D02*
X148926000Y-113889900D01*
X119383200Y-95462200D02*
X137810900Y-113889900D01*
D41*
X148926000Y-114536300D02*
X148926000Y-113889900D01*
X148926000Y-113889900D02*
X148926000Y-113266300D01*
D39*
G04 #@! TO.N,/HV_ROUT*
X148926000Y-105293350D02*
X148926000Y-111184800D01*
X153145050Y-101074300D02*
X148926000Y-105293350D01*
X157849000Y-101074300D02*
X153145050Y-101074300D01*
D41*
X148926000Y-111996300D02*
X148926000Y-111184800D01*
X148926000Y-111184800D02*
X148926000Y-110726300D01*
G04 #@! TD*
D42*
G04 #@! TO.N,GND*
G36*
X183873000Y-99165375D02*
X183835178Y-99127553D01*
X183601789Y-99030880D01*
X183236230Y-99030880D01*
X183077480Y-99189630D01*
X183077480Y-100013880D01*
X183097480Y-100013880D01*
X183097480Y-100267880D01*
X183077480Y-100267880D01*
X183077480Y-101092130D01*
X183236230Y-101250880D01*
X183601789Y-101250880D01*
X183835178Y-101154207D01*
X183873000Y-101116385D01*
X183873000Y-118873000D01*
X176000000Y-118873000D01*
X175951399Y-118882667D01*
X175910197Y-118910197D01*
X175882667Y-118951399D01*
X175873000Y-119000000D01*
X175873000Y-126873000D01*
X153127000Y-126873000D01*
X153127000Y-117781150D01*
X158506800Y-117781150D01*
X158506800Y-118146709D01*
X158603473Y-118380098D01*
X158782101Y-118558727D01*
X159015490Y-118655400D01*
X159331050Y-118655400D01*
X159489800Y-118496650D01*
X159489800Y-117622400D01*
X158665550Y-117622400D01*
X158506800Y-117781150D01*
X153127000Y-117781150D01*
X153127000Y-115310325D01*
X153191302Y-115374627D01*
X153424691Y-115471300D01*
X154040250Y-115471300D01*
X154199000Y-115312550D01*
X154199000Y-114663300D01*
X154179000Y-114663300D01*
X154179000Y-114409300D01*
X154199000Y-114409300D01*
X154199000Y-114389300D01*
X154453000Y-114389300D01*
X154453000Y-114409300D01*
X154473000Y-114409300D01*
X154473000Y-114663300D01*
X154453000Y-114663300D01*
X154453000Y-115312550D01*
X154611750Y-115471300D01*
X155204800Y-115471300D01*
X155204800Y-115795909D01*
X155301473Y-116029298D01*
X155480101Y-116207927D01*
X155713490Y-116304600D01*
X156029050Y-116304600D01*
X156187800Y-116145850D01*
X156187800Y-115271600D01*
X156441800Y-115271600D01*
X156441800Y-116145850D01*
X156600550Y-116304600D01*
X156916110Y-116304600D01*
X157149499Y-116207927D01*
X157328127Y-116029298D01*
X157424800Y-115795909D01*
X157424800Y-115430350D01*
X157266050Y-115271600D01*
X156441800Y-115271600D01*
X156187800Y-115271600D01*
X156167800Y-115271600D01*
X156167800Y-115017600D01*
X156187800Y-115017600D01*
X156187800Y-114997600D01*
X156441800Y-114997600D01*
X156441800Y-115017600D01*
X157266050Y-115017600D01*
X157285032Y-114998618D01*
X157427748Y-115093978D01*
X157766400Y-115161340D01*
X158241400Y-115161340D01*
X158578385Y-115094310D01*
X158561722Y-115119248D01*
X158494360Y-115457900D01*
X158494360Y-116032900D01*
X158561722Y-116371552D01*
X158674235Y-116539940D01*
X158603473Y-116610702D01*
X158506800Y-116844091D01*
X158506800Y-117209650D01*
X158665550Y-117368400D01*
X159489800Y-117368400D01*
X159489800Y-117348400D01*
X159743800Y-117348400D01*
X159743800Y-117368400D01*
X159763800Y-117368400D01*
X159763800Y-117622400D01*
X159743800Y-117622400D01*
X159743800Y-118496650D01*
X159902550Y-118655400D01*
X160218110Y-118655400D01*
X160387604Y-118585193D01*
X160423343Y-118764865D01*
X160563691Y-118974909D01*
X160773735Y-119115257D01*
X161021500Y-119164540D01*
X161671500Y-119164540D01*
X161919265Y-119115257D01*
X162129309Y-118974909D01*
X162269657Y-118764865D01*
X162296500Y-118629915D01*
X162323343Y-118764865D01*
X162463691Y-118974909D01*
X162673735Y-119115257D01*
X162921500Y-119164540D01*
X163571500Y-119164540D01*
X163819265Y-119115257D01*
X164029309Y-118974909D01*
X164169657Y-118764865D01*
X164218848Y-118517562D01*
X164361948Y-118613178D01*
X164700600Y-118680540D01*
X165175600Y-118680540D01*
X165514252Y-118613178D01*
X165764534Y-118445945D01*
X166002226Y-118544400D01*
X166413974Y-118544400D01*
X166794380Y-118386831D01*
X167085531Y-118095680D01*
X167243100Y-117715274D01*
X167243100Y-117303526D01*
X167085531Y-116923120D01*
X166794380Y-116631969D01*
X166413974Y-116474400D01*
X166021180Y-116474400D01*
X166048100Y-116409409D01*
X166048100Y-116043850D01*
X165889350Y-115885100D01*
X165065100Y-115885100D01*
X165065100Y-115905100D01*
X164811100Y-115905100D01*
X164811100Y-115885100D01*
X164791100Y-115885100D01*
X164791100Y-115631100D01*
X164811100Y-115631100D01*
X164811100Y-114756850D01*
X164652350Y-114598100D01*
X164336790Y-114598100D01*
X164131500Y-114683134D01*
X164131500Y-114271678D01*
X164548116Y-113855062D01*
X164568669Y-113904680D01*
X164859820Y-114195831D01*
X165221953Y-114345831D01*
X165278474Y-114402352D01*
X165327850Y-114476248D01*
X165510213Y-114598100D01*
X165223850Y-114598100D01*
X165065100Y-114756850D01*
X165065100Y-115631100D01*
X165889350Y-115631100D01*
X166048100Y-115472350D01*
X166048100Y-115106791D01*
X165951427Y-114873402D01*
X165781979Y-114703953D01*
X165878734Y-114723199D01*
X165878738Y-114723199D01*
X165965899Y-114740536D01*
X166053060Y-114723199D01*
X181005171Y-114723199D01*
X180854441Y-114948782D01*
X180739188Y-115528200D01*
X180854441Y-116107618D01*
X181182655Y-116598825D01*
X181673862Y-116927039D01*
X182107024Y-117013200D01*
X182399536Y-117013200D01*
X182832698Y-116927039D01*
X183323905Y-116598825D01*
X183652119Y-116107618D01*
X183767372Y-115528200D01*
X183652119Y-114948782D01*
X183323905Y-114457575D01*
X183025519Y-114258200D01*
X183323905Y-114058825D01*
X183652119Y-113567618D01*
X183767372Y-112988200D01*
X183652119Y-112408782D01*
X183323905Y-111917575D01*
X183025519Y-111718200D01*
X183323905Y-111518825D01*
X183652119Y-111027618D01*
X183767372Y-110448200D01*
X183652119Y-109868782D01*
X183323905Y-109377575D01*
X183004802Y-109164357D01*
X183134638Y-109103383D01*
X183524925Y-108675124D01*
X183694756Y-108265090D01*
X183573435Y-108035200D01*
X182380280Y-108035200D01*
X182380280Y-108055200D01*
X182126280Y-108055200D01*
X182126280Y-108035200D01*
X182106280Y-108035200D01*
X182106280Y-107781200D01*
X182126280Y-107781200D01*
X182126280Y-107761200D01*
X182380280Y-107761200D01*
X182380280Y-107781200D01*
X183573435Y-107781200D01*
X183694756Y-107551310D01*
X183524925Y-107141276D01*
X183134638Y-106713017D01*
X183004802Y-106652043D01*
X183323905Y-106438825D01*
X183652119Y-105947618D01*
X183767372Y-105368200D01*
X183652119Y-104788782D01*
X183323905Y-104297575D01*
X183305661Y-104285384D01*
X183351045Y-104276357D01*
X183561089Y-104136009D01*
X183701437Y-103925965D01*
X183750720Y-103678200D01*
X183750720Y-101978200D01*
X183701437Y-101730435D01*
X183561089Y-101520391D01*
X183351045Y-101380043D01*
X183103280Y-101330760D01*
X182085480Y-101330760D01*
X182085480Y-101162366D01*
X182299171Y-101250880D01*
X182664730Y-101250880D01*
X182823480Y-101092130D01*
X182823480Y-100267880D01*
X182803480Y-100267880D01*
X182803480Y-100013880D01*
X182823480Y-100013880D01*
X182823480Y-99189630D01*
X182732914Y-99099064D01*
X182848611Y-99076051D01*
X183141350Y-98880448D01*
X183190726Y-98806552D01*
X183777556Y-98219723D01*
X183851449Y-98170349D01*
X183873000Y-98138096D01*
X183873000Y-99165375D01*
X183873000Y-99165375D01*
G37*
X183873000Y-99165375D02*
X183835178Y-99127553D01*
X183601789Y-99030880D01*
X183236230Y-99030880D01*
X183077480Y-99189630D01*
X183077480Y-100013880D01*
X183097480Y-100013880D01*
X183097480Y-100267880D01*
X183077480Y-100267880D01*
X183077480Y-101092130D01*
X183236230Y-101250880D01*
X183601789Y-101250880D01*
X183835178Y-101154207D01*
X183873000Y-101116385D01*
X183873000Y-118873000D01*
X176000000Y-118873000D01*
X175951399Y-118882667D01*
X175910197Y-118910197D01*
X175882667Y-118951399D01*
X175873000Y-119000000D01*
X175873000Y-126873000D01*
X153127000Y-126873000D01*
X153127000Y-117781150D01*
X158506800Y-117781150D01*
X158506800Y-118146709D01*
X158603473Y-118380098D01*
X158782101Y-118558727D01*
X159015490Y-118655400D01*
X159331050Y-118655400D01*
X159489800Y-118496650D01*
X159489800Y-117622400D01*
X158665550Y-117622400D01*
X158506800Y-117781150D01*
X153127000Y-117781150D01*
X153127000Y-115310325D01*
X153191302Y-115374627D01*
X153424691Y-115471300D01*
X154040250Y-115471300D01*
X154199000Y-115312550D01*
X154199000Y-114663300D01*
X154179000Y-114663300D01*
X154179000Y-114409300D01*
X154199000Y-114409300D01*
X154199000Y-114389300D01*
X154453000Y-114389300D01*
X154453000Y-114409300D01*
X154473000Y-114409300D01*
X154473000Y-114663300D01*
X154453000Y-114663300D01*
X154453000Y-115312550D01*
X154611750Y-115471300D01*
X155204800Y-115471300D01*
X155204800Y-115795909D01*
X155301473Y-116029298D01*
X155480101Y-116207927D01*
X155713490Y-116304600D01*
X156029050Y-116304600D01*
X156187800Y-116145850D01*
X156187800Y-115271600D01*
X156441800Y-115271600D01*
X156441800Y-116145850D01*
X156600550Y-116304600D01*
X156916110Y-116304600D01*
X157149499Y-116207927D01*
X157328127Y-116029298D01*
X157424800Y-115795909D01*
X157424800Y-115430350D01*
X157266050Y-115271600D01*
X156441800Y-115271600D01*
X156187800Y-115271600D01*
X156167800Y-115271600D01*
X156167800Y-115017600D01*
X156187800Y-115017600D01*
X156187800Y-114997600D01*
X156441800Y-114997600D01*
X156441800Y-115017600D01*
X157266050Y-115017600D01*
X157285032Y-114998618D01*
X157427748Y-115093978D01*
X157766400Y-115161340D01*
X158241400Y-115161340D01*
X158578385Y-115094310D01*
X158561722Y-115119248D01*
X158494360Y-115457900D01*
X158494360Y-116032900D01*
X158561722Y-116371552D01*
X158674235Y-116539940D01*
X158603473Y-116610702D01*
X158506800Y-116844091D01*
X158506800Y-117209650D01*
X158665550Y-117368400D01*
X159489800Y-117368400D01*
X159489800Y-117348400D01*
X159743800Y-117348400D01*
X159743800Y-117368400D01*
X159763800Y-117368400D01*
X159763800Y-117622400D01*
X159743800Y-117622400D01*
X159743800Y-118496650D01*
X159902550Y-118655400D01*
X160218110Y-118655400D01*
X160387604Y-118585193D01*
X160423343Y-118764865D01*
X160563691Y-118974909D01*
X160773735Y-119115257D01*
X161021500Y-119164540D01*
X161671500Y-119164540D01*
X161919265Y-119115257D01*
X162129309Y-118974909D01*
X162269657Y-118764865D01*
X162296500Y-118629915D01*
X162323343Y-118764865D01*
X162463691Y-118974909D01*
X162673735Y-119115257D01*
X162921500Y-119164540D01*
X163571500Y-119164540D01*
X163819265Y-119115257D01*
X164029309Y-118974909D01*
X164169657Y-118764865D01*
X164218848Y-118517562D01*
X164361948Y-118613178D01*
X164700600Y-118680540D01*
X165175600Y-118680540D01*
X165514252Y-118613178D01*
X165764534Y-118445945D01*
X166002226Y-118544400D01*
X166413974Y-118544400D01*
X166794380Y-118386831D01*
X167085531Y-118095680D01*
X167243100Y-117715274D01*
X167243100Y-117303526D01*
X167085531Y-116923120D01*
X166794380Y-116631969D01*
X166413974Y-116474400D01*
X166021180Y-116474400D01*
X166048100Y-116409409D01*
X166048100Y-116043850D01*
X165889350Y-115885100D01*
X165065100Y-115885100D01*
X165065100Y-115905100D01*
X164811100Y-115905100D01*
X164811100Y-115885100D01*
X164791100Y-115885100D01*
X164791100Y-115631100D01*
X164811100Y-115631100D01*
X164811100Y-114756850D01*
X164652350Y-114598100D01*
X164336790Y-114598100D01*
X164131500Y-114683134D01*
X164131500Y-114271678D01*
X164548116Y-113855062D01*
X164568669Y-113904680D01*
X164859820Y-114195831D01*
X165221953Y-114345831D01*
X165278474Y-114402352D01*
X165327850Y-114476248D01*
X165510213Y-114598100D01*
X165223850Y-114598100D01*
X165065100Y-114756850D01*
X165065100Y-115631100D01*
X165889350Y-115631100D01*
X166048100Y-115472350D01*
X166048100Y-115106791D01*
X165951427Y-114873402D01*
X165781979Y-114703953D01*
X165878734Y-114723199D01*
X165878738Y-114723199D01*
X165965899Y-114740536D01*
X166053060Y-114723199D01*
X181005171Y-114723199D01*
X180854441Y-114948782D01*
X180739188Y-115528200D01*
X180854441Y-116107618D01*
X181182655Y-116598825D01*
X181673862Y-116927039D01*
X182107024Y-117013200D01*
X182399536Y-117013200D01*
X182832698Y-116927039D01*
X183323905Y-116598825D01*
X183652119Y-116107618D01*
X183767372Y-115528200D01*
X183652119Y-114948782D01*
X183323905Y-114457575D01*
X183025519Y-114258200D01*
X183323905Y-114058825D01*
X183652119Y-113567618D01*
X183767372Y-112988200D01*
X183652119Y-112408782D01*
X183323905Y-111917575D01*
X183025519Y-111718200D01*
X183323905Y-111518825D01*
X183652119Y-111027618D01*
X183767372Y-110448200D01*
X183652119Y-109868782D01*
X183323905Y-109377575D01*
X183004802Y-109164357D01*
X183134638Y-109103383D01*
X183524925Y-108675124D01*
X183694756Y-108265090D01*
X183573435Y-108035200D01*
X182380280Y-108035200D01*
X182380280Y-108055200D01*
X182126280Y-108055200D01*
X182126280Y-108035200D01*
X182106280Y-108035200D01*
X182106280Y-107781200D01*
X182126280Y-107781200D01*
X182126280Y-107761200D01*
X182380280Y-107761200D01*
X182380280Y-107781200D01*
X183573435Y-107781200D01*
X183694756Y-107551310D01*
X183524925Y-107141276D01*
X183134638Y-106713017D01*
X183004802Y-106652043D01*
X183323905Y-106438825D01*
X183652119Y-105947618D01*
X183767372Y-105368200D01*
X183652119Y-104788782D01*
X183323905Y-104297575D01*
X183305661Y-104285384D01*
X183351045Y-104276357D01*
X183561089Y-104136009D01*
X183701437Y-103925965D01*
X183750720Y-103678200D01*
X183750720Y-101978200D01*
X183701437Y-101730435D01*
X183561089Y-101520391D01*
X183351045Y-101380043D01*
X183103280Y-101330760D01*
X182085480Y-101330760D01*
X182085480Y-101162366D01*
X182299171Y-101250880D01*
X182664730Y-101250880D01*
X182823480Y-101092130D01*
X182823480Y-100267880D01*
X182803480Y-100267880D01*
X182803480Y-100013880D01*
X182823480Y-100013880D01*
X182823480Y-99189630D01*
X182732914Y-99099064D01*
X182848611Y-99076051D01*
X183141350Y-98880448D01*
X183190726Y-98806552D01*
X183777556Y-98219723D01*
X183851449Y-98170349D01*
X183873000Y-98138096D01*
X183873000Y-99165375D01*
G36*
X160213191Y-105248311D02*
X160163815Y-105322207D01*
X159878145Y-105607877D01*
X159804252Y-105657251D01*
X159754878Y-105731144D01*
X159754876Y-105731146D01*
X159608648Y-105949991D01*
X159539963Y-106295300D01*
X159557301Y-106382465D01*
X159557300Y-108760839D01*
X159539963Y-108848000D01*
X159557300Y-108935161D01*
X159557300Y-108935164D01*
X159608648Y-109193309D01*
X159804251Y-109486049D01*
X159878147Y-109535425D01*
X161520177Y-111177456D01*
X161569551Y-111251349D01*
X161643444Y-111300723D01*
X161643445Y-111300724D01*
X161743087Y-111367303D01*
X161862290Y-111446952D01*
X162120435Y-111498300D01*
X162120439Y-111498300D01*
X162207599Y-111515637D01*
X162294759Y-111498300D01*
X162734700Y-111498300D01*
X162734700Y-111568474D01*
X162892269Y-111948880D01*
X163183420Y-112240031D01*
X163520407Y-112379615D01*
X162682347Y-113217675D01*
X162608451Y-113267051D01*
X162412848Y-113559791D01*
X162361500Y-113817936D01*
X162361500Y-113817939D01*
X162344163Y-113905100D01*
X162361500Y-113992261D01*
X162361501Y-114952229D01*
X162323343Y-115009335D01*
X162296500Y-115144285D01*
X162269657Y-115009335D01*
X162169500Y-114859441D01*
X162169500Y-114780850D01*
X162010750Y-114622100D01*
X161845190Y-114622100D01*
X161809131Y-114637036D01*
X161671500Y-114609660D01*
X161021500Y-114609660D01*
X160773735Y-114658943D01*
X160563691Y-114799291D01*
X160510890Y-114878313D01*
X160503431Y-114867150D01*
X160671878Y-114615052D01*
X160739240Y-114276400D01*
X160739240Y-113701400D01*
X160671878Y-113362748D01*
X160559365Y-113194360D01*
X160630127Y-113123598D01*
X160726800Y-112890209D01*
X160726800Y-112524650D01*
X160568050Y-112365900D01*
X159743800Y-112365900D01*
X159743800Y-112385900D01*
X159489800Y-112385900D01*
X159489800Y-112365900D01*
X159469800Y-112365900D01*
X159469800Y-112111900D01*
X159489800Y-112111900D01*
X159489800Y-111237650D01*
X159743800Y-111237650D01*
X159743800Y-112111900D01*
X160568050Y-112111900D01*
X160726800Y-111953150D01*
X160726800Y-111587591D01*
X160630127Y-111354202D01*
X160451499Y-111175573D01*
X160218110Y-111078900D01*
X159902550Y-111078900D01*
X159743800Y-111237650D01*
X159489800Y-111237650D01*
X159331050Y-111078900D01*
X159249000Y-111078900D01*
X159249000Y-110885050D01*
X159090250Y-110726300D01*
X158216000Y-110726300D01*
X158216000Y-110746300D01*
X157962000Y-110746300D01*
X157962000Y-110726300D01*
X157942000Y-110726300D01*
X157942000Y-110472300D01*
X157962000Y-110472300D01*
X157962000Y-109648050D01*
X158216000Y-109648050D01*
X158216000Y-110472300D01*
X159090250Y-110472300D01*
X159249000Y-110313550D01*
X159249000Y-109997990D01*
X159152327Y-109764601D01*
X158973698Y-109585973D01*
X158740309Y-109489300D01*
X158374750Y-109489300D01*
X158216000Y-109648050D01*
X157962000Y-109648050D01*
X157803250Y-109489300D01*
X157437691Y-109489300D01*
X157204302Y-109585973D01*
X157133540Y-109656735D01*
X156965152Y-109544222D01*
X156734000Y-109498243D01*
X156734000Y-108750032D01*
X157208009Y-108433309D01*
X157624631Y-107809790D01*
X157770929Y-107074300D01*
X157624631Y-106338810D01*
X157208009Y-105715291D01*
X156584490Y-105298669D01*
X156138721Y-105210000D01*
X160270527Y-105210000D01*
X160213191Y-105248311D01*
X160213191Y-105248311D01*
G37*
X160213191Y-105248311D02*
X160163815Y-105322207D01*
X159878145Y-105607877D01*
X159804252Y-105657251D01*
X159754878Y-105731144D01*
X159754876Y-105731146D01*
X159608648Y-105949991D01*
X159539963Y-106295300D01*
X159557301Y-106382465D01*
X159557300Y-108760839D01*
X159539963Y-108848000D01*
X159557300Y-108935161D01*
X159557300Y-108935164D01*
X159608648Y-109193309D01*
X159804251Y-109486049D01*
X159878147Y-109535425D01*
X161520177Y-111177456D01*
X161569551Y-111251349D01*
X161643444Y-111300723D01*
X161643445Y-111300724D01*
X161743087Y-111367303D01*
X161862290Y-111446952D01*
X162120435Y-111498300D01*
X162120439Y-111498300D01*
X162207599Y-111515637D01*
X162294759Y-111498300D01*
X162734700Y-111498300D01*
X162734700Y-111568474D01*
X162892269Y-111948880D01*
X163183420Y-112240031D01*
X163520407Y-112379615D01*
X162682347Y-113217675D01*
X162608451Y-113267051D01*
X162412848Y-113559791D01*
X162361500Y-113817936D01*
X162361500Y-113817939D01*
X162344163Y-113905100D01*
X162361500Y-113992261D01*
X162361501Y-114952229D01*
X162323343Y-115009335D01*
X162296500Y-115144285D01*
X162269657Y-115009335D01*
X162169500Y-114859441D01*
X162169500Y-114780850D01*
X162010750Y-114622100D01*
X161845190Y-114622100D01*
X161809131Y-114637036D01*
X161671500Y-114609660D01*
X161021500Y-114609660D01*
X160773735Y-114658943D01*
X160563691Y-114799291D01*
X160510890Y-114878313D01*
X160503431Y-114867150D01*
X160671878Y-114615052D01*
X160739240Y-114276400D01*
X160739240Y-113701400D01*
X160671878Y-113362748D01*
X160559365Y-113194360D01*
X160630127Y-113123598D01*
X160726800Y-112890209D01*
X160726800Y-112524650D01*
X160568050Y-112365900D01*
X159743800Y-112365900D01*
X159743800Y-112385900D01*
X159489800Y-112385900D01*
X159489800Y-112365900D01*
X159469800Y-112365900D01*
X159469800Y-112111900D01*
X159489800Y-112111900D01*
X159489800Y-111237650D01*
X159743800Y-111237650D01*
X159743800Y-112111900D01*
X160568050Y-112111900D01*
X160726800Y-111953150D01*
X160726800Y-111587591D01*
X160630127Y-111354202D01*
X160451499Y-111175573D01*
X160218110Y-111078900D01*
X159902550Y-111078900D01*
X159743800Y-111237650D01*
X159489800Y-111237650D01*
X159331050Y-111078900D01*
X159249000Y-111078900D01*
X159249000Y-110885050D01*
X159090250Y-110726300D01*
X158216000Y-110726300D01*
X158216000Y-110746300D01*
X157962000Y-110746300D01*
X157962000Y-110726300D01*
X157942000Y-110726300D01*
X157942000Y-110472300D01*
X157962000Y-110472300D01*
X157962000Y-109648050D01*
X158216000Y-109648050D01*
X158216000Y-110472300D01*
X159090250Y-110472300D01*
X159249000Y-110313550D01*
X159249000Y-109997990D01*
X159152327Y-109764601D01*
X158973698Y-109585973D01*
X158740309Y-109489300D01*
X158374750Y-109489300D01*
X158216000Y-109648050D01*
X157962000Y-109648050D01*
X157803250Y-109489300D01*
X157437691Y-109489300D01*
X157204302Y-109585973D01*
X157133540Y-109656735D01*
X156965152Y-109544222D01*
X156734000Y-109498243D01*
X156734000Y-108750032D01*
X157208009Y-108433309D01*
X157624631Y-107809790D01*
X157770929Y-107074300D01*
X157624631Y-106338810D01*
X157208009Y-105715291D01*
X156584490Y-105298669D01*
X156138721Y-105210000D01*
X160270527Y-105210000D01*
X160213191Y-105248311D01*
G36*
X180782742Y-110229240D02*
X180739188Y-110448200D01*
X180854441Y-111027618D01*
X181182655Y-111518825D01*
X181481041Y-111718200D01*
X181182655Y-111917575D01*
X180854441Y-112408782D01*
X180746150Y-112953199D01*
X166415105Y-112953199D01*
X166323531Y-112732120D01*
X166032380Y-112440969D01*
X165982762Y-112420417D01*
X167863657Y-110539522D01*
X167903111Y-110598569D01*
X168113155Y-110738917D01*
X168360920Y-110788200D01*
X169463480Y-110788200D01*
X169463480Y-111890760D01*
X169512763Y-112138525D01*
X169653111Y-112348569D01*
X169863155Y-112488917D01*
X170110920Y-112538200D01*
X170710920Y-112538200D01*
X170810920Y-112518309D01*
X170910920Y-112538200D01*
X171510920Y-112538200D01*
X171610920Y-112518309D01*
X171710920Y-112538200D01*
X172310920Y-112538200D01*
X172410920Y-112518309D01*
X172510920Y-112538200D01*
X173110920Y-112538200D01*
X173210920Y-112518309D01*
X173310920Y-112538200D01*
X173910920Y-112538200D01*
X174010920Y-112518309D01*
X174110920Y-112538200D01*
X174710920Y-112538200D01*
X174810920Y-112518309D01*
X174910920Y-112538200D01*
X175510920Y-112538200D01*
X175580993Y-112524262D01*
X175584610Y-112525760D01*
X175725170Y-112525760D01*
X175768715Y-112482215D01*
X175968729Y-112348569D01*
X176109077Y-112138525D01*
X176137920Y-111993520D01*
X176137920Y-112367010D01*
X176296670Y-112525760D01*
X176437230Y-112525760D01*
X176670619Y-112429087D01*
X176849247Y-112250458D01*
X176925589Y-112066150D01*
X178100360Y-112066150D01*
X178100360Y-112431709D01*
X178197033Y-112665098D01*
X178375661Y-112843727D01*
X178609050Y-112940400D01*
X178924610Y-112940400D01*
X179083360Y-112781650D01*
X179083360Y-111907400D01*
X179337360Y-111907400D01*
X179337360Y-112781650D01*
X179496110Y-112940400D01*
X179811670Y-112940400D01*
X180045059Y-112843727D01*
X180223687Y-112665098D01*
X180320360Y-112431709D01*
X180320360Y-112066150D01*
X180161610Y-111907400D01*
X179337360Y-111907400D01*
X179083360Y-111907400D01*
X178259110Y-111907400D01*
X178100360Y-112066150D01*
X176925589Y-112066150D01*
X176945920Y-112017069D01*
X176945920Y-111576510D01*
X176787170Y-111417760D01*
X176158360Y-111417760D01*
X176158360Y-111163760D01*
X176787170Y-111163760D01*
X176945920Y-111005010D01*
X176945920Y-110788200D01*
X177191730Y-110788200D01*
X177305250Y-110864052D01*
X177563395Y-110915400D01*
X178188874Y-110915400D01*
X178100360Y-111129091D01*
X178100360Y-111494650D01*
X178259110Y-111653400D01*
X179083360Y-111653400D01*
X179083360Y-111633400D01*
X179337360Y-111633400D01*
X179337360Y-111653400D01*
X180161610Y-111653400D01*
X180320360Y-111494650D01*
X180320360Y-111129091D01*
X180223687Y-110895702D01*
X180152925Y-110824940D01*
X180265438Y-110656552D01*
X180332800Y-110317900D01*
X180332800Y-109779298D01*
X180782742Y-110229240D01*
X180782742Y-110229240D01*
G37*
X180782742Y-110229240D02*
X180739188Y-110448200D01*
X180854441Y-111027618D01*
X181182655Y-111518825D01*
X181481041Y-111718200D01*
X181182655Y-111917575D01*
X180854441Y-112408782D01*
X180746150Y-112953199D01*
X166415105Y-112953199D01*
X166323531Y-112732120D01*
X166032380Y-112440969D01*
X165982762Y-112420417D01*
X167863657Y-110539522D01*
X167903111Y-110598569D01*
X168113155Y-110738917D01*
X168360920Y-110788200D01*
X169463480Y-110788200D01*
X169463480Y-111890760D01*
X169512763Y-112138525D01*
X169653111Y-112348569D01*
X169863155Y-112488917D01*
X170110920Y-112538200D01*
X170710920Y-112538200D01*
X170810920Y-112518309D01*
X170910920Y-112538200D01*
X171510920Y-112538200D01*
X171610920Y-112518309D01*
X171710920Y-112538200D01*
X172310920Y-112538200D01*
X172410920Y-112518309D01*
X172510920Y-112538200D01*
X173110920Y-112538200D01*
X173210920Y-112518309D01*
X173310920Y-112538200D01*
X173910920Y-112538200D01*
X174010920Y-112518309D01*
X174110920Y-112538200D01*
X174710920Y-112538200D01*
X174810920Y-112518309D01*
X174910920Y-112538200D01*
X175510920Y-112538200D01*
X175580993Y-112524262D01*
X175584610Y-112525760D01*
X175725170Y-112525760D01*
X175768715Y-112482215D01*
X175968729Y-112348569D01*
X176109077Y-112138525D01*
X176137920Y-111993520D01*
X176137920Y-112367010D01*
X176296670Y-112525760D01*
X176437230Y-112525760D01*
X176670619Y-112429087D01*
X176849247Y-112250458D01*
X176925589Y-112066150D01*
X178100360Y-112066150D01*
X178100360Y-112431709D01*
X178197033Y-112665098D01*
X178375661Y-112843727D01*
X178609050Y-112940400D01*
X178924610Y-112940400D01*
X179083360Y-112781650D01*
X179083360Y-111907400D01*
X179337360Y-111907400D01*
X179337360Y-112781650D01*
X179496110Y-112940400D01*
X179811670Y-112940400D01*
X180045059Y-112843727D01*
X180223687Y-112665098D01*
X180320360Y-112431709D01*
X180320360Y-112066150D01*
X180161610Y-111907400D01*
X179337360Y-111907400D01*
X179083360Y-111907400D01*
X178259110Y-111907400D01*
X178100360Y-112066150D01*
X176925589Y-112066150D01*
X176945920Y-112017069D01*
X176945920Y-111576510D01*
X176787170Y-111417760D01*
X176158360Y-111417760D01*
X176158360Y-111163760D01*
X176787170Y-111163760D01*
X176945920Y-111005010D01*
X176945920Y-110788200D01*
X177191730Y-110788200D01*
X177305250Y-110864052D01*
X177563395Y-110915400D01*
X178188874Y-110915400D01*
X178100360Y-111129091D01*
X178100360Y-111494650D01*
X178259110Y-111653400D01*
X179083360Y-111653400D01*
X179083360Y-111633400D01*
X179337360Y-111633400D01*
X179337360Y-111653400D01*
X180161610Y-111653400D01*
X180320360Y-111494650D01*
X180320360Y-111129091D01*
X180223687Y-110895702D01*
X180152925Y-110824940D01*
X180265438Y-110656552D01*
X180332800Y-110317900D01*
X180332800Y-109779298D01*
X180782742Y-110229240D01*
G36*
X170372593Y-103750458D02*
X170551221Y-103929087D01*
X170634487Y-103963577D01*
X170696670Y-104025760D01*
X170925170Y-104025760D01*
X170987353Y-103963577D01*
X171070619Y-103929087D01*
X171212265Y-103787440D01*
X171253111Y-103848569D01*
X171453125Y-103982215D01*
X171496670Y-104025760D01*
X171637230Y-104025760D01*
X171640847Y-104024262D01*
X171710920Y-104038200D01*
X172310920Y-104038200D01*
X172410920Y-104018309D01*
X172510920Y-104038200D01*
X173110920Y-104038200D01*
X173210920Y-104018309D01*
X173310920Y-104038200D01*
X173910920Y-104038200D01*
X174010920Y-104018309D01*
X174110920Y-104038200D01*
X174710920Y-104038200D01*
X174810920Y-104018309D01*
X174910920Y-104038200D01*
X175510920Y-104038200D01*
X175610920Y-104018309D01*
X175710920Y-104038200D01*
X176213480Y-104038200D01*
X176213480Y-104540760D01*
X176233371Y-104640760D01*
X176213480Y-104740760D01*
X176213480Y-105340760D01*
X176233371Y-105440760D01*
X176213480Y-105540760D01*
X176213480Y-106140760D01*
X176233371Y-106240760D01*
X176213480Y-106340760D01*
X176213480Y-106940760D01*
X176233371Y-107040760D01*
X176213480Y-107140760D01*
X176213480Y-107740760D01*
X176233371Y-107840760D01*
X176213480Y-107940760D01*
X176213480Y-108540760D01*
X176233371Y-108640760D01*
X176213480Y-108740760D01*
X176213480Y-109340760D01*
X176233371Y-109440760D01*
X176213480Y-109540760D01*
X176213480Y-110138950D01*
X176137920Y-110214510D01*
X176137920Y-110588000D01*
X176109077Y-110442995D01*
X175968729Y-110232951D01*
X175768715Y-110099305D01*
X175725170Y-110055760D01*
X175584610Y-110055760D01*
X175580993Y-110057258D01*
X175510920Y-110043320D01*
X174910920Y-110043320D01*
X174810920Y-110063211D01*
X174710920Y-110043320D01*
X174110920Y-110043320D01*
X174010920Y-110063211D01*
X173910920Y-110043320D01*
X173310920Y-110043320D01*
X173210920Y-110063211D01*
X173110920Y-110043320D01*
X172510920Y-110043320D01*
X172410920Y-110063211D01*
X172310920Y-110043320D01*
X171710920Y-110043320D01*
X171610920Y-110063211D01*
X171510920Y-110043320D01*
X170910920Y-110043320D01*
X170810920Y-110063211D01*
X170710920Y-110043320D01*
X170208360Y-110043320D01*
X170208360Y-109540760D01*
X170188469Y-109440760D01*
X170208360Y-109340760D01*
X170208360Y-108740760D01*
X170188469Y-108640760D01*
X170208360Y-108540760D01*
X170208360Y-107940760D01*
X170188469Y-107840760D01*
X170208360Y-107740760D01*
X170208360Y-107140760D01*
X170188469Y-107040760D01*
X170208360Y-106940760D01*
X170208360Y-106340760D01*
X170188469Y-106240760D01*
X170208360Y-106140760D01*
X170208360Y-105540760D01*
X170188469Y-105440760D01*
X170208360Y-105340760D01*
X170208360Y-104740760D01*
X170188469Y-104640760D01*
X170208360Y-104540760D01*
X170208360Y-103942570D01*
X170283920Y-103867010D01*
X170283920Y-103536383D01*
X170372593Y-103750458D01*
X170372593Y-103750458D01*
G37*
X170372593Y-103750458D02*
X170551221Y-103929087D01*
X170634487Y-103963577D01*
X170696670Y-104025760D01*
X170925170Y-104025760D01*
X170987353Y-103963577D01*
X171070619Y-103929087D01*
X171212265Y-103787440D01*
X171253111Y-103848569D01*
X171453125Y-103982215D01*
X171496670Y-104025760D01*
X171637230Y-104025760D01*
X171640847Y-104024262D01*
X171710920Y-104038200D01*
X172310920Y-104038200D01*
X172410920Y-104018309D01*
X172510920Y-104038200D01*
X173110920Y-104038200D01*
X173210920Y-104018309D01*
X173310920Y-104038200D01*
X173910920Y-104038200D01*
X174010920Y-104018309D01*
X174110920Y-104038200D01*
X174710920Y-104038200D01*
X174810920Y-104018309D01*
X174910920Y-104038200D01*
X175510920Y-104038200D01*
X175610920Y-104018309D01*
X175710920Y-104038200D01*
X176213480Y-104038200D01*
X176213480Y-104540760D01*
X176233371Y-104640760D01*
X176213480Y-104740760D01*
X176213480Y-105340760D01*
X176233371Y-105440760D01*
X176213480Y-105540760D01*
X176213480Y-106140760D01*
X176233371Y-106240760D01*
X176213480Y-106340760D01*
X176213480Y-106940760D01*
X176233371Y-107040760D01*
X176213480Y-107140760D01*
X176213480Y-107740760D01*
X176233371Y-107840760D01*
X176213480Y-107940760D01*
X176213480Y-108540760D01*
X176233371Y-108640760D01*
X176213480Y-108740760D01*
X176213480Y-109340760D01*
X176233371Y-109440760D01*
X176213480Y-109540760D01*
X176213480Y-110138950D01*
X176137920Y-110214510D01*
X176137920Y-110588000D01*
X176109077Y-110442995D01*
X175968729Y-110232951D01*
X175768715Y-110099305D01*
X175725170Y-110055760D01*
X175584610Y-110055760D01*
X175580993Y-110057258D01*
X175510920Y-110043320D01*
X174910920Y-110043320D01*
X174810920Y-110063211D01*
X174710920Y-110043320D01*
X174110920Y-110043320D01*
X174010920Y-110063211D01*
X173910920Y-110043320D01*
X173310920Y-110043320D01*
X173210920Y-110063211D01*
X173110920Y-110043320D01*
X172510920Y-110043320D01*
X172410920Y-110063211D01*
X172310920Y-110043320D01*
X171710920Y-110043320D01*
X171610920Y-110063211D01*
X171510920Y-110043320D01*
X170910920Y-110043320D01*
X170810920Y-110063211D01*
X170710920Y-110043320D01*
X170208360Y-110043320D01*
X170208360Y-109540760D01*
X170188469Y-109440760D01*
X170208360Y-109340760D01*
X170208360Y-108740760D01*
X170188469Y-108640760D01*
X170208360Y-108540760D01*
X170208360Y-107940760D01*
X170188469Y-107840760D01*
X170208360Y-107740760D01*
X170208360Y-107140760D01*
X170188469Y-107040760D01*
X170208360Y-106940760D01*
X170208360Y-106340760D01*
X170188469Y-106240760D01*
X170208360Y-106140760D01*
X170208360Y-105540760D01*
X170188469Y-105440760D01*
X170208360Y-105340760D01*
X170208360Y-104740760D01*
X170188469Y-104640760D01*
X170208360Y-104540760D01*
X170208360Y-103942570D01*
X170283920Y-103867010D01*
X170283920Y-103536383D01*
X170372593Y-103750458D01*
G36*
X154670145Y-105158298D02*
X154861487Y-105196358D01*
X154861491Y-105196358D01*
X154930074Y-105210000D01*
X155559279Y-105210000D01*
X155113510Y-105298669D01*
X154489991Y-105715291D01*
X154073369Y-106338810D01*
X153927071Y-107074300D01*
X154073369Y-107809790D01*
X154489991Y-108433309D01*
X154964000Y-108750032D01*
X154964001Y-109778860D01*
X153551000Y-109778860D01*
X153303235Y-109828143D01*
X153127000Y-109945900D01*
X153127000Y-105127000D01*
X154594585Y-105127000D01*
X154670145Y-105158298D01*
X154670145Y-105158298D01*
G37*
X154670145Y-105158298D02*
X154861487Y-105196358D01*
X154861491Y-105196358D01*
X154930074Y-105210000D01*
X155559279Y-105210000D01*
X155113510Y-105298669D01*
X154489991Y-105715291D01*
X154073369Y-106338810D01*
X153927071Y-107074300D01*
X154073369Y-107809790D01*
X154489991Y-108433309D01*
X154964000Y-108750032D01*
X154964001Y-109778860D01*
X153551000Y-109778860D01*
X153303235Y-109828143D01*
X153127000Y-109945900D01*
X153127000Y-105127000D01*
X154594585Y-105127000D01*
X154670145Y-105158298D01*
G36*
X161411602Y-107010208D02*
X161344240Y-107348860D01*
X161344240Y-107923860D01*
X161411602Y-108262512D01*
X161603433Y-108549607D01*
X161890528Y-108741438D01*
X162229180Y-108808800D01*
X162704180Y-108808800D01*
X163042832Y-108741438D01*
X163236814Y-108611823D01*
X163209200Y-108678490D01*
X163209200Y-108994050D01*
X163367950Y-109152800D01*
X164242200Y-109152800D01*
X164242200Y-109132800D01*
X164496200Y-109132800D01*
X164496200Y-109152800D01*
X164516200Y-109152800D01*
X164516200Y-109406800D01*
X164496200Y-109406800D01*
X164496200Y-109426800D01*
X164242200Y-109426800D01*
X164242200Y-109406800D01*
X163367950Y-109406800D01*
X163209200Y-109565550D01*
X163209200Y-109728300D01*
X162574179Y-109728300D01*
X161327300Y-108481422D01*
X161327300Y-106771360D01*
X161571195Y-106771360D01*
X161411602Y-107010208D01*
X161411602Y-107010208D01*
G37*
X161411602Y-107010208D02*
X161344240Y-107348860D01*
X161344240Y-107923860D01*
X161411602Y-108262512D01*
X161603433Y-108549607D01*
X161890528Y-108741438D01*
X162229180Y-108808800D01*
X162704180Y-108808800D01*
X163042832Y-108741438D01*
X163236814Y-108611823D01*
X163209200Y-108678490D01*
X163209200Y-108994050D01*
X163367950Y-109152800D01*
X164242200Y-109152800D01*
X164242200Y-109132800D01*
X164496200Y-109132800D01*
X164496200Y-109152800D01*
X164516200Y-109152800D01*
X164516200Y-109406800D01*
X164496200Y-109406800D01*
X164496200Y-109426800D01*
X164242200Y-109426800D01*
X164242200Y-109406800D01*
X163367950Y-109406800D01*
X163209200Y-109565550D01*
X163209200Y-109728300D01*
X162574179Y-109728300D01*
X161327300Y-108481422D01*
X161327300Y-106771360D01*
X161571195Y-106771360D01*
X161411602Y-107010208D01*
G36*
X165445884Y-94207760D02*
X164957200Y-94207760D01*
X164709435Y-94257043D01*
X164499391Y-94397391D01*
X164359043Y-94607435D01*
X164309760Y-94855200D01*
X164309760Y-95755200D01*
X164359043Y-96002965D01*
X164443634Y-96129564D01*
X164315622Y-96321148D01*
X164248260Y-96659800D01*
X164248260Y-97134800D01*
X164315622Y-97473452D01*
X164507453Y-97760547D01*
X164586158Y-97813136D01*
X164587048Y-97817610D01*
X164782652Y-98110349D01*
X164867093Y-98166771D01*
X166428000Y-99727679D01*
X166428001Y-103232893D01*
X166081078Y-102852217D01*
X165556612Y-102605914D01*
X165326720Y-102726581D01*
X165326720Y-103920400D01*
X165346720Y-103920400D01*
X165346720Y-104174400D01*
X165326720Y-104174400D01*
X165326720Y-104194400D01*
X165072720Y-104194400D01*
X165072720Y-104174400D01*
X163879565Y-104174400D01*
X163758244Y-104404290D01*
X163928075Y-104814324D01*
X164205428Y-105118661D01*
X164101955Y-105139243D01*
X163891911Y-105279591D01*
X163751563Y-105489635D01*
X163702280Y-105737400D01*
X163702280Y-106751360D01*
X163362165Y-106751360D01*
X163521758Y-106512512D01*
X163589120Y-106173860D01*
X163589120Y-105598860D01*
X163521758Y-105260208D01*
X163329927Y-104973113D01*
X163042832Y-104781282D01*
X162704180Y-104713920D01*
X162229180Y-104713920D01*
X162127000Y-104734245D01*
X162127000Y-104405415D01*
X162158298Y-104329855D01*
X162196358Y-104138513D01*
X162196358Y-104138509D01*
X162210000Y-104069926D01*
X162210000Y-103690510D01*
X163758244Y-103690510D01*
X163879565Y-103920400D01*
X165072720Y-103920400D01*
X165072720Y-102726581D01*
X164842828Y-102605914D01*
X164318362Y-102852217D01*
X163928075Y-103280476D01*
X163758244Y-103690510D01*
X162210000Y-103690510D01*
X162210000Y-97930074D01*
X162196358Y-97861491D01*
X162196358Y-97861487D01*
X162158298Y-97670145D01*
X162127000Y-97594585D01*
X162127000Y-97213611D01*
X162256320Y-97342931D01*
X162636726Y-97500500D01*
X163048474Y-97500500D01*
X163428880Y-97342931D01*
X163720031Y-97051780D01*
X163877600Y-96671374D01*
X163877600Y-96259626D01*
X163727600Y-95897493D01*
X163727600Y-95436435D01*
X163676252Y-95178290D01*
X163671640Y-95171388D01*
X163671640Y-94855200D01*
X163622357Y-94607435D01*
X163485516Y-94402640D01*
X163974200Y-94402640D01*
X164221965Y-94353357D01*
X164432009Y-94213009D01*
X164447250Y-94190200D01*
X165434150Y-94190200D01*
X165445884Y-94207760D01*
X165445884Y-94207760D01*
G37*
X165445884Y-94207760D02*
X164957200Y-94207760D01*
X164709435Y-94257043D01*
X164499391Y-94397391D01*
X164359043Y-94607435D01*
X164309760Y-94855200D01*
X164309760Y-95755200D01*
X164359043Y-96002965D01*
X164443634Y-96129564D01*
X164315622Y-96321148D01*
X164248260Y-96659800D01*
X164248260Y-97134800D01*
X164315622Y-97473452D01*
X164507453Y-97760547D01*
X164586158Y-97813136D01*
X164587048Y-97817610D01*
X164782652Y-98110349D01*
X164867093Y-98166771D01*
X166428000Y-99727679D01*
X166428001Y-103232893D01*
X166081078Y-102852217D01*
X165556612Y-102605914D01*
X165326720Y-102726581D01*
X165326720Y-103920400D01*
X165346720Y-103920400D01*
X165346720Y-104174400D01*
X165326720Y-104174400D01*
X165326720Y-104194400D01*
X165072720Y-104194400D01*
X165072720Y-104174400D01*
X163879565Y-104174400D01*
X163758244Y-104404290D01*
X163928075Y-104814324D01*
X164205428Y-105118661D01*
X164101955Y-105139243D01*
X163891911Y-105279591D01*
X163751563Y-105489635D01*
X163702280Y-105737400D01*
X163702280Y-106751360D01*
X163362165Y-106751360D01*
X163521758Y-106512512D01*
X163589120Y-106173860D01*
X163589120Y-105598860D01*
X163521758Y-105260208D01*
X163329927Y-104973113D01*
X163042832Y-104781282D01*
X162704180Y-104713920D01*
X162229180Y-104713920D01*
X162127000Y-104734245D01*
X162127000Y-104405415D01*
X162158298Y-104329855D01*
X162196358Y-104138513D01*
X162196358Y-104138509D01*
X162210000Y-104069926D01*
X162210000Y-103690510D01*
X163758244Y-103690510D01*
X163879565Y-103920400D01*
X165072720Y-103920400D01*
X165072720Y-102726581D01*
X164842828Y-102605914D01*
X164318362Y-102852217D01*
X163928075Y-103280476D01*
X163758244Y-103690510D01*
X162210000Y-103690510D01*
X162210000Y-97930074D01*
X162196358Y-97861491D01*
X162196358Y-97861487D01*
X162158298Y-97670145D01*
X162127000Y-97594585D01*
X162127000Y-97213611D01*
X162256320Y-97342931D01*
X162636726Y-97500500D01*
X163048474Y-97500500D01*
X163428880Y-97342931D01*
X163720031Y-97051780D01*
X163877600Y-96671374D01*
X163877600Y-96259626D01*
X163727600Y-95897493D01*
X163727600Y-95436435D01*
X163676252Y-95178290D01*
X163671640Y-95171388D01*
X163671640Y-94855200D01*
X163622357Y-94607435D01*
X163485516Y-94402640D01*
X163974200Y-94402640D01*
X164221965Y-94353357D01*
X164432009Y-94213009D01*
X164447250Y-94190200D01*
X165434150Y-94190200D01*
X165445884Y-94207760D01*
G36*
X170434670Y-102663760D02*
X170557920Y-102663760D01*
X170557920Y-102917760D01*
X170434670Y-102917760D01*
X170283920Y-103068510D01*
X170283920Y-102917760D01*
X170263920Y-102917760D01*
X170263920Y-102663760D01*
X170283920Y-102663760D01*
X170283920Y-102643760D01*
X170414670Y-102643760D01*
X170434670Y-102663760D01*
X170434670Y-102663760D01*
G37*
X170434670Y-102663760D02*
X170557920Y-102663760D01*
X170557920Y-102917760D01*
X170434670Y-102917760D01*
X170283920Y-103068510D01*
X170283920Y-102917760D01*
X170263920Y-102917760D01*
X170263920Y-102663760D01*
X170283920Y-102663760D01*
X170283920Y-102643760D01*
X170414670Y-102643760D01*
X170434670Y-102663760D01*
G36*
X167317750Y-81872421D02*
X167696000Y-82250671D01*
X167696000Y-82599427D01*
X167696001Y-82599432D01*
X167696000Y-85684917D01*
X167673765Y-85796700D01*
X167696000Y-85908482D01*
X167761854Y-86239554D01*
X168012711Y-86614989D01*
X168107482Y-86678313D01*
X174026091Y-92596924D01*
X174089411Y-92691689D01*
X174184176Y-92755009D01*
X174464845Y-92942546D01*
X174907700Y-93030635D01*
X174918795Y-93028428D01*
X175257699Y-93095840D01*
X176157701Y-93095840D01*
X176501136Y-93027527D01*
X176792286Y-92832986D01*
X176986827Y-92541836D01*
X177055140Y-92198401D01*
X177055140Y-91548399D01*
X176986827Y-91204964D01*
X176822078Y-90958400D01*
X179525852Y-90958400D01*
X179649671Y-91082219D01*
X179334147Y-91397743D01*
X179077621Y-92017052D01*
X179077621Y-92687386D01*
X179334147Y-93306695D01*
X179808145Y-93780693D01*
X179864600Y-93804078D01*
X179864600Y-94181986D01*
X179777491Y-94240191D01*
X179637143Y-94450235D01*
X179587860Y-94698000D01*
X179587860Y-95598000D01*
X179637143Y-95845765D01*
X179773984Y-96050560D01*
X179285300Y-96050560D01*
X179127354Y-96081977D01*
X179131640Y-96071629D01*
X179131640Y-95706070D01*
X178972890Y-95547320D01*
X178148640Y-95547320D01*
X178148640Y-95567320D01*
X177894640Y-95567320D01*
X177894640Y-95547320D01*
X177070390Y-95547320D01*
X176911640Y-95706070D01*
X176911640Y-96071629D01*
X177008313Y-96305018D01*
X177079075Y-96375780D01*
X176966562Y-96544168D01*
X176899200Y-96882820D01*
X176899200Y-97041181D01*
X174646765Y-99293617D01*
X174572872Y-99342991D01*
X174523498Y-99416884D01*
X174523496Y-99416886D01*
X174377268Y-99635731D01*
X174308583Y-99981040D01*
X174325921Y-100068205D01*
X174325920Y-101543320D01*
X174110920Y-101543320D01*
X174010920Y-101563211D01*
X173910920Y-101543320D01*
X173310920Y-101543320D01*
X173210920Y-101563211D01*
X173110920Y-101543320D01*
X172510920Y-101543320D01*
X172410920Y-101563211D01*
X172310920Y-101543320D01*
X171782456Y-101543320D01*
X171796560Y-101509270D01*
X171796560Y-101193710D01*
X171637810Y-101034960D01*
X170763560Y-101034960D01*
X170763560Y-101054960D01*
X170509560Y-101054960D01*
X170509560Y-101034960D01*
X170489560Y-101034960D01*
X170489560Y-100780960D01*
X170509560Y-100780960D01*
X170509560Y-99956710D01*
X170763560Y-99956710D01*
X170763560Y-100780960D01*
X171637810Y-100780960D01*
X171796560Y-100622210D01*
X171796560Y-100306650D01*
X171699887Y-100073261D01*
X171521258Y-99894633D01*
X171287869Y-99797960D01*
X170922310Y-99797960D01*
X170763560Y-99956710D01*
X170509560Y-99956710D01*
X170350810Y-99797960D01*
X169986300Y-99797960D01*
X169986300Y-99409226D01*
X169828731Y-99028820D01*
X169537580Y-98737669D01*
X169157174Y-98580100D01*
X168745426Y-98580100D01*
X168365020Y-98737669D01*
X168122718Y-98979971D01*
X168000424Y-98796945D01*
X167993375Y-98789896D01*
X167951049Y-98726551D01*
X167887704Y-98684225D01*
X167210779Y-98007300D01*
X167297702Y-98007300D01*
X167297702Y-97848552D01*
X167456450Y-98007300D01*
X167822009Y-98007300D01*
X168055398Y-97910627D01*
X168234027Y-97731999D01*
X168330700Y-97498610D01*
X168330700Y-97183050D01*
X168171950Y-97024300D01*
X167297700Y-97024300D01*
X167297700Y-97044300D01*
X167043700Y-97044300D01*
X167043700Y-97024300D01*
X167023700Y-97024300D01*
X167023700Y-96770300D01*
X167043700Y-96770300D01*
X167043700Y-96317950D01*
X167130200Y-96231450D01*
X167130200Y-95946050D01*
X167297700Y-95946050D01*
X167297700Y-96770300D01*
X168171950Y-96770300D01*
X168330700Y-96611550D01*
X168330700Y-96295990D01*
X168234027Y-96062601D01*
X168222121Y-96050695D01*
X168292200Y-95881509D01*
X168292200Y-95590950D01*
X168133450Y-95432200D01*
X167384200Y-95432200D01*
X167384200Y-95859550D01*
X167297700Y-95946050D01*
X167130200Y-95946050D01*
X167130200Y-95432200D01*
X167110200Y-95432200D01*
X167110200Y-95178200D01*
X167130200Y-95178200D01*
X167130200Y-94378950D01*
X167384200Y-94378950D01*
X167384200Y-95178200D01*
X168133450Y-95178200D01*
X168292200Y-95019450D01*
X168292200Y-94769011D01*
X176911640Y-94769011D01*
X176911640Y-95134570D01*
X177070390Y-95293320D01*
X177894640Y-95293320D01*
X177894640Y-94419070D01*
X178148640Y-94419070D01*
X178148640Y-95293320D01*
X178972890Y-95293320D01*
X179131640Y-95134570D01*
X179131640Y-94769011D01*
X179034967Y-94535622D01*
X178856339Y-94356993D01*
X178622950Y-94260320D01*
X178307390Y-94260320D01*
X178148640Y-94419070D01*
X177894640Y-94419070D01*
X177735890Y-94260320D01*
X177420330Y-94260320D01*
X177186941Y-94356993D01*
X177008313Y-94535622D01*
X176911640Y-94769011D01*
X168292200Y-94769011D01*
X168292200Y-94728891D01*
X168195527Y-94495502D01*
X168016899Y-94316873D01*
X167783510Y-94220200D01*
X167542950Y-94220200D01*
X167384200Y-94378950D01*
X167130200Y-94378950D01*
X167044669Y-94293419D01*
X167165009Y-94213009D01*
X167305357Y-94002965D01*
X167354640Y-93755200D01*
X167354640Y-92855200D01*
X167305357Y-92607435D01*
X167165009Y-92397391D01*
X166954965Y-92257043D01*
X166707200Y-92207760D01*
X165907200Y-92207760D01*
X165659435Y-92257043D01*
X165449391Y-92397391D01*
X165434150Y-92420200D01*
X164447250Y-92420200D01*
X164432009Y-92397391D01*
X164221965Y-92257043D01*
X163974200Y-92207760D01*
X163778339Y-92207760D01*
X163197578Y-91627000D01*
X167000000Y-91627000D01*
X167048601Y-91617333D01*
X167089803Y-91589803D01*
X167117333Y-91548601D01*
X167127000Y-91500000D01*
X167127000Y-81411910D01*
X167317750Y-81872421D01*
X167317750Y-81872421D01*
G37*
X167317750Y-81872421D02*
X167696000Y-82250671D01*
X167696000Y-82599427D01*
X167696001Y-82599432D01*
X167696000Y-85684917D01*
X167673765Y-85796700D01*
X167696000Y-85908482D01*
X167761854Y-86239554D01*
X168012711Y-86614989D01*
X168107482Y-86678313D01*
X174026091Y-92596924D01*
X174089411Y-92691689D01*
X174184176Y-92755009D01*
X174464845Y-92942546D01*
X174907700Y-93030635D01*
X174918795Y-93028428D01*
X175257699Y-93095840D01*
X176157701Y-93095840D01*
X176501136Y-93027527D01*
X176792286Y-92832986D01*
X176986827Y-92541836D01*
X177055140Y-92198401D01*
X177055140Y-91548399D01*
X176986827Y-91204964D01*
X176822078Y-90958400D01*
X179525852Y-90958400D01*
X179649671Y-91082219D01*
X179334147Y-91397743D01*
X179077621Y-92017052D01*
X179077621Y-92687386D01*
X179334147Y-93306695D01*
X179808145Y-93780693D01*
X179864600Y-93804078D01*
X179864600Y-94181986D01*
X179777491Y-94240191D01*
X179637143Y-94450235D01*
X179587860Y-94698000D01*
X179587860Y-95598000D01*
X179637143Y-95845765D01*
X179773984Y-96050560D01*
X179285300Y-96050560D01*
X179127354Y-96081977D01*
X179131640Y-96071629D01*
X179131640Y-95706070D01*
X178972890Y-95547320D01*
X178148640Y-95547320D01*
X178148640Y-95567320D01*
X177894640Y-95567320D01*
X177894640Y-95547320D01*
X177070390Y-95547320D01*
X176911640Y-95706070D01*
X176911640Y-96071629D01*
X177008313Y-96305018D01*
X177079075Y-96375780D01*
X176966562Y-96544168D01*
X176899200Y-96882820D01*
X176899200Y-97041181D01*
X174646765Y-99293617D01*
X174572872Y-99342991D01*
X174523498Y-99416884D01*
X174523496Y-99416886D01*
X174377268Y-99635731D01*
X174308583Y-99981040D01*
X174325921Y-100068205D01*
X174325920Y-101543320D01*
X174110920Y-101543320D01*
X174010920Y-101563211D01*
X173910920Y-101543320D01*
X173310920Y-101543320D01*
X173210920Y-101563211D01*
X173110920Y-101543320D01*
X172510920Y-101543320D01*
X172410920Y-101563211D01*
X172310920Y-101543320D01*
X171782456Y-101543320D01*
X171796560Y-101509270D01*
X171796560Y-101193710D01*
X171637810Y-101034960D01*
X170763560Y-101034960D01*
X170763560Y-101054960D01*
X170509560Y-101054960D01*
X170509560Y-101034960D01*
X170489560Y-101034960D01*
X170489560Y-100780960D01*
X170509560Y-100780960D01*
X170509560Y-99956710D01*
X170763560Y-99956710D01*
X170763560Y-100780960D01*
X171637810Y-100780960D01*
X171796560Y-100622210D01*
X171796560Y-100306650D01*
X171699887Y-100073261D01*
X171521258Y-99894633D01*
X171287869Y-99797960D01*
X170922310Y-99797960D01*
X170763560Y-99956710D01*
X170509560Y-99956710D01*
X170350810Y-99797960D01*
X169986300Y-99797960D01*
X169986300Y-99409226D01*
X169828731Y-99028820D01*
X169537580Y-98737669D01*
X169157174Y-98580100D01*
X168745426Y-98580100D01*
X168365020Y-98737669D01*
X168122718Y-98979971D01*
X168000424Y-98796945D01*
X167993375Y-98789896D01*
X167951049Y-98726551D01*
X167887704Y-98684225D01*
X167210779Y-98007300D01*
X167297702Y-98007300D01*
X167297702Y-97848552D01*
X167456450Y-98007300D01*
X167822009Y-98007300D01*
X168055398Y-97910627D01*
X168234027Y-97731999D01*
X168330700Y-97498610D01*
X168330700Y-97183050D01*
X168171950Y-97024300D01*
X167297700Y-97024300D01*
X167297700Y-97044300D01*
X167043700Y-97044300D01*
X167043700Y-97024300D01*
X167023700Y-97024300D01*
X167023700Y-96770300D01*
X167043700Y-96770300D01*
X167043700Y-96317950D01*
X167130200Y-96231450D01*
X167130200Y-95946050D01*
X167297700Y-95946050D01*
X167297700Y-96770300D01*
X168171950Y-96770300D01*
X168330700Y-96611550D01*
X168330700Y-96295990D01*
X168234027Y-96062601D01*
X168222121Y-96050695D01*
X168292200Y-95881509D01*
X168292200Y-95590950D01*
X168133450Y-95432200D01*
X167384200Y-95432200D01*
X167384200Y-95859550D01*
X167297700Y-95946050D01*
X167130200Y-95946050D01*
X167130200Y-95432200D01*
X167110200Y-95432200D01*
X167110200Y-95178200D01*
X167130200Y-95178200D01*
X167130200Y-94378950D01*
X167384200Y-94378950D01*
X167384200Y-95178200D01*
X168133450Y-95178200D01*
X168292200Y-95019450D01*
X168292200Y-94769011D01*
X176911640Y-94769011D01*
X176911640Y-95134570D01*
X177070390Y-95293320D01*
X177894640Y-95293320D01*
X177894640Y-94419070D01*
X178148640Y-94419070D01*
X178148640Y-95293320D01*
X178972890Y-95293320D01*
X179131640Y-95134570D01*
X179131640Y-94769011D01*
X179034967Y-94535622D01*
X178856339Y-94356993D01*
X178622950Y-94260320D01*
X178307390Y-94260320D01*
X178148640Y-94419070D01*
X177894640Y-94419070D01*
X177735890Y-94260320D01*
X177420330Y-94260320D01*
X177186941Y-94356993D01*
X177008313Y-94535622D01*
X176911640Y-94769011D01*
X168292200Y-94769011D01*
X168292200Y-94728891D01*
X168195527Y-94495502D01*
X168016899Y-94316873D01*
X167783510Y-94220200D01*
X167542950Y-94220200D01*
X167384200Y-94378950D01*
X167130200Y-94378950D01*
X167044669Y-94293419D01*
X167165009Y-94213009D01*
X167305357Y-94002965D01*
X167354640Y-93755200D01*
X167354640Y-92855200D01*
X167305357Y-92607435D01*
X167165009Y-92397391D01*
X166954965Y-92257043D01*
X166707200Y-92207760D01*
X165907200Y-92207760D01*
X165659435Y-92257043D01*
X165449391Y-92397391D01*
X165434150Y-92420200D01*
X164447250Y-92420200D01*
X164432009Y-92397391D01*
X164221965Y-92257043D01*
X163974200Y-92207760D01*
X163778339Y-92207760D01*
X163197578Y-91627000D01*
X167000000Y-91627000D01*
X167048601Y-91617333D01*
X167089803Y-91589803D01*
X167117333Y-91548601D01*
X167127000Y-91500000D01*
X167127000Y-81411910D01*
X167317750Y-81872421D01*
G36*
X182328400Y-96152798D02*
X182111610Y-96063000D01*
X181871050Y-96063000D01*
X181712300Y-96221750D01*
X181712300Y-97021000D01*
X181732300Y-97021000D01*
X181732300Y-97275000D01*
X181712300Y-97275000D01*
X181712300Y-97295000D01*
X181458300Y-97295000D01*
X181458300Y-97275000D01*
X181438300Y-97275000D01*
X181438300Y-97021000D01*
X181458300Y-97021000D01*
X181458300Y-96221750D01*
X181372769Y-96136219D01*
X181493109Y-96055809D01*
X181633457Y-95845765D01*
X181682740Y-95598000D01*
X181682740Y-94698000D01*
X181634600Y-94455981D01*
X181634600Y-93814864D01*
X181717097Y-93780693D01*
X182191095Y-93306695D01*
X182328400Y-92975210D01*
X182328400Y-96152798D01*
X182328400Y-96152798D01*
G37*
X182328400Y-96152798D02*
X182111610Y-96063000D01*
X181871050Y-96063000D01*
X181712300Y-96221750D01*
X181712300Y-97021000D01*
X181732300Y-97021000D01*
X181732300Y-97275000D01*
X181712300Y-97275000D01*
X181712300Y-97295000D01*
X181458300Y-97295000D01*
X181458300Y-97275000D01*
X181438300Y-97275000D01*
X181438300Y-97021000D01*
X181458300Y-97021000D01*
X181458300Y-96221750D01*
X181372769Y-96136219D01*
X181493109Y-96055809D01*
X181633457Y-95845765D01*
X181682740Y-95598000D01*
X181682740Y-94698000D01*
X181634600Y-94455981D01*
X181634600Y-93814864D01*
X181717097Y-93780693D01*
X182191095Y-93306695D01*
X182328400Y-92975210D01*
X182328400Y-96152798D01*
G36*
X160626760Y-93755200D02*
X160676043Y-94002965D01*
X160816391Y-94213009D01*
X161026435Y-94353357D01*
X161274200Y-94402640D01*
X161762884Y-94402640D01*
X161626043Y-94607435D01*
X161576760Y-94855200D01*
X161576760Y-95755200D01*
X161626043Y-96002965D01*
X161766391Y-96213009D01*
X161813791Y-96244681D01*
X161807600Y-96259626D01*
X161807600Y-96671374D01*
X161891116Y-96873000D01*
X161405416Y-96873000D01*
X161329856Y-96841702D01*
X161138513Y-96803642D01*
X161138509Y-96803642D01*
X161069926Y-96790000D01*
X156674183Y-96790000D01*
X157208009Y-96433309D01*
X157624631Y-95809790D01*
X157770929Y-95074300D01*
X157659711Y-94515168D01*
X159243979Y-92930900D01*
X160626760Y-92930900D01*
X160626760Y-93755200D01*
X160626760Y-93755200D01*
G37*
X160626760Y-93755200D02*
X160676043Y-94002965D01*
X160816391Y-94213009D01*
X161026435Y-94353357D01*
X161274200Y-94402640D01*
X161762884Y-94402640D01*
X161626043Y-94607435D01*
X161576760Y-94855200D01*
X161576760Y-95755200D01*
X161626043Y-96002965D01*
X161766391Y-96213009D01*
X161813791Y-96244681D01*
X161807600Y-96259626D01*
X161807600Y-96671374D01*
X161891116Y-96873000D01*
X161405416Y-96873000D01*
X161329856Y-96841702D01*
X161138513Y-96803642D01*
X161138509Y-96803642D01*
X161069926Y-96790000D01*
X156674183Y-96790000D01*
X157208009Y-96433309D01*
X157624631Y-95809790D01*
X157770929Y-95074300D01*
X157659711Y-94515168D01*
X159243979Y-92930900D01*
X160626760Y-92930900D01*
X160626760Y-93755200D01*
G36*
X156408132Y-93263589D02*
X156034655Y-93189300D01*
X155663345Y-93189300D01*
X155113510Y-93298669D01*
X154489991Y-93715291D01*
X154127000Y-94258546D01*
X154127000Y-91627000D01*
X158044721Y-91627000D01*
X156408132Y-93263589D01*
X156408132Y-93263589D01*
G37*
X156408132Y-93263589D02*
X156034655Y-93189300D01*
X155663345Y-93189300D01*
X155113510Y-93298669D01*
X154489991Y-93715291D01*
X154127000Y-94258546D01*
X154127000Y-91627000D01*
X158044721Y-91627000D01*
X156408132Y-93263589D01*
G36*
X175873000Y-67000000D02*
X175882667Y-67048601D01*
X175910197Y-67089803D01*
X175951399Y-67117333D01*
X176000000Y-67127000D01*
X183873000Y-67127000D01*
X183873000Y-87769804D01*
X183851449Y-87737551D01*
X183777556Y-87688177D01*
X182808625Y-86719247D01*
X182759249Y-86645351D01*
X182466510Y-86449748D01*
X182225953Y-86401899D01*
X182191095Y-86317743D01*
X182183109Y-86309757D01*
X182350948Y-86141917D01*
X182447621Y-85908528D01*
X182447621Y-85017969D01*
X182288871Y-84859219D01*
X180889621Y-84859219D01*
X180889621Y-84879219D01*
X180635621Y-84879219D01*
X180635621Y-84859219D01*
X179236371Y-84859219D01*
X179077621Y-85017969D01*
X179077621Y-85908528D01*
X179174294Y-86141917D01*
X179342133Y-86309757D01*
X179334147Y-86317743D01*
X179077621Y-86937052D01*
X179077621Y-87607386D01*
X179334147Y-88226695D01*
X179649671Y-88542219D01*
X179503490Y-88688400D01*
X176529761Y-88688400D01*
X176501136Y-88669273D01*
X176157701Y-88600960D01*
X175257699Y-88600960D01*
X174914264Y-88669273D01*
X174623114Y-88863814D01*
X174428573Y-89154964D01*
X174360260Y-89498399D01*
X174360260Y-89720827D01*
X169966000Y-85326569D01*
X169966000Y-82250671D01*
X170344250Y-81872421D01*
X170616000Y-81216359D01*
X170616000Y-80506241D01*
X170344250Y-79850179D01*
X170082579Y-79588508D01*
X171464787Y-78206300D01*
X171913360Y-78206300D01*
X171913360Y-79071300D01*
X171962643Y-79319065D01*
X172102991Y-79529109D01*
X172175800Y-79577759D01*
X172175800Y-79735092D01*
X172155414Y-79748714D01*
X171960874Y-80039865D01*
X171892560Y-80383300D01*
X171892560Y-81633300D01*
X171960874Y-81976735D01*
X172117500Y-82211144D01*
X172117501Y-83619183D01*
X172183355Y-83950255D01*
X172434212Y-84325689D01*
X172809646Y-84576546D01*
X173252500Y-84664635D01*
X173695355Y-84576546D01*
X174070789Y-84325689D01*
X174321646Y-83950255D01*
X174387500Y-83619183D01*
X174387500Y-83555910D01*
X179077621Y-83555910D01*
X179077621Y-84446469D01*
X179236371Y-84605219D01*
X180635621Y-84605219D01*
X180635621Y-83205969D01*
X180889621Y-83205969D01*
X180889621Y-84605219D01*
X182288871Y-84605219D01*
X182447621Y-84446469D01*
X182447621Y-83555910D01*
X182350948Y-83322521D01*
X182172320Y-83143892D01*
X181938931Y-83047219D01*
X181048371Y-83047219D01*
X180889621Y-83205969D01*
X180635621Y-83205969D01*
X180476871Y-83047219D01*
X179586311Y-83047219D01*
X179352922Y-83143892D01*
X179174294Y-83322521D01*
X179077621Y-83555910D01*
X174387500Y-83555910D01*
X174387500Y-82211143D01*
X174544126Y-81976735D01*
X174612440Y-81633300D01*
X174612440Y-81294050D01*
X174880000Y-81294050D01*
X174880000Y-82009610D01*
X174976673Y-82242999D01*
X175155302Y-82421627D01*
X175388691Y-82518300D01*
X175941750Y-82518300D01*
X176100500Y-82359550D01*
X176100500Y-81135300D01*
X176354500Y-81135300D01*
X176354500Y-82359550D01*
X176513250Y-82518300D01*
X177066309Y-82518300D01*
X177299698Y-82421627D01*
X177478327Y-82242999D01*
X177575000Y-82009610D01*
X177575000Y-81294050D01*
X177416250Y-81135300D01*
X176354500Y-81135300D01*
X176100500Y-81135300D01*
X175038750Y-81135300D01*
X174880000Y-81294050D01*
X174612440Y-81294050D01*
X174612440Y-80383300D01*
X174544126Y-80039865D01*
X174522160Y-80006990D01*
X174880000Y-80006990D01*
X174880000Y-80722550D01*
X175038750Y-80881300D01*
X176100500Y-80881300D01*
X176100500Y-79657050D01*
X176354500Y-79657050D01*
X176354500Y-80881300D01*
X177416250Y-80881300D01*
X177575000Y-80722550D01*
X177575000Y-80006990D01*
X177478327Y-79773601D01*
X177299698Y-79594973D01*
X177066309Y-79498300D01*
X176513250Y-79498300D01*
X176354500Y-79657050D01*
X176100500Y-79657050D01*
X175941750Y-79498300D01*
X175388691Y-79498300D01*
X175155302Y-79594973D01*
X174976673Y-79773601D01*
X174880000Y-80006990D01*
X174522160Y-80006990D01*
X174445800Y-79892709D01*
X174445800Y-79577759D01*
X174518609Y-79529109D01*
X174658957Y-79319065D01*
X174708240Y-79071300D01*
X174708240Y-78607149D01*
X174843318Y-78701704D01*
X174909316Y-78737906D01*
X174956535Y-78769457D01*
X175204300Y-78818740D01*
X177044300Y-78818740D01*
X177116589Y-78804361D01*
X177175331Y-78802856D01*
X177216772Y-78784434D01*
X177292065Y-78769457D01*
X177374765Y-78714198D01*
X177406168Y-78700238D01*
X177977705Y-78296800D01*
X178490157Y-78296800D01*
X178724565Y-78453426D01*
X179068000Y-78521740D01*
X180318000Y-78521740D01*
X180661435Y-78453426D01*
X180952586Y-78258886D01*
X181147126Y-77967735D01*
X181215440Y-77624300D01*
X181215440Y-76699300D01*
X181147126Y-76355865D01*
X180952586Y-76064714D01*
X180661435Y-75870174D01*
X180318000Y-75801860D01*
X179068000Y-75801860D01*
X178724565Y-75870174D01*
X178490157Y-76026800D01*
X178234122Y-76026800D01*
X177406168Y-75442362D01*
X177346191Y-75409309D01*
X177292065Y-75373143D01*
X177044300Y-75323860D01*
X175204300Y-75323860D01*
X175133690Y-75337905D01*
X175074556Y-75339187D01*
X175031057Y-75358320D01*
X174956535Y-75373143D01*
X174877902Y-75425685D01*
X174843318Y-75440896D01*
X174695800Y-75544159D01*
X174695800Y-75444298D01*
X174537052Y-75444298D01*
X174695800Y-75285550D01*
X174695800Y-74944991D01*
X174599127Y-74711602D01*
X174420499Y-74532973D01*
X174274626Y-74472550D01*
X178183000Y-74472550D01*
X178183000Y-75025609D01*
X178279673Y-75258998D01*
X178458301Y-75437627D01*
X178691690Y-75534300D01*
X179407250Y-75534300D01*
X179566000Y-75375550D01*
X179566000Y-74313800D01*
X179820000Y-74313800D01*
X179820000Y-75375550D01*
X179978750Y-75534300D01*
X180694310Y-75534300D01*
X180927699Y-75437627D01*
X181106327Y-75258998D01*
X181203000Y-75025609D01*
X181203000Y-74472550D01*
X181044250Y-74313800D01*
X179820000Y-74313800D01*
X179566000Y-74313800D01*
X178341750Y-74313800D01*
X178183000Y-74472550D01*
X174274626Y-74472550D01*
X174187110Y-74436300D01*
X173596550Y-74436300D01*
X173437800Y-74595050D01*
X173437800Y-75444300D01*
X173457800Y-75444300D01*
X173457800Y-75698300D01*
X173437800Y-75698300D01*
X173437800Y-75718300D01*
X173183800Y-75718300D01*
X173183800Y-75698300D01*
X172084550Y-75698300D01*
X171925800Y-75857050D01*
X171925800Y-75936300D01*
X171106436Y-75936300D01*
X170994654Y-75914065D01*
X170882872Y-75936300D01*
X170551800Y-76002154D01*
X170176366Y-76253011D01*
X170113044Y-76347779D01*
X168107480Y-78353344D01*
X168012712Y-78416666D01*
X167942504Y-78521740D01*
X167761854Y-78792101D01*
X167673765Y-79234955D01*
X167696000Y-79346738D01*
X167696000Y-79471929D01*
X167317750Y-79850179D01*
X167127000Y-80310690D01*
X167127000Y-74522325D01*
X167749581Y-74522325D01*
X167866601Y-74804746D01*
X168530663Y-75056318D01*
X169240448Y-75034614D01*
X169456817Y-74944991D01*
X171925800Y-74944991D01*
X171925800Y-75285550D01*
X172084550Y-75444300D01*
X173183800Y-75444300D01*
X173183800Y-74595050D01*
X173025050Y-74436300D01*
X172434490Y-74436300D01*
X172201101Y-74532973D01*
X172022473Y-74711602D01*
X171925800Y-74944991D01*
X169456817Y-74944991D01*
X169795399Y-74804746D01*
X169912419Y-74522325D01*
X168831000Y-73440905D01*
X167749581Y-74522325D01*
X167127000Y-74522325D01*
X167127000Y-73838087D01*
X167287554Y-74225699D01*
X167569975Y-74342719D01*
X168651395Y-73261300D01*
X169010605Y-73261300D01*
X170092025Y-74342719D01*
X170374446Y-74225699D01*
X170626018Y-73561637D01*
X170619486Y-73347991D01*
X178183000Y-73347991D01*
X178183000Y-73901050D01*
X178341750Y-74059800D01*
X179566000Y-74059800D01*
X179566000Y-72998050D01*
X179820000Y-72998050D01*
X179820000Y-74059800D01*
X181044250Y-74059800D01*
X181203000Y-73901050D01*
X181203000Y-73347991D01*
X181106327Y-73114602D01*
X180927699Y-72935973D01*
X180694310Y-72839300D01*
X179978750Y-72839300D01*
X179820000Y-72998050D01*
X179566000Y-72998050D01*
X179407250Y-72839300D01*
X178691690Y-72839300D01*
X178458301Y-72935973D01*
X178279673Y-73114602D01*
X178183000Y-73347991D01*
X170619486Y-73347991D01*
X170604314Y-72851852D01*
X170374446Y-72296901D01*
X170092025Y-72179881D01*
X169010605Y-73261300D01*
X168651395Y-73261300D01*
X167569975Y-72179881D01*
X167287554Y-72296901D01*
X167127000Y-72720707D01*
X167127000Y-72000275D01*
X167749581Y-72000275D01*
X168831000Y-73081695D01*
X169912419Y-72000275D01*
X169795399Y-71717854D01*
X169131337Y-71466282D01*
X168421552Y-71487986D01*
X167866601Y-71717854D01*
X167749581Y-72000275D01*
X167127000Y-72000275D01*
X167127000Y-59127000D01*
X175873000Y-59127000D01*
X175873000Y-67000000D01*
X175873000Y-67000000D01*
G37*
X175873000Y-67000000D02*
X175882667Y-67048601D01*
X175910197Y-67089803D01*
X175951399Y-67117333D01*
X176000000Y-67127000D01*
X183873000Y-67127000D01*
X183873000Y-87769804D01*
X183851449Y-87737551D01*
X183777556Y-87688177D01*
X182808625Y-86719247D01*
X182759249Y-86645351D01*
X182466510Y-86449748D01*
X182225953Y-86401899D01*
X182191095Y-86317743D01*
X182183109Y-86309757D01*
X182350948Y-86141917D01*
X182447621Y-85908528D01*
X182447621Y-85017969D01*
X182288871Y-84859219D01*
X180889621Y-84859219D01*
X180889621Y-84879219D01*
X180635621Y-84879219D01*
X180635621Y-84859219D01*
X179236371Y-84859219D01*
X179077621Y-85017969D01*
X179077621Y-85908528D01*
X179174294Y-86141917D01*
X179342133Y-86309757D01*
X179334147Y-86317743D01*
X179077621Y-86937052D01*
X179077621Y-87607386D01*
X179334147Y-88226695D01*
X179649671Y-88542219D01*
X179503490Y-88688400D01*
X176529761Y-88688400D01*
X176501136Y-88669273D01*
X176157701Y-88600960D01*
X175257699Y-88600960D01*
X174914264Y-88669273D01*
X174623114Y-88863814D01*
X174428573Y-89154964D01*
X174360260Y-89498399D01*
X174360260Y-89720827D01*
X169966000Y-85326569D01*
X169966000Y-82250671D01*
X170344250Y-81872421D01*
X170616000Y-81216359D01*
X170616000Y-80506241D01*
X170344250Y-79850179D01*
X170082579Y-79588508D01*
X171464787Y-78206300D01*
X171913360Y-78206300D01*
X171913360Y-79071300D01*
X171962643Y-79319065D01*
X172102991Y-79529109D01*
X172175800Y-79577759D01*
X172175800Y-79735092D01*
X172155414Y-79748714D01*
X171960874Y-80039865D01*
X171892560Y-80383300D01*
X171892560Y-81633300D01*
X171960874Y-81976735D01*
X172117500Y-82211144D01*
X172117501Y-83619183D01*
X172183355Y-83950255D01*
X172434212Y-84325689D01*
X172809646Y-84576546D01*
X173252500Y-84664635D01*
X173695355Y-84576546D01*
X174070789Y-84325689D01*
X174321646Y-83950255D01*
X174387500Y-83619183D01*
X174387500Y-83555910D01*
X179077621Y-83555910D01*
X179077621Y-84446469D01*
X179236371Y-84605219D01*
X180635621Y-84605219D01*
X180635621Y-83205969D01*
X180889621Y-83205969D01*
X180889621Y-84605219D01*
X182288871Y-84605219D01*
X182447621Y-84446469D01*
X182447621Y-83555910D01*
X182350948Y-83322521D01*
X182172320Y-83143892D01*
X181938931Y-83047219D01*
X181048371Y-83047219D01*
X180889621Y-83205969D01*
X180635621Y-83205969D01*
X180476871Y-83047219D01*
X179586311Y-83047219D01*
X179352922Y-83143892D01*
X179174294Y-83322521D01*
X179077621Y-83555910D01*
X174387500Y-83555910D01*
X174387500Y-82211143D01*
X174544126Y-81976735D01*
X174612440Y-81633300D01*
X174612440Y-81294050D01*
X174880000Y-81294050D01*
X174880000Y-82009610D01*
X174976673Y-82242999D01*
X175155302Y-82421627D01*
X175388691Y-82518300D01*
X175941750Y-82518300D01*
X176100500Y-82359550D01*
X176100500Y-81135300D01*
X176354500Y-81135300D01*
X176354500Y-82359550D01*
X176513250Y-82518300D01*
X177066309Y-82518300D01*
X177299698Y-82421627D01*
X177478327Y-82242999D01*
X177575000Y-82009610D01*
X177575000Y-81294050D01*
X177416250Y-81135300D01*
X176354500Y-81135300D01*
X176100500Y-81135300D01*
X175038750Y-81135300D01*
X174880000Y-81294050D01*
X174612440Y-81294050D01*
X174612440Y-80383300D01*
X174544126Y-80039865D01*
X174522160Y-80006990D01*
X174880000Y-80006990D01*
X174880000Y-80722550D01*
X175038750Y-80881300D01*
X176100500Y-80881300D01*
X176100500Y-79657050D01*
X176354500Y-79657050D01*
X176354500Y-80881300D01*
X177416250Y-80881300D01*
X177575000Y-80722550D01*
X177575000Y-80006990D01*
X177478327Y-79773601D01*
X177299698Y-79594973D01*
X177066309Y-79498300D01*
X176513250Y-79498300D01*
X176354500Y-79657050D01*
X176100500Y-79657050D01*
X175941750Y-79498300D01*
X175388691Y-79498300D01*
X175155302Y-79594973D01*
X174976673Y-79773601D01*
X174880000Y-80006990D01*
X174522160Y-80006990D01*
X174445800Y-79892709D01*
X174445800Y-79577759D01*
X174518609Y-79529109D01*
X174658957Y-79319065D01*
X174708240Y-79071300D01*
X174708240Y-78607149D01*
X174843318Y-78701704D01*
X174909316Y-78737906D01*
X174956535Y-78769457D01*
X175204300Y-78818740D01*
X177044300Y-78818740D01*
X177116589Y-78804361D01*
X177175331Y-78802856D01*
X177216772Y-78784434D01*
X177292065Y-78769457D01*
X177374765Y-78714198D01*
X177406168Y-78700238D01*
X177977705Y-78296800D01*
X178490157Y-78296800D01*
X178724565Y-78453426D01*
X179068000Y-78521740D01*
X180318000Y-78521740D01*
X180661435Y-78453426D01*
X180952586Y-78258886D01*
X181147126Y-77967735D01*
X181215440Y-77624300D01*
X181215440Y-76699300D01*
X181147126Y-76355865D01*
X180952586Y-76064714D01*
X180661435Y-75870174D01*
X180318000Y-75801860D01*
X179068000Y-75801860D01*
X178724565Y-75870174D01*
X178490157Y-76026800D01*
X178234122Y-76026800D01*
X177406168Y-75442362D01*
X177346191Y-75409309D01*
X177292065Y-75373143D01*
X177044300Y-75323860D01*
X175204300Y-75323860D01*
X175133690Y-75337905D01*
X175074556Y-75339187D01*
X175031057Y-75358320D01*
X174956535Y-75373143D01*
X174877902Y-75425685D01*
X174843318Y-75440896D01*
X174695800Y-75544159D01*
X174695800Y-75444298D01*
X174537052Y-75444298D01*
X174695800Y-75285550D01*
X174695800Y-74944991D01*
X174599127Y-74711602D01*
X174420499Y-74532973D01*
X174274626Y-74472550D01*
X178183000Y-74472550D01*
X178183000Y-75025609D01*
X178279673Y-75258998D01*
X178458301Y-75437627D01*
X178691690Y-75534300D01*
X179407250Y-75534300D01*
X179566000Y-75375550D01*
X179566000Y-74313800D01*
X179820000Y-74313800D01*
X179820000Y-75375550D01*
X179978750Y-75534300D01*
X180694310Y-75534300D01*
X180927699Y-75437627D01*
X181106327Y-75258998D01*
X181203000Y-75025609D01*
X181203000Y-74472550D01*
X181044250Y-74313800D01*
X179820000Y-74313800D01*
X179566000Y-74313800D01*
X178341750Y-74313800D01*
X178183000Y-74472550D01*
X174274626Y-74472550D01*
X174187110Y-74436300D01*
X173596550Y-74436300D01*
X173437800Y-74595050D01*
X173437800Y-75444300D01*
X173457800Y-75444300D01*
X173457800Y-75698300D01*
X173437800Y-75698300D01*
X173437800Y-75718300D01*
X173183800Y-75718300D01*
X173183800Y-75698300D01*
X172084550Y-75698300D01*
X171925800Y-75857050D01*
X171925800Y-75936300D01*
X171106436Y-75936300D01*
X170994654Y-75914065D01*
X170882872Y-75936300D01*
X170551800Y-76002154D01*
X170176366Y-76253011D01*
X170113044Y-76347779D01*
X168107480Y-78353344D01*
X168012712Y-78416666D01*
X167942504Y-78521740D01*
X167761854Y-78792101D01*
X167673765Y-79234955D01*
X167696000Y-79346738D01*
X167696000Y-79471929D01*
X167317750Y-79850179D01*
X167127000Y-80310690D01*
X167127000Y-74522325D01*
X167749581Y-74522325D01*
X167866601Y-74804746D01*
X168530663Y-75056318D01*
X169240448Y-75034614D01*
X169456817Y-74944991D01*
X171925800Y-74944991D01*
X171925800Y-75285550D01*
X172084550Y-75444300D01*
X173183800Y-75444300D01*
X173183800Y-74595050D01*
X173025050Y-74436300D01*
X172434490Y-74436300D01*
X172201101Y-74532973D01*
X172022473Y-74711602D01*
X171925800Y-74944991D01*
X169456817Y-74944991D01*
X169795399Y-74804746D01*
X169912419Y-74522325D01*
X168831000Y-73440905D01*
X167749581Y-74522325D01*
X167127000Y-74522325D01*
X167127000Y-73838087D01*
X167287554Y-74225699D01*
X167569975Y-74342719D01*
X168651395Y-73261300D01*
X169010605Y-73261300D01*
X170092025Y-74342719D01*
X170374446Y-74225699D01*
X170626018Y-73561637D01*
X170619486Y-73347991D01*
X178183000Y-73347991D01*
X178183000Y-73901050D01*
X178341750Y-74059800D01*
X179566000Y-74059800D01*
X179566000Y-72998050D01*
X179820000Y-72998050D01*
X179820000Y-74059800D01*
X181044250Y-74059800D01*
X181203000Y-73901050D01*
X181203000Y-73347991D01*
X181106327Y-73114602D01*
X180927699Y-72935973D01*
X180694310Y-72839300D01*
X179978750Y-72839300D01*
X179820000Y-72998050D01*
X179566000Y-72998050D01*
X179407250Y-72839300D01*
X178691690Y-72839300D01*
X178458301Y-72935973D01*
X178279673Y-73114602D01*
X178183000Y-73347991D01*
X170619486Y-73347991D01*
X170604314Y-72851852D01*
X170374446Y-72296901D01*
X170092025Y-72179881D01*
X169010605Y-73261300D01*
X168651395Y-73261300D01*
X167569975Y-72179881D01*
X167287554Y-72296901D01*
X167127000Y-72720707D01*
X167127000Y-72000275D01*
X167749581Y-72000275D01*
X168831000Y-73081695D01*
X169912419Y-72000275D01*
X169795399Y-71717854D01*
X169131337Y-71466282D01*
X168421552Y-71487986D01*
X167866601Y-71717854D01*
X167749581Y-72000275D01*
X167127000Y-72000275D01*
X167127000Y-59127000D01*
X175873000Y-59127000D01*
X175873000Y-67000000D01*
G04 #@! TD*
M02*
