M48
;DRILL file {KiCad (5.0.0)} date 01/27/19 17:50:12
;FORMAT={-:-/ absolute / metric / decimal}
FMAT,2
METRIC,TZ
T1C0.400
T2C0.760
T3C0.800
T4C1.000
T5C1.100
T6C1.300
T7C1.350
T8C1.520
T9C3.200
%
G90
G05
M71
T1
X153.5Y-105.5
X153.5Y-109.
X153.5Y-117.
X153.5Y-118.5
X153.5Y-120.5
X153.5Y-122.5
X153.5Y-124.5
X153.5Y-126.5
X154.346Y-115.617
X154.5Y-92.
X155.5Y-126.5
X156.34Y-116.658
X157.5Y-92.
X157.5Y-96.5
X157.5Y-126.5
X158.372Y-117.484
X158.5Y-94.
X158.5Y-109.
X159.Y-96.5
X159.5Y-126.5
X159.591Y-110.601
X160.Y-93.
X161.Y-95.
X161.Y-96.5
X161.5Y-126.5
X162.296Y-114.474
X162.843Y-96.465
X163.058Y-109.28
X163.5Y-126.5
X163.77Y-111.363
X164.5Y-99.5
X164.5Y-101.5
X164.925Y-114.474
X165.Y-92.
X165.446Y-113.318
X165.5Y-126.5
X166.208Y-117.509
X166.5Y-115.5
X166.5Y-119.5
X167.5Y-59.5
X167.5Y-61.5
X167.5Y-63.5
X167.5Y-65.5
X167.5Y-67.5
X167.5Y-69.5
X167.5Y-76.5
X167.5Y-78.5
X167.5Y-87.
X167.5Y-90.5
X167.5Y-126.5
X168.Y-115.5
X168.Y-119.5
X168.38Y-95.297
X168.431Y-96.897
X168.951Y-99.615
X169.5Y-59.5
X169.5Y-115.5
X169.5Y-119.5
X169.5Y-126.5
X170.5Y-109.5
X170.653Y-99.615
X170.831Y-104.06
X171.Y-82.
X171.Y-85.
X171.Y-90.5
X171.Y-119.5
X171.5Y-59.5
X171.5Y-79.
X171.5Y-106.5
X171.5Y-115.5
X171.5Y-126.5
X172.5Y-119.5
X173.244Y-82.597
X173.257Y-83.562
X173.307Y-74.304
X173.5Y-59.5
X173.5Y-126.5
X174.Y-119.5
X175.Y-83.
X175.Y-94.5
X175.Y-98.
X175.Y-107.
X175.Y-115.5
X175.5Y-59.5
X175.5Y-61.5
X175.5Y-63.5
X175.5Y-65.5
X175.5Y-67.5
X175.5Y-88.
X175.5Y-104.5
X175.5Y-118.5
X175.5Y-120.5
X175.5Y-122.5
X175.5Y-124.5
X175.5Y-126.5
X176.813Y-95.411
X176.952Y-111.35
X177.Y-93.5
X177.5Y-67.5
X177.5Y-118.5
X177.689Y-81.01
X178.Y-91.5
X178.5Y-83.
X178.5Y-88.
X179.Y-93.5
X179.213Y-108.823
X179.5Y-67.5
X179.5Y-118.5
X179.645Y-72.666
X179.924Y-100.123
X181.5Y-67.5
X181.5Y-118.5
X182.Y-94.
X182.083Y-95.881
X183.5Y-67.5
X183.5Y-69.5
X183.5Y-71.5
X183.5Y-73.5
X183.5Y-75.5
X183.5Y-77.5
X183.5Y-79.5
X183.5Y-81.5
X183.5Y-83.5
X183.5Y-86.5
X183.5Y-118.5
T2
X168.831Y-73.261
X168.831Y-80.861
T3
X140.831Y-73.261
X140.831Y-88.461
T4
X165.2Y-104.047
X165.2Y-106.587
X182.253Y-102.828
X182.253Y-105.368
X182.253Y-107.908
X182.253Y-110.448
X182.253Y-112.988
X182.253Y-115.528
T5
X180.763Y-84.732
X180.763Y-87.272
X180.763Y-89.812
X180.763Y-92.352
T6
X143.649Y-95.074
X143.649Y-107.074
X155.849Y-95.074
X155.849Y-107.074
X157.849Y-101.074
T7
X130.544Y-72.118
X130.544Y-82.278
T8
X119.383Y-72.259
X119.383Y-77.339
X119.383Y-82.419
T9
X119.928Y-122.863
X179.928Y-122.863
X119.928Y-62.863
X179.928Y-62.863
T0
M30
